<svg width="104" height="24" viewBox="0 0 104 24" fill="none" xmlns="http://www.w3.org/2000/svg">
<g clip-path="url(#clip0_607_33792)">
<path d="M34.4324 21.167V20.006C33.9198 20.4407 33.3351 20.7805 32.705 21.0113C32.0551 21.2449 31.3698 21.3638 30.6803 21.3652C29.8435 21.3681 29.0138 21.1996 28.245 20.8697C27.513 20.5497 26.8462 20.0995 26.277 19.5388C25.1089 18.3325 24.4633 16.7155 24.4788 15.0363C24.4703 14.1868 24.6332 13.3429 24.9602 12.5586C25.2703 11.8166 25.7177 11.1399 26.277 10.5622C26.8419 9.99018 27.5159 9.53851 28.2592 9.23127C29.0337 8.90137 29.8676 8.73289 30.7086 8.73572C31.3727 8.73147 32.0325 8.83766 32.6625 9.04721C33.2799 9.25534 33.8632 9.55692 34.3899 9.9392V8.93394H36.7969V21.1812H34.4324V21.167ZM26.8433 14.9938C26.8136 16.1265 27.2483 17.221 28.0468 18.0238C28.817 18.8308 29.8903 19.2783 31.006 19.2556C31.6629 19.2627 32.3142 19.1324 32.9174 18.8733C33.4837 18.6241 33.9906 18.2574 34.404 17.7973V12.2329C33.9949 11.7713 33.4866 11.4075 32.9174 11.171C32.3171 10.9162 31.6714 10.7859 31.0201 10.7887C29.9101 10.7618 28.8383 11.1979 28.061 11.9922C27.2568 12.7808 26.8164 13.8682 26.8433 14.9938Z" fill="#F7E6F7"/>
<path d="M41.4538 3.78076V21.1534H39.0469V4.30463L41.4538 3.78076Z" fill="#F7E6F7"/>
<path d="M46.1003 3.78076V21.1534H43.6934V4.30463L46.1003 3.78076Z" fill="#F7E6F7"/>
<path d="M57.7253 21.167V20.006C57.2128 20.4407 56.628 20.7805 55.998 21.0113C55.3481 21.2449 54.6628 21.3638 53.9733 21.3652C53.1365 21.3681 52.3068 21.1996 51.538 20.8697C50.806 20.5497 50.1391 20.0995 49.57 19.5388C48.4019 18.3325 47.7562 16.7155 47.7718 15.0363C47.7633 14.1868 47.9261 13.3429 48.2532 12.5586C48.5633 11.8166 49.0107 11.1399 49.57 10.5622C50.1349 9.99018 50.8088 9.53851 51.5522 9.23127C52.3266 8.90137 53.1606 8.73289 54.0016 8.73572C54.6656 8.73147 55.3254 8.83766 55.9555 9.04721C56.5728 9.25534 57.1562 9.55692 57.6829 9.9392V8.93394H60.0898V21.1812H57.7253V21.167ZM50.1505 14.9938C50.1207 16.1265 50.5554 17.221 51.3539 18.0238C52.1242 18.8308 53.1974 19.2783 54.3131 19.2556C54.9701 19.2627 55.6214 19.1324 56.2245 18.8733C56.7909 18.6241 57.2977 18.2574 57.7112 17.7973V12.2329C57.302 11.7713 56.7937 11.4075 56.2245 11.171C55.6242 10.9162 54.9786 10.7859 54.3273 10.7887C53.2172 10.7618 52.1454 11.1979 51.3681 11.9922C50.5469 12.7993 50.1505 13.7904 50.1505 14.9938Z" fill="#F7E6F7"/>
<path d="M66.9711 21.1667H64.6349L61.2227 8.91943H63.5588L65.9233 17.9243L68.7409 8.91943H70.7939L73.5832 17.9243L75.9618 8.91943H78.2272L74.7867 21.1667H72.4788L69.732 12.1901L66.9711 21.1667Z" fill="#F7E6F7"/>
<path d="M89.7096 19.7655C89.0441 20.2893 88.298 20.6999 87.5008 20.9831C86.6895 21.2564 85.8372 21.3909 84.9806 21.3796C84.1155 21.3838 83.2589 21.2153 82.4604 20.884C81.7014 20.5753 81.0091 20.1237 80.4215 19.5531C79.8368 18.9825 79.3738 18.2986 79.0623 17.5426C78.7295 16.744 78.5611 15.8874 78.5667 15.0223C78.5582 14.1728 78.721 13.3289 79.0481 12.5446C79.3539 11.8041 79.7957 11.1259 80.3507 10.5482C80.9029 9.97476 81.5684 9.52168 82.3046 9.21727C83.0635 8.88737 83.8833 8.71888 84.7116 8.72171C85.5215 8.71888 86.3228 8.88737 87.0619 9.21727C87.7755 9.53017 88.4169 9.98891 88.945 10.5623C89.4845 11.1584 89.9078 11.8494 90.191 12.6012C90.4996 13.4054 90.654 14.2606 90.6441 15.1214V15.8152H80.9737C81.2908 17.8569 83.0564 19.3577 85.1222 19.3407C85.7055 19.3407 86.2832 19.2444 86.8354 19.0575C87.3479 18.882 87.8237 18.6144 88.2371 18.2647L89.7096 19.7655ZM84.6266 10.7464C83.7403 10.7365 82.8851 11.065 82.2338 11.6667C81.5514 12.2883 81.0969 13.1208 80.9454 14.0312H88.2088C88.0573 13.135 87.6141 12.3138 86.9486 11.695C86.3342 11.0791 85.4974 10.7365 84.6266 10.7464Z" fill="#F7E6F7"/>
<path d="M102.946 19.7655C102.28 20.2893 101.534 20.6999 100.737 20.9831C99.9259 21.2564 99.0735 21.3909 98.2169 21.3796C97.3518 21.3838 96.4952 21.2153 95.6967 20.884C94.9378 20.5753 94.2454 20.1237 93.6578 19.5531C93.0731 18.9825 92.6101 18.2986 92.2986 17.5426C91.9659 16.744 91.7974 15.8874 91.8031 15.0223C91.7946 14.1728 91.9574 13.3289 92.2844 12.5446C92.5903 11.8041 93.032 11.1259 93.587 10.5482C94.1392 9.97476 94.8047 9.52168 95.5409 9.21727C96.2998 8.88737 97.1196 8.71888 97.9479 8.72171C98.7578 8.71888 99.5592 8.88737 100.298 9.21727C101.012 9.53017 101.653 9.98891 102.181 10.5623C102.721 11.1584 103.144 11.8494 103.427 12.6012C103.736 13.4054 103.89 14.2606 103.88 15.1214V15.8152H94.1534C94.4705 17.8569 96.2361 19.3577 98.3019 19.3407C98.8852 19.3407 99.4629 19.2444 100.015 19.0575C100.528 18.882 101.003 18.6144 101.417 18.2647L102.946 19.7655ZM97.863 10.7464C96.9766 10.7365 96.1214 11.065 95.4701 11.6667C94.7877 12.2883 94.3332 13.1208 94.1817 14.0312H101.445C101.294 13.135 100.85 12.3138 100.185 11.695C99.5691 11.082 98.7323 10.7393 97.863 10.7464Z" fill="#F7E6F7"/>
<path fill-rule="evenodd" clip-rule="evenodd" d="M15.2618 0H4.35962C3.85558 0 3.44781 0.409185 3.44922 0.913233C3.44922 0.944382 3.45064 0.975531 3.45347 1.00526L3.48179 1.28844C4.01982 6.41387 4.41626 10.1801 4.38794 14.2295C4.75607 14.3994 5.11003 14.5834 5.44984 14.7816C5.44984 11.3552 5.26578 8.50935 5.0534 5.25286C5.01092 4.60156 4.96845 3.93611 4.92597 3.24233C5.86469 3.18853 6.59811 2.41264 6.59669 1.4725H12.9539V1.48666C12.9568 2.41688 13.6817 3.18428 14.6105 3.24233L14.3132 10.4632L14.1574 14.81C14.51 14.6018 14.8738 14.4121 15.2476 14.2436C15.0919 9.95354 15.4459 6.17317 16.1679 1.04774C16.2359 0.542277 15.8805 0.0764567 15.3751 0.00849519C15.3382 0.00283173 15.3 0.00141587 15.2618 0Z" fill="#F7E6F7"/>
<path d="M9.86791 13.2668C11.1972 13.2668 12.2749 12.1892 12.2749 10.8599C12.2749 9.53052 11.1972 8.45288 9.86791 8.45288C8.53857 8.45288 7.46094 9.53052 7.46094 10.8599C7.46094 12.1892 8.53857 13.2668 9.86791 13.2668Z" fill="#F7E6F7"/>
<path fill-rule="evenodd" clip-rule="evenodd" d="M19.6653 13.2949V16.3957C19.6427 16.8997 19.2604 17.3131 18.7592 17.3726C15.4984 17.8498 13.0801 20.6461 13.0815 23.9422C13.0801 23.972 13.0546 23.9975 13.0249 23.9989H9.86753C9.39888 24.0159 9.00527 23.6491 8.98828 23.1805C8.98828 23.1508 8.98828 23.1224 8.98828 23.0927C9.46401 17.551 14.101 13.2949 19.6639 13.2949H19.6653Z" fill="#F7E6F7"/>
<path fill-rule="evenodd" clip-rule="evenodd" d="M0 13.2949V16.3957C0.0226539 16.8997 0.404938 17.3131 0.906154 17.3726C4.16689 17.8498 6.58519 20.6461 6.58378 23.9422C6.58519 23.972 6.61068 23.9975 6.64041 23.9989H9.79779C10.2664 24.0159 10.6601 23.6491 10.677 23.1805C10.677 23.1508 10.677 23.1224 10.677 23.0927C10.1999 17.551 5.56294 13.2949 0 13.2949Z" fill="#F7E6F7"/>
</g>
<defs>
<clipPath id="clip0_607_33792">
<rect width="103.881" height="23.9994" fill="white"/>
</clipPath>
</defs>
</svg>
