<svg width="93" height="24" viewBox="0 0 93 24" fill="none" xmlns="http://www.w3.org/2000/svg">
<g clip-path="url(#clip0_607_33783)">
<path d="M34.7215 18.7956V20.254H31.8984V3.59106H34.7215V10.0013C35.3928 9.05264 36.6428 8.40417 38.147 8.40417C41.5955 8.40417 43.6545 10.8571 43.6545 14.4214C43.6545 17.9856 41.5945 20.4385 38.1001 20.4385C36.6886 20.4385 35.3928 19.8141 34.7215 18.7956ZM40.8314 14.4214C40.8314 12.2696 39.5815 10.8581 37.6841 10.8581C35.7868 10.8581 34.537 12.2696 34.537 14.4224C34.537 16.5751 35.7858 17.9856 37.6841 17.9856C39.5815 17.9856 40.8314 16.5741 40.8314 14.4214Z" fill="#F7E6F7"/>
<path d="M56.4284 20.2536H53.5815V18.448C52.9331 19.7209 51.6144 20.4382 49.9484 20.4382C47.3329 20.4382 45.6211 18.5408 45.6211 15.8096V8.58939H48.4442V15.208C48.4442 16.8051 49.4397 17.9154 50.8742 17.9154C52.4712 17.9154 53.5815 16.6655 53.5815 14.9526V8.58838H56.4284V20.2536Z" fill="#F7E6F7"/>
<path d="M58.3496 16.365H60.9412C61.057 17.4762 61.9128 18.1705 63.1857 18.1705C64.297 18.1705 65.0371 17.6149 65.0371 16.9206C65.0371 14.329 58.6498 16.8049 58.6498 11.876C58.6498 9.83904 60.4315 8.40454 62.8385 8.40454C65.5698 8.40454 67.4442 9.90888 67.5599 12.1763H64.9683C64.8067 11.0889 63.8112 10.5333 62.9084 10.5333C61.8898 10.5333 61.2185 10.9962 61.2185 11.7832C61.2185 14.306 67.6985 11.5289 67.6985 16.8048C67.6985 19.0034 65.917 20.4379 63.1857 20.4379C60.3636 20.4379 58.4883 18.8647 58.3496 16.365Z" fill="#F7E6F7"/>
<path d="M69.8516 3.59106H72.6747V10.3953C73.323 9.12241 74.6647 8.40519 76.3316 8.40519C78.9469 8.40519 80.6586 10.3025 80.6586 13.0338V20.254H77.8359V13.6353C77.8359 12.0383 76.8404 10.928 75.3829 10.928C73.8089 10.928 72.6756 12.1779 72.6756 13.8907V20.255H69.8526V3.59106H69.8516Z" fill="#F7E6F7"/>
<path d="M92.9037 12.7548V20.2533H90.1034V18.5176C89.618 19.6748 88.2748 20.4389 86.6095 20.4389C84.2946 20.4389 82.7207 18.9576 82.7207 16.9445C82.7207 14.6761 84.4797 13.2645 87.0949 13.2645H89.2479C89.8263 13.2645 90.1034 12.9404 90.1034 12.4775C90.1034 11.3433 89.2239 10.5333 87.7197 10.5333C86.2154 10.5333 85.3127 11.482 85.2663 12.5234H82.7207C82.8593 10.2091 84.8265 8.40454 87.8583 8.40454C90.8211 8.40354 92.9037 10.1164 92.9037 12.7548ZM90.1034 15.3235V15.1379H87.4882C86.2851 15.1379 85.4753 15.8093 85.4753 16.8278C85.4753 17.7306 86.2154 18.3321 87.2807 18.3321C89.0613 18.3321 90.1034 17.0822 90.1034 15.3235Z" fill="#F7E6F7"/>
<path d="M22.0292 23.9241C21.7785 23.9245 21.5303 23.8748 21.2991 23.7779C21.0679 23.681 20.8584 23.5389 20.6829 23.3599L0.558686 3.24936C0.234589 2.88479 0.062262 2.41006 0.0770507 1.92251C0.0918393 1.43497 0.292621 0.971563 0.63822 0.627296C0.983822 0.283027 1.44805 0.0839883 1.93573 0.0709914C2.42342 0.0579948 2.8976 0.23202 3.26105 0.557394L23.3754 20.668C23.6407 20.9351 23.8212 21.2746 23.8941 21.6439C23.9671 22.0132 23.9293 22.3958 23.7854 22.7437C23.6416 23.0915 23.3982 23.3892 23.0857 23.5992C22.7732 23.8092 22.4057 23.9222 22.0292 23.9241Z" fill="#F7E6F7"/>
<path d="M22.0309 12.3487C21.7801 12.348 21.532 12.2978 21.3007 12.2008C21.0695 12.1039 20.8596 11.9622 20.6833 11.7839L12.1519 3.25312C11.7945 2.89575 11.5938 2.41105 11.5938 1.90564C11.5938 1.40023 11.7945 0.915523 12.1519 0.558147C12.5093 0.200772 12.994 0 13.4995 0C14.0049 0 14.4897 0.200772 14.8471 0.558147L23.3785 9.08895C23.5571 9.26501 23.6988 9.47481 23.7956 9.70614C23.8924 9.93739 23.9422 10.1857 23.9422 10.4364C23.9422 10.6872 23.8924 10.9354 23.7956 11.1667C23.6988 11.3981 23.5571 11.6079 23.3785 11.7839C23.2036 11.964 22.994 12.1068 22.7624 12.2039C22.5308 12.301 22.282 12.3502 22.0309 12.3487Z" fill="#F7E6F7"/>
<path d="M10.4372 23.9407C10.1865 23.94 9.93832 23.8898 9.707 23.7929C9.47574 23.6959 9.26594 23.5543 9.08957 23.376L0.558189 14.8452C0.381221 14.6682 0.240837 14.4581 0.145063 14.2269C0.0492886 13.9958 0 13.7479 0 13.4977C0 13.2474 0.0492886 12.9996 0.145063 12.7684C0.240837 12.5373 0.381221 12.3271 0.558189 12.1502C0.735157 11.9733 0.945252 11.8329 1.17647 11.7371C1.40769 11.6414 1.6555 11.592 1.90578 11.592C2.15604 11.592 2.40386 11.6414 2.63508 11.7371C2.8663 11.8329 3.07639 11.9733 3.25336 12.1502L11.7848 20.681C11.9633 20.857 12.1051 21.0669 12.2019 21.2982C12.2987 21.5295 12.3485 21.7777 12.3485 22.0285C12.3485 22.2792 12.2987 22.5274 12.2019 22.7588C12.1051 22.9901 11.9633 23.1999 11.7848 23.376C11.6098 23.556 11.4002 23.699 11.1687 23.796C10.9371 23.893 10.6883 23.9423 10.4372 23.9407Z" fill="#F7E6F7"/>
</g>
<defs>
<clipPath id="clip0_607_33783">
<rect width="92.9032" height="24" fill="white"/>
</clipPath>
</defs>
</svg>
