<svg width="97" height="24" viewBox="0 0 97 24" fill="none" xmlns="http://www.w3.org/2000/svg">
<g clip-path="url(#clip0_607_33804)">
<path d="M24.4727 15.3886V6.16841H28.6344V15.2014C28.6344 17.3614 29.5575 18.593 31.1636 18.593C33.2287 18.593 34.5843 16.6203 34.5843 13.6585V6.16577H38.7461V21.5812H34.5843V19.5899C33.6296 21.5337 31.8388 22.077 29.5891 22.077C26.3188 22.077 24.4727 19.6401 24.4727 15.386V15.3886Z" fill="#F7E6F7"/>
<path d="M44.9098 0.60376H40.748V3.98486H44.9098V0.60376Z" fill="#F7E6F7"/>
<path d="M44.8942 6.16797H40.7324V21.5834H44.8942V6.16797Z" fill="#F7E6F7"/>
<path d="M58.8279 -0.000488281V9.03775C57.8389 6.94369 55.9611 5.67775 53.5558 5.67775C49.6103 5.67775 46.8965 9.00874 46.8965 13.8483C46.8965 18.6879 49.671 22.0795 53.6191 22.0795C56.0218 22.0795 57.8732 20.8479 58.8305 18.7485V21.5837H62.9923V-0.000488281H58.8279ZM54.9826 18.5797C52.8727 18.5797 51.1637 16.5094 51.1637 13.9564C51.1637 11.4035 52.8754 9.33314 54.9826 9.33314C57.0899 9.33314 58.8015 11.4035 58.8015 13.9564C58.8015 16.5094 57.0899 18.5797 54.9826 18.5797Z" fill="#F7E6F7"/>
<path d="M88.2173 17.3009L85.1026 21.5866H80.1074L85.7197 13.8802L80.1074 6.17383H85.1026L88.2173 10.4595L91.332 6.17383H96.3272L90.7149 13.8802L96.3272 21.5866H91.332L88.2173 17.3009Z" fill="#F7E6F7"/>
<path d="M64.9766 17.5353C64.9766 14.8162 67.1286 13.2311 71.4038 12.7195C74.5133 12.3318 75.0223 12.0918 74.9616 11.0157C74.901 10.061 74.0966 9.54936 72.6592 9.54936C70.6865 9.54936 69.3994 10.4144 69.3994 11.6724L65.3933 11.3744C65.3933 8.29398 68.2021 6.1709 72.2715 6.1709C76.341 6.1709 79.0601 8.38365 79.0601 11.8518V21.5995H75.0249V19.1177C74.1599 20.9718 72.4245 22.0795 70.1194 22.0795C67.1023 22.0795 64.9766 20.1964 64.9766 17.5327V17.5353ZM75.0223 13.8878C74.3946 14.6342 73.1682 15.1458 71.6728 15.3252C69.8794 15.5652 69.0988 16.1612 69.0988 17.1502C69.0988 18.1392 69.9638 18.7063 71.1928 18.7063C73.4346 18.7063 74.872 16.8232 75.0196 13.8905L75.0223 13.8878Z" fill="#F7E6F7"/>
<path d="M22.5442 20.2514C21.484 21.6413 20.1758 22.8308 18.6804 23.7512C18.4853 22.7068 18.1714 21.702 17.7468 20.7604C17.164 19.4708 16.3807 18.2892 15.4365 17.258C13.891 15.5727 11.9077 14.2936 9.67385 13.5921C10.2409 13.5103 10.8237 13.4708 11.4119 13.4708C13.5745 13.4708 15.6132 14.0193 17.3908 14.9899C17.9288 13.9956 18.24 12.851 18.24 11.6378C18.24 7.75296 15.0884 4.60131 11.2035 4.60131C7.31868 4.60131 4.16703 7.75296 4.16703 11.6378C4.16703 12.1257 4.21714 12.6057 4.30945 13.0646C4.45714 13.7793 4.7156 14.4598 5.06374 15.0769C5.0822 15.1138 5.09538 15.1376 5.11648 15.1666C6.33231 17.2659 8.60308 18.6743 11.2009 18.6743C12.0211 18.6743 12.807 18.5345 13.5402 18.2708C14.5582 19.2756 15.3811 20.4782 15.9481 21.8101C14.5108 22.4826 12.9073 22.8545 11.2193 22.8545C7.32659 22.8545 3.89538 20.8712 1.88835 17.8593C1.52176 17.316 1.20527 16.7411 0.938901 16.1345C0.661978 15.5068 0.443077 14.8448 0.284835 14.1591C0.0975819 13.3468 0 12.5029 0 11.6378C0 5.44263 5.02418 0.418457 11.2193 0.418457C17.4145 0.418457 22.4387 5.44263 22.4387 11.6378C22.4387 13.8321 21.811 15.884 20.7138 17.6141C21.4312 18.4079 22.0457 19.2914 22.5415 20.2514H22.5442Z" fill="#F7E6F7"/>
</g>
<defs>
<clipPath id="clip0_607_33804">
<rect width="96.5275" height="24" fill="white" transform="translate(0 -0.000488281)"/>
</clipPath>
</defs>
</svg>
