<svg width="25" height="24" viewBox="0 0 25 24" fill="none" xmlns="http://www.w3.org/2000/svg">
<path d="M15.1074 2.4578C14.1604 2.16035 13.1526 2 12.1074 2C6.58457 2 2.10742 6.47715 2.10742 12C2.10742 17.5228 6.58457 22 12.1074 22C17.6303 22 22.1074 17.5228 22.1074 12C22.1074 10.2847 21.6755 8.67022 20.9146 7.25945M17.1074 5.75H17.1124M10.6075 21.8883L10.6076 19.6849C10.6076 19.5656 10.6503 19.4502 10.728 19.3596L13.2137 16.4594C13.418 16.2211 13.3547 15.8556 13.0822 15.6999L10.226 14.0677C10.1484 14.0234 10.0841 13.9591 10.0398 13.8814L8.17788 10.6186C8.08098 10.4488 7.894 10.3511 7.69925 10.3684L2.17161 10.8607M21.1074 6C21.1074 8.20914 19.1074 10 17.1074 12C15.1074 10 13.1074 8.20914 13.1074 6C13.1074 3.79086 14.8983 2 17.1074 2C19.3166 2 21.1074 3.79086 21.1074 6ZM17.3574 5.75C17.3574 5.88807 17.2455 6 17.1074 6C16.9694 6 16.8574 5.88807 16.8574 5.75C16.8574 5.61193 16.9694 5.5 17.1074 5.5C17.2455 5.5 17.3574 5.61193 17.3574 5.75Z" stroke="white" stroke-width="2" stroke-linecap="round" stroke-linejoin="round"/>
</svg>
