<svg width="112" height="24" viewBox="0 0 112 24" fill="none" xmlns="http://www.w3.org/2000/svg">
<path d="M50.7005 0.875182V23.1193C50.7005 23.2665 50.642 23.4077 50.5379 23.5118C50.4338 23.6159 50.2926 23.6744 50.1453 23.6744H43.904C43.7574 23.6735 43.617 23.6147 43.5136 23.5107C43.4102 23.4066 43.3521 23.2659 43.3521 23.1193V13.4926C43.3504 13.4402 43.3305 13.39 43.2958 13.3508C43.261 13.3116 43.2137 13.2857 43.1619 13.2777C43.1101 13.2697 43.0571 13.2801 43.0122 13.307C42.9672 13.3339 42.9331 13.3757 42.9157 13.4252L39.8416 23.2861C39.8071 23.3996 39.737 23.499 39.6416 23.5695C39.5463 23.64 39.4307 23.6779 39.3121 23.6776H33.8024C33.6835 23.6776 33.5677 23.6396 33.4719 23.5692C33.3761 23.4987 33.3053 23.3996 33.2698 23.2861L30.1956 13.4252C30.1801 13.3742 30.1467 13.3305 30.1015 13.3021C30.0564 13.2738 30.0025 13.2627 29.9498 13.2709C29.8971 13.2791 29.8492 13.306 29.8147 13.3468C29.7803 13.3875 29.7617 13.4393 29.7624 13.4926V23.1193C29.7624 23.2665 29.7039 23.4077 29.5998 23.5118C29.4957 23.6159 29.3545 23.6744 29.2073 23.6744H22.9243C22.777 23.6744 22.6358 23.6159 22.5317 23.5118C22.4276 23.4077 22.3691 23.2665 22.3691 23.1193V0.875182C22.3691 0.802431 22.3835 0.7304 22.4115 0.663227C22.4394 0.596054 22.4803 0.535068 22.5319 0.483775C22.5835 0.432481 22.6447 0.39189 22.7121 0.364342C22.7794 0.336794 22.8515 0.322829 22.9243 0.323252H31.0428C31.1557 0.323179 31.266 0.357543 31.3588 0.421757C31.4517 0.485971 31.5228 0.576991 31.5626 0.682656L36.0968 12.9182C36.1358 13.0251 36.2068 13.1174 36.3001 13.1826C36.3934 13.2479 36.5044 13.2829 36.6182 13.2829C36.7321 13.2829 36.8431 13.2479 36.9364 13.1826C37.0297 13.1174 37.1006 13.0251 37.1397 12.9182L41.5519 0.695485C41.5909 0.588105 41.662 0.495362 41.7556 0.429895C41.8492 0.364428 41.9607 0.32943 42.075 0.329676H50.155C50.2277 0.329253 50.2998 0.343218 50.3672 0.370766C50.4345 0.398314 50.4957 0.438895 50.5473 0.490189C50.5989 0.541483 50.6399 0.602468 50.6678 0.669641C50.6957 0.736815 50.7101 0.808855 50.7101 0.881606" fill="white"/>
<path d="M19.6417 14.4272L19.109 13.5095C18.5223 12.6923 17.7532 12.0232 16.8628 11.5552C17.9098 10.8912 18.7153 9.90787 19.1603 8.75066C19.3438 8.31193 19.4523 7.8455 19.4812 7.37083C19.483 7.37605 19.483 7.38166 19.4812 7.38687C19.5202 7.09112 19.5395 6.79312 19.539 6.49481C19.539 2.56391 16.6093 0 12.0815 0H1.44724C1.25623 0.000418389 1.06718 0.0385641 0.890947 0.112245C0.714714 0.185925 0.55477 0.293691 0.4203 0.429354C0.285829 0.565017 0.179481 0.7259 0.10736 0.902776C0.0352378 1.07965 -0.00123628 1.26903 3.19729e-05 1.46004V22.5361C3.15061e-05 22.7268 0.0376543 22.9157 0.110745 23.0919C0.183836 23.268 0.29096 23.4281 0.425985 23.5628C0.561009 23.6975 0.72128 23.8043 0.897624 23.877C1.07397 23.9497 1.26292 23.9869 1.45366 23.9865H12.4153C17.1452 23.9865 20.2097 21.291 20.2097 17.1291C20.2191 16.201 20.0252 15.2821 19.6417 14.4368M12.2612 8.2276C10.6889 8.2276 9.41172 7.35159 9.41172 6.2734C9.41172 5.19521 10.6953 4.31596 12.2612 4.31596C13.8272 4.31596 15.1139 5.192 15.1139 6.2734C15.1139 7.3548 13.8304 8.2276 12.2612 8.2276Z" fill="#B601B6"/>
<path d="M101.333 23.6747H94.7904C94.6992 23.6739 94.6095 23.651 94.529 23.6079C94.4485 23.5649 94.3797 23.503 94.3283 23.4276L87.0762 12.543C87.0502 12.5027 87.0118 12.4718 86.9668 12.4552C86.9218 12.4386 86.8726 12.437 86.8266 12.4508C86.7807 12.4645 86.7404 12.4929 86.7119 12.5315C86.6834 12.5701 86.6683 12.6169 86.6687 12.6649V23.1195C86.6678 23.2665 86.6091 23.4072 86.5052 23.5111C86.4012 23.6151 86.2605 23.6738 86.1135 23.6747H79.8305C79.7576 23.6747 79.6854 23.6603 79.6181 23.6324C79.5507 23.6045 79.4895 23.5636 79.438 23.5121C79.3864 23.4605 79.3456 23.3993 79.3177 23.3319C79.2898 23.2646 79.2754 23.1924 79.2754 23.1195V0.875445C79.2754 0.802543 79.2898 0.730363 79.3177 0.663011C79.3456 0.595658 79.3864 0.534451 79.438 0.482902C79.4895 0.431352 79.5507 0.390467 79.6181 0.362568C79.6854 0.33467 79.7576 0.320313 79.8305 0.320312H86.3671C86.4596 0.320438 86.5506 0.343687 86.6319 0.387961C86.7132 0.432235 86.7821 0.496121 86.8323 0.573808L94.0877 11.6413C94.1136 11.6816 94.152 11.7124 94.1971 11.7291C94.2421 11.7457 94.2913 11.7472 94.3373 11.7335C94.3832 11.7197 94.4235 11.6914 94.452 11.6528C94.4805 11.6142 94.4956 11.5673 94.4952 11.5194V0.875445C94.4952 0.802543 94.5095 0.730363 94.5374 0.663011C94.5653 0.595658 94.6062 0.534451 94.6578 0.482902C94.7093 0.431352 94.7705 0.390467 94.8379 0.362568C94.9052 0.33467 94.9774 0.320312 95.0503 0.320312H101.333C101.406 0.320313 101.478 0.33467 101.546 0.362568C101.613 0.390467 101.674 0.431352 101.726 0.482902C101.777 0.534451 101.818 0.595658 101.846 0.663011C101.874 0.730363 101.888 0.802543 101.888 0.875445V23.1195C101.888 23.2668 101.83 23.4079 101.726 23.5121C101.622 23.6162 101.481 23.6747 101.333 23.6747Z" fill="white"/>
<path d="M111.442 0.875182V23.1193C111.442 23.2665 111.383 23.4077 111.279 23.5118C111.175 23.6159 111.034 23.6744 110.886 23.6744H104.61C104.463 23.6744 104.321 23.6159 104.217 23.5118C104.113 23.4077 104.055 23.2665 104.055 23.1193V0.875182C104.055 0.802431 104.069 0.7304 104.097 0.663227C104.125 0.596054 104.166 0.535068 104.217 0.483775C104.269 0.432481 104.33 0.39189 104.398 0.364342C104.465 0.336794 104.537 0.322829 104.61 0.323252H110.893C110.966 0.322829 111.038 0.336794 111.105 0.364342C111.172 0.39189 111.234 0.432481 111.285 0.483775C111.337 0.535068 111.378 0.596054 111.406 0.663227C111.434 0.7304 111.448 0.802431 111.448 0.875182" fill="white"/>
<path d="M75.5025 5.81394C74.4568 4.01931 72.9427 2.54293 71.1223 1.54291C69.2472 0.538186 67.1528 0.0124512 65.0254 0.0124512C62.8981 0.0124512 60.8037 0.538186 58.9285 1.54291C57.0981 2.54075 55.5731 4.01696 54.5163 5.81394C53.4458 7.69317 52.8828 9.81869 52.8828 11.9814C52.8828 14.1442 53.4458 16.2697 54.5163 18.1489C55.5708 19.9507 57.0903 21.4358 58.9157 22.4489C60.7867 23.4664 62.8827 23.9995 65.0126 23.9995C67.1424 23.9995 69.2384 23.4664 71.1095 22.4489C72.9348 21.4426 74.4539 19.9612 75.5057 18.1618C76.5638 16.2784 77.1195 14.1545 77.1195 11.9943C77.1195 9.83404 76.5638 7.71014 75.5057 5.82678M64.9163 8.23986C63.3407 8.23986 62.0636 7.36384 62.0636 6.28565C62.0636 5.20746 63.3472 4.32823 64.9163 4.32823C66.4855 4.32823 67.7658 5.20426 67.7658 6.28565C67.7658 7.36705 66.4822 8.23986 64.9163 8.23986Z" fill="white"/>
</svg>
