<svg width="35" height="38" viewBox="0 0 35 38" fill="none" xmlns="http://www.w3.org/2000/svg">
<path d="M4.52111 33.1055L6.40527 34.4848L8.4876 36.0182C14.2895 39.5207 23.8692 35.3718 29.8818 26.7499C35.8945 18.1297 36.0644 8.30149 30.2609 4.79895L28.0936 3.1853C28.2855 3.35673 28.4632 3.54075 28.6346 3.73105C32.5178 8.04198 31.7613 16.5884 26.4564 24.1958C20.6718 32.4905 11.5844 36.6457 5.73527 33.8289C5.50722 33.7188 5.28075 33.5977 5.06213 33.4641C4.87498 33.3508 4.69411 33.2313 4.51953 33.1039L4.52111 33.1055Z" fill="#320032"/>
<path d="M4.43197 33.038L4.52162 33.104C4.6962 33.2314 4.87863 33.3494 5.06422 33.4642C5.2844 33.5979 5.50931 33.719 5.73736 33.8291C11.5865 36.6459 20.6739 32.4907 26.4585 24.1959C31.7634 16.5885 32.5183 8.04054 28.6367 3.73119C28.4669 3.54088 28.2876 3.35844 28.0957 3.18544C27.7135 2.83314 27.2952 2.52016 26.8375 2.24336C21.0356 -1.25918 11.4575 2.89133 5.44326 11.5148C-0.341351 19.8079 -0.718812 29.2209 4.43197 33.0395V33.038Z" fill="#FF4DA1"/>
<path d="M8.45447 30.3816C13.0532 32.3837 19.9639 29.0369 24.2764 22.5713C28.5905 16.1088 28.7541 8.85837 24.7923 5.9063H24.7892C20.1904 3.90575 13.2813 7.25258 8.97034 13.7198C4.65627 20.1822 4.4927 27.4311 8.45291 30.3832L8.45447 30.3816Z" fill="#FF4DA1"/>
<path d="M7.80633 30.0565C8.01708 30.1776 8.23411 30.2877 8.45745 30.3836C4.49724 27.4316 4.66081 20.1827 8.97489 13.7203C13.2858 7.25466 20.195 3.90783 24.7937 5.9068C24.6018 5.76368 24.3989 5.62842 24.1882 5.50732C19.6146 2.86351 12.2384 6.21349 7.71511 12.9921C3.19028 19.7722 3.23275 27.4127 7.80633 30.0581V30.0565Z" fill="#320032"/>
<path d="M8.45447 30.3816C13.0532 32.3837 19.9639 29.0369 24.2764 22.5713C28.5905 16.1088 28.7541 8.85837 24.7923 5.9063H24.7892C20.1904 3.90575 13.2813 7.25258 8.97034 13.7198C4.65627 20.1822 4.4927 27.4311 8.45291 30.3831L8.45447 30.3816Z" stroke="#320032" stroke-width="0.157276" stroke-linecap="round" stroke-linejoin="round"/>
<path d="M7.80633 30.0565C8.01708 30.1776 8.23411 30.2877 8.45745 30.3836C4.49724 27.4316 4.66081 20.1827 8.97489 13.7203C13.2858 7.25466 20.195 3.90783 24.7937 5.9068C24.6018 5.76368 24.3989 5.62842 24.1882 5.50732C19.6146 2.86351 12.2384 6.21349 7.71511 12.9921C3.19028 19.7722 3.23275 27.4127 7.80633 30.0581V30.0565Z" stroke="#320032" stroke-width="0.157276" stroke-linecap="round" stroke-linejoin="round"/>
<path d="M4.43197 33.038L4.52162 33.104C4.6962 33.2314 4.87863 33.3494 5.06422 33.4642C5.2844 33.5979 5.50931 33.719 5.73736 33.8291C11.5865 36.6459 20.6739 32.4907 26.4585 24.1959C31.7634 16.5885 32.5183 8.04055 28.6367 3.73119C28.4669 3.54088 28.2876 3.35844 28.0957 3.18544C27.7135 2.83314 27.2952 2.52016 26.8375 2.24336C21.0356 -1.25918 11.4575 2.89133 5.44326 11.5148C-0.341351 19.8079 -0.718812 29.2209 4.43197 33.0395V33.038Z" stroke="#320032" stroke-width="0.157276" stroke-linecap="round" stroke-linejoin="round"/>
<path d="M7.53804 35.3119L6.40723 34.483" stroke="#320032" stroke-width="0.157276" stroke-linecap="round" stroke-linejoin="round"/>
<path d="M4.52111 33.1055L6.40527 34.4848L8.4876 36.0182C14.2895 39.5207 23.8692 35.3718 29.8818 26.7499C35.8945 18.1297 36.0644 8.30149 30.2609 4.79895L28.0936 3.1853C28.2855 3.35673 28.4632 3.54075 28.6346 3.73105C32.5178 8.04198 31.7613 16.5884 26.4564 24.1958C20.6718 32.4905 11.5844 36.6457 5.73527 33.8289C5.50722 33.7188 5.28075 33.5977 5.06213 33.4641C4.87498 33.3508 4.69411 33.2313 4.51953 33.1039L4.52111 33.1055Z" stroke="#320032" stroke-width="0.157276" stroke-linecap="round" stroke-linejoin="round"/>
<path d="M4.14648 32.8312L4.43115 33.0388L4.5208 33.1048" stroke="#320032" stroke-width="0.157276" stroke-linecap="round" stroke-linejoin="round"/>
<path d="M21.6184 18.6769L21.447 18.2822C21.2315 17.9377 20.8996 17.6798 20.4781 17.5272C21.1167 17.134 21.6687 16.604 22.0525 16.0142C22.2082 15.7893 22.3277 15.555 22.4048 15.3238L22.4079 15.3317C22.4661 15.1854 22.5133 15.0407 22.551 14.896C23.048 12.9804 21.771 11.9707 19.3269 12.3623L13.7546 13.2556C13.3441 13.3217 12.9431 13.6818 12.8597 14.0609L10.7223 23.65C10.6437 24.0007 10.8969 24.2476 11.2869 24.2004L16.7491 23.5446C19.1759 23.2536 21.0931 21.8256 21.5964 19.8958C21.7143 19.4617 21.7238 19.0449 21.6231 18.6738L21.6184 18.6769ZM18.4461 16.2958C17.622 16.4169 17.0542 16.1007 17.1769 15.5896C17.2996 15.0769 18.0718 14.5579 18.9038 14.4305C19.7405 14.3031 20.3177 14.6208 20.1872 15.1398C20.0566 15.6572 19.2766 16.1747 18.4461 16.2958Z" fill="white"/>
<path d="M21.6184 18.6769L21.447 18.2822C21.2315 17.9377 20.8996 17.6798 20.4781 17.5272C21.1167 17.134 21.6687 16.604 22.0525 16.0142C22.2082 15.7893 22.3277 15.555 22.4048 15.3238L22.4079 15.3317C22.4661 15.1854 22.5133 15.0407 22.551 14.896C23.048 12.9804 21.771 11.9707 19.3269 12.3623L13.7546 13.2556C13.3441 13.3217 12.9431 13.6818 12.8597 14.0609L10.7223 23.65C10.6437 24.0007 10.8969 24.2476 11.2869 24.2004L16.7491 23.5446C19.1759 23.2536 21.0931 21.8256 21.5964 19.8958C21.7143 19.4617 21.7238 19.0449 21.6231 18.6738L21.6184 18.6769ZM18.4461 16.2958C17.622 16.4169 17.0542 16.1007 17.1769 15.5896C17.2996 15.0769 18.0718 14.5579 18.9038 14.4305C19.7405 14.3031 20.3177 14.6208 20.1872 15.1398C20.0566 15.6572 19.2766 16.1747 18.4461 16.2958Z" stroke="#320032" stroke-width="0.149412" stroke-linecap="round" stroke-linejoin="round"/>
</svg>
