<svg width="69" height="64" viewBox="0 0 69 64" fill="none" xmlns="http://www.w3.org/2000/svg">
<path d="M65.8154 51.3426L65.705 51.5155C65.4879 51.8504 65.2524 52.1742 65.0058 52.4907C64.7151 52.8624 64.406 53.2156 64.0858 53.5505C55.8686 62.099 37.5389 59.5893 22.1899 47.5302C8.11417 36.472 1.24373 21.0789 5.10765 10.8855C5.27693 10.4365 5.46463 9.99494 5.68174 9.56806C6.10861 8.6996 6.62379 7.87898 7.23098 7.10619C14.922 -2.68609 34.0908 -0.463418 50.0469 12.0704C65.3959 24.1258 72.178 41.3368 65.8154 51.3426Z" fill="#FEA500"/>
<path d="M65.7064 51.516L63.366 55.1444L61.9639 57.3229C54.2729 67.1152 35.1041 64.8962 19.148 52.3623C3.19549 39.8322 -3.50198 21.7343 4.18906 11.942L5.68314 9.56848C5.46602 9.99535 5.27832 10.4369 5.10905 10.8859C1.24512 21.0793 8.11556 36.4724 22.1913 47.5306C37.5402 59.5897 55.87 62.0994 64.0872 53.5509C64.4074 53.2161 64.7165 52.8628 65.0072 52.4911C65.2538 52.1747 65.4893 51.8508 65.7064 51.516Z" fill="#320032"/>
<path d="M57.1723 48.7189C50.5705 55.0483 36.5132 52.7926 24.8846 43.2799C13.256 33.7747 8.25133 20.446 13.1346 12.7218H13.1383C19.7401 6.39603 33.7974 8.65184 45.4223 18.1644C57.0508 27.6697 62.0555 40.9947 57.1723 48.7189Z" fill="#FEA500"/>
<path d="M58.0799 47.744C57.7965 48.09 57.4948 48.4175 57.1746 48.7192C62.0579 40.9951 57.0532 27.67 45.4246 18.1648C33.7997 8.65219 19.7424 6.3964 13.1406 12.7185C13.3761 12.3432 13.6374 11.9788 13.9208 11.6329C20.0589 4.12956 34.9221 6.12776 47.1137 16.0967C59.309 26.0693 64.218 40.237 58.0799 47.744Z" fill="#320032"/>
<path d="M57.1723 48.7189C50.5705 55.0483 36.5132 52.7926 24.8846 43.2799C13.256 33.7747 8.25133 20.446 13.1346 12.7218H13.1383C19.7401 6.39603 33.7974 8.65184 45.4223 18.1644C57.0508 27.6697 62.0555 40.9947 57.1723 48.7189Z" stroke="#320032" stroke-width="0.356953" stroke-linecap="round" stroke-linejoin="round"/>
<path d="M58.0799 47.744C57.7965 48.09 57.4948 48.4175 57.1746 48.7192C62.0579 40.9951 57.0532 27.6701 45.4246 18.1648C33.7997 8.65219 19.7424 6.3964 13.1406 12.7185C13.3761 12.3432 13.6374 11.9788 13.9208 11.6329C20.0589 4.12956 34.9221 6.12776 47.1137 16.0967C59.309 26.0693 64.218 40.237 58.0799 47.744Z" stroke="#320032" stroke-width="0.356953" stroke-linecap="round" stroke-linejoin="round"/>
<path d="M65.8154 51.3426L65.705 51.5155C65.4879 51.8504 65.2524 52.1742 65.0058 52.4907C64.7151 52.8624 64.406 53.2156 64.0858 53.5505C55.8686 62.099 37.5389 59.5893 22.1899 47.5302C8.11417 36.472 1.24373 21.0789 5.10765 10.8855C5.27693 10.4365 5.46463 9.99494 5.68174 9.56806C6.10861 8.6996 6.62379 7.87898 7.23098 7.10619C14.922 -2.68609 34.0908 -0.463418 50.0469 12.0704C65.3959 24.1258 72.178 41.3368 65.8154 51.3426Z" stroke="#320032" stroke-width="0.356953" stroke-linecap="round" stroke-linejoin="round"/>
<path d="M63.363 55.1445L61.9609 57.323" stroke="#320032" stroke-width="0.356953" stroke-linecap="round" stroke-linejoin="round"/>
<path d="M65.7064 51.516L63.366 55.1444L61.9639 57.3229C54.2729 67.1152 35.1041 64.8962 19.148 52.3623C3.19549 39.8322 -3.50198 21.7343 4.18906 11.942L5.68314 9.56848C5.46602 9.99535 5.27832 10.4369 5.10905 10.8859C1.24512 21.0793 8.11556 36.4724 22.1913 47.5306C37.5402 59.5897 55.87 62.0994 64.0872 53.5509C64.4074 53.2161 64.7165 52.8628 65.0072 52.4911C65.2538 52.1747 65.4893 51.8508 65.7064 51.516Z" stroke="#320032" stroke-width="0.356953" stroke-linecap="round" stroke-linejoin="round"/>
<path d="M65.7031 51.5162L65.8135 51.3432L66.1668 50.7949" stroke="#320032" stroke-width="0.356953" stroke-linecap="round" stroke-linejoin="round"/>
<path d="M45.6326 37.1232L49.0881 36.1701L44.6575 29.572L48.1313 28.7293L47.0236 26.8672L43.4615 27.7946L42.8469 26.8783L46.3502 26.0282L45.2426 24.1625L41.651 25.0972L37.6178 19.0879L33.4374 20.0336L37.603 26.1533L33.2976 27.2757L23.8696 22.4771L20.0977 23.4191L24.267 29.6309L20.4988 30.6134L21.485 32.067L25.279 31.147L26.0739 32.3319L22.2798 33.3182L23.2661 34.7717L27.0895 33.8444L31.5643 40.5087L35.4945 39.4305L31.1006 32.8692L35.2221 31.8683L45.629 37.1269L45.6326 37.1232ZM28.245 28.5931L27.9874 28.2067L28.5762 28.5048L28.245 28.5931ZM41.0622 31.228L40.0244 30.7017L40.6059 30.5619L41.0622 31.2316V31.228ZM30.0518 31.2905L29.3011 30.1681L31.0344 29.7486L32.7161 30.5987L30.0518 31.2942V31.2905ZM38.7733 27.8682L39.4393 28.847L37.4154 29.3733L35.8551 28.5784L38.7733 27.8682Z" fill="white"/>
<path d="M45.6326 37.1232L49.0881 36.1701L44.6575 29.572L48.1313 28.7293L47.0236 26.8672L43.4615 27.7946L42.8469 26.8783L46.3502 26.0282L45.2426 24.1625L41.651 25.0972L37.6178 19.0879L33.4374 20.0336L37.603 26.1533L33.2976 27.2757L23.8696 22.4771L20.0977 23.4191L24.267 29.6309L20.4988 30.6134L21.485 32.067L25.279 31.147L26.0739 32.3319L22.2798 33.3182L23.2661 34.7717L27.0895 33.8444L31.5643 40.5087L35.4945 39.4305L31.1006 32.8692L35.2221 31.8683L45.629 37.1269L45.6326 37.1232ZM28.245 28.5931L27.9874 28.2067L28.5762 28.5048L28.245 28.5931ZM41.0622 31.228L40.0244 30.7017L40.6059 30.5619L41.0622 31.2316V31.228ZM30.0518 31.2905L29.3011 30.1681L31.0344 29.7486L32.7161 30.5987L30.0518 31.2942V31.2905ZM38.7733 27.8682L39.4393 28.847L37.4154 29.3733L35.8551 28.5784L38.7733 27.8682Z" stroke="#320032" stroke-width="0.356953" stroke-linecap="round" stroke-linejoin="round"/>
</svg>
