<svg width="227" height="199" viewBox="0 0 227 199" fill="none" xmlns="http://www.w3.org/2000/svg">
<path d="M94.2166 149.47L99.9878 134.969L110.872 107.624L118.064 89.5512L120.531 83.3596C122.157 85.2312 123.754 87.0842 125.469 88.8405C134.47 98.061 149.655 117.146 158.872 104.781C161.592 101.131 161.573 96.8778 160.048 92.5466L165.793 95.1922L223.289 121.652C225.596 122.716 226.668 125.395 225.734 127.754L198.88 195.386C197.879 197.905 194.987 199.089 192.506 197.991L96.7283 155.606C94.3766 154.567 93.2715 151.855 94.2203 149.47L94.2166 149.47Z" fill="#00DB8B"/>
<path d="M139.497 96.3958C140.985 96.0944 142.611 96.1613 144.215 96.6637C148.918 98.1186 151.665 102.725 150.359 106.945C149.049 111.168 144.174 113.404 139.475 111.946C137.871 111.451 136.494 110.587 135.434 109.497C138.325 108.932 140.736 107.012 141.599 104.228C142.463 101.445 141.562 98.4981 139.497 96.3958Z" fill="#DD3C3B"/>
<path d="M139.505 96.3946C141.57 98.497 142.471 101.444 141.607 104.227C140.744 107.01 138.333 108.931 135.442 109.496C133.373 107.39 132.472 104.443 133.339 101.663C134.203 98.8802 136.614 96.9602 139.505 96.3946Z" fill="#EB7E36"/>
<path d="M135.463 93.9492C137.063 94.4478 138.436 95.3073 139.5 96.4013C136.609 96.9669 134.198 98.8869 133.334 101.67C132.467 104.45 133.368 107.397 135.437 109.503C133.945 109.8 132.319 109.733 130.719 109.235C126.015 107.78 123.269 103.173 124.575 98.9538C125.885 94.7306 130.756 92.4905 135.463 93.9492Z" fill="#ECA93D"/>
<path d="M139.497 96.3958C140.985 96.0944 142.611 96.1613 144.215 96.6637C148.918 98.1186 151.665 102.725 150.359 106.945C149.049 111.168 144.174 113.404 139.475 111.946C137.871 111.451 136.494 110.587 135.434 109.497C138.325 108.932 140.736 107.012 141.599 104.228C142.463 101.445 141.562 98.4981 139.497 96.3958Z" stroke="#320032" stroke-width="0.476282" stroke-linecap="round" stroke-linejoin="round"/>
<path d="M139.505 96.3946C141.57 98.497 142.471 101.444 141.607 104.227C140.744 107.01 138.333 108.931 135.442 109.496C133.373 107.39 132.472 104.443 133.339 101.663C134.203 98.8802 136.614 96.9602 139.505 96.3946Z" stroke="#320032" stroke-width="0.476282" stroke-linecap="round" stroke-linejoin="round"/>
<path d="M135.463 93.9492C137.063 94.4478 138.436 95.3073 139.5 96.4013C136.609 96.9669 134.198 98.8869 133.334 101.67C132.467 104.45 133.368 107.397 135.437 109.503C133.945 109.8 132.319 109.733 130.719 109.235C126.015 107.78 123.269 103.173 124.575 98.9538C125.885 94.7306 130.756 92.4905 135.463 93.9492Z" stroke="#320032" stroke-width="0.476282" stroke-linecap="round" stroke-linejoin="round"/>
<path d="M1.00103 1.00574L58.9102 1.00574C54.7055 7.90811 44.2087 20.1761 35.937 24.3175C32.6998 25.9436 29.8049 26.3231 27.7584 24.645C20.4913 18.6803 1.00103 1.00574 1.00103 1.00574Z" fill="#0059AB"/>
<path d="M142.656 91.5852C145.231 89.6763 147.97 84.534 150.247 85.8103C153.194 87.4586 157.971 93.7917 158.626 94.6215C159.278 95.4512 160.658 98.5247 157.406 102.674C151.523 110.171 145.856 102.674 144.066 101.208C142.28 99.7415 137.793 95.1908 142.66 91.5852L142.656 91.5852Z" fill="#FFCFD4"/>
<path d="M153.233 81.1413C156.72 75.7459 160.024 72.2296 163.008 70.1012C171.957 63.7012 178.011 69.7105 177.453 74.4212C176.816 79.7757 168.493 91.5041 165.791 95.1953L160.046 92.5497C158.684 88.6799 156.117 84.7506 153.237 81.1375L153.233 81.1413Z" fill="#DD835E"/>
<path d="M149.16 65.5794C147.125 58.0036 149.19 52.8352 152.349 49.9812C157.048 45.7393 164.17 46.61 163.861 52.2956C163.586 57.4194 163.206 65.7692 163.009 70.0967C160.029 72.225 156.725 75.7376 153.234 81.1367C150.57 77.8027 147.638 74.7478 145.123 72.2548C145.908 70.0706 147.437 67.6669 149.156 65.5794L149.16 65.5794Z" fill="#C16F52"/>
<path d="M134.904 55.9426C136.046 55.0533 137.166 54.6998 138.104 54.5993C135.358 31.295 151.719 34.7667 151.927 39.5071C152.057 42.5174 152.228 46.9491 152.344 49.9891C149.185 52.8393 147.12 58.0114 149.155 65.5873C147.436 67.6785 145.91 70.0785 145.121 72.2627C143.086 70.2422 141.326 68.5976 140.217 67.4887C134.755 62.0263 123.287 53.4086 119.521 41.3379L134.904 55.9463L134.904 55.9426Z" fill="#C16F52"/>
<path d="M105.688 83.0979C107.489 80.2997 109.156 77.7062 111.266 74.2494C114.972 77.0699 117.8 80.2364 120.531 83.362L118.064 89.5537C114.637 86.923 109.339 84.5565 105.688 83.0979Z" fill="#C16F52"/>
<path d="M98.0326 96.5395C99.9303 94.3144 101.936 91.3376 102.368 88.3013C103.584 86.3664 104.66 84.7032 105.687 83.0994C109.337 84.5543 114.636 86.9208 118.063 89.5553L110.87 107.628C107.715 100.912 100.124 97.4065 98.0326 96.5432L98.0326 96.5395Z" fill="#C16F52"/>
<path d="M51.9951 67.6947C56.3896 88.6772 57.5245 103.483 66.6371 109.823C73.8222 114.828 92.4419 129.143 99.988 134.966L110.872 107.621C107.716 100.904 100.126 97.3991 98.0345 96.5358C99.9322 94.3107 101.938 91.3339 102.369 88.2976C103.586 86.3627 104.662 84.6995 105.689 83.0957C107.489 80.2976 109.156 77.7041 111.266 74.2473C114.972 77.0678 117.8 80.2343 120.531 83.3599C122.157 85.2316 123.754 87.0846 125.469 88.8409C134.47 98.0614 149.655 117.146 158.872 104.781C161.592 101.131 161.573 96.8782 160.048 92.547C158.686 88.6772 156.119 84.7478 153.239 81.1348C150.574 77.8008 147.642 74.7459 145.127 72.2529C143.092 70.2324 141.331 68.5877 140.223 67.4789C134.76 62.0165 123.292 53.3988 119.527 41.3281C119.404 40.9411 119.292 40.5429 119.184 40.1485C113.737 19.5977 101.398 5.44322 85.7814 1.00039L58.9124 1.00039C54.7077 7.90275 44.2109 20.1707 35.9392 24.3121C42.4137 29.8526 47.8575 47.9067 51.9989 67.6947L51.9951 67.6947ZM142.656 91.5832C145.231 89.6744 147.97 84.532 150.247 85.8083C153.194 87.4567 157.972 93.7897 158.626 94.6195C159.278 95.4493 160.658 98.5228 157.406 102.672C151.523 110.169 145.856 102.672 144.066 101.206C142.28 99.7395 137.793 95.1888 142.66 91.5832L142.656 91.5832Z" fill="#DD835E"/>
<path d="M1.00103 1.00574L58.9102 1.00574C54.7055 7.90811 44.2087 20.1761 35.937 24.3175C32.6998 25.9436 29.8049 26.3231 27.7584 24.645C20.4913 18.6803 1.00103 1.00574 1.00103 1.00574Z" stroke="#320032" stroke-width="0.476282" stroke-linecap="round" stroke-linejoin="round"/>
<path d="M51.9951 67.6947C56.3896 88.6772 57.5245 103.483 66.6371 109.823C73.8222 114.828 92.4419 129.143 99.988 134.966L110.872 107.621C107.716 100.904 100.126 97.3991 98.0345 96.5358C99.9322 94.3107 101.938 91.3339 102.369 88.2976C103.586 86.3627 104.662 84.6995 105.689 83.0957C107.489 80.2976 109.156 77.7041 111.266 74.2473C114.972 77.0678 117.8 80.2343 120.531 83.3599C122.157 85.2316 123.754 87.0846 125.469 88.8409C134.47 98.0614 149.655 117.146 158.872 104.781C161.592 101.131 161.573 96.8782 160.048 92.547C158.686 88.6772 156.119 84.7478 153.239 81.1348C150.574 77.8008 147.642 74.7459 145.127 72.2529C143.092 70.2324 141.331 68.5877 140.223 67.4789C134.76 62.0165 123.292 53.3988 119.527 41.3281C119.404 40.9411 119.292 40.5429 119.184 40.1485C113.737 19.5977 101.398 5.44321 85.7814 1.00039L58.9124 1.00039C54.7077 7.90275 44.2109 20.1707 35.9392 24.3121C42.4137 29.8526 47.8575 47.9067 51.9989 67.6947L51.9951 67.6947ZM142.656 91.5832C145.231 89.6744 147.97 84.532 150.247 85.8083C153.194 87.4567 157.972 93.7897 158.626 94.6195C159.278 95.4493 160.658 98.5228 157.406 102.672C151.523 110.169 145.856 102.672 144.066 101.206C142.28 99.7396 137.793 95.1888 142.66 91.5832L142.656 91.5832Z" stroke="#320032" stroke-width="0.476282" stroke-linecap="round" stroke-linejoin="round"/>
<path d="M111.266 74.2529C105.587 69.9366 97.8702 66.4241 85.3417 65.0957" stroke="#320032" stroke-width="0.476282" stroke-linecap="round" stroke-linejoin="round"/>
<path d="M98.0273 96.5412C96.1297 98.7664 94.3399 100.232 94.3399 100.232" stroke="#320032" stroke-width="0.476282" stroke-linecap="round" stroke-linejoin="round"/>
<path d="M153.233 81.1413C156.72 75.7459 160.024 72.2296 163.008 70.1012C171.957 63.7012 178.011 69.7105 177.453 74.4212C176.816 79.7757 168.493 91.5041 165.791 95.1953L160.046 92.5497C158.684 88.6799 156.117 84.7506 153.237 81.1375L153.233 81.1413Z" stroke="#320032" stroke-width="0.476282" stroke-linecap="round" stroke-linejoin="round"/>
<path d="M149.16 65.5794C147.125 58.0036 149.19 52.8352 152.349 49.9812C157.048 45.7393 164.17 46.61 163.861 52.2956C163.586 57.4194 163.206 65.7692 163.009 70.0967C160.029 72.225 156.725 75.7376 153.234 81.1367C150.57 77.8027 147.638 74.7478 145.123 72.2548C145.908 70.0706 147.437 67.6669 149.156 65.5794L149.16 65.5794Z" stroke="#320032" stroke-width="0.476282" stroke-linecap="round" stroke-linejoin="round"/>
<path d="M149.156 65.5758C149.405 66.4986 149.71 67.4587 150.086 68.4521" stroke="#320032" stroke-width="0.476282" stroke-linecap="round" stroke-linejoin="round"/>
<path d="M134.904 55.9426C136.046 55.0533 137.166 54.6998 138.104 54.5993C135.358 31.295 151.719 34.7667 151.927 39.5071C152.057 42.5174 152.228 46.9491 152.344 49.9891C149.185 52.8393 147.12 58.0114 149.155 65.5873C147.436 67.6785 145.91 70.0785 145.121 72.2627C143.086 70.2422 141.326 68.5976 140.217 67.4887C134.755 62.0263 123.287 53.4086 119.521 41.3379L134.904 55.9463L134.904 55.9426Z" stroke="#320032" stroke-width="0.476282" stroke-linecap="round" stroke-linejoin="round"/>
<path d="M138.104 54.5929C138.249 55.8133 138.446 57.1045 138.695 58.4775" stroke="#320032" stroke-width="0.476282" stroke-linecap="round" stroke-linejoin="round"/>
<path d="M133.708 57.0674C134.106 56.6171 134.508 56.2451 134.902 55.9362" stroke="#320032" stroke-width="0.476282" stroke-linecap="round" stroke-linejoin="round"/>
<path d="M142.656 91.5852C145.231 89.6763 147.97 84.534 150.247 85.8103C153.194 87.4586 157.971 93.7917 158.626 94.6215C159.278 95.4512 160.658 98.5247 157.406 102.674C151.523 110.171 145.856 102.674 144.066 101.208C142.28 99.7415 137.793 95.1908 142.66 91.5852L142.656 91.5852Z" stroke="#320032" stroke-width="0.476282" stroke-linecap="round" stroke-linejoin="round"/>
<path d="M105.688 83.0979C107.489 80.2997 109.156 77.7062 111.266 74.2494C114.972 77.0699 117.8 80.2364 120.531 83.362L118.064 89.5537C114.637 86.923 109.339 84.5565 105.688 83.0979Z" stroke="#320032" stroke-width="0.476282" stroke-linecap="round" stroke-linejoin="round"/>
<path d="M98.0326 96.5395C99.9303 94.3144 101.936 91.3376 102.368 88.3013C103.584 86.3664 104.66 84.7031 105.687 83.0994C109.337 84.5543 114.636 86.9208 118.063 89.5553L110.87 107.628C107.715 100.912 100.124 97.4065 98.0326 96.5432L98.0326 96.5395Z" stroke="#320032" stroke-width="0.476282" stroke-linecap="round" stroke-linejoin="round"/>
<path d="M94.2166 149.47L99.9878 134.969L110.872 107.624L118.064 89.5512L120.531 83.3596C122.157 85.2312 123.754 87.0842 125.469 88.8405C134.47 98.061 149.655 117.146 158.872 104.781C161.592 101.131 161.573 96.8778 160.048 92.5466L165.793 95.1922L223.289 121.652C225.596 122.716 226.668 125.395 225.734 127.754L198.88 195.386C197.879 197.905 194.987 199.089 192.506 197.991L96.7283 155.606C94.3766 154.567 93.2715 151.855 94.2203 149.47L94.2166 149.47Z" stroke="#320032" stroke-width="0.476282" stroke-linecap="round" stroke-linejoin="round"/>
<path d="M198.801 161.517C199.519 161.837 199.861 162.711 199.556 163.452L195.545 173.271C195.247 174 194.418 174.347 193.703 174.041L180.285 168.333C179.541 168.017 179.169 167.143 179.463 166.395L183.411 156.292C183.709 155.53 184.568 155.176 185.316 155.507L198.801 161.517Z" fill="#F2F2F2"/>
<path d="M180.374 168.103C179.749 167.835 179.44 167.113 179.686 166.484L183.638 156.386C183.887 155.746 184.601 155.452 185.23 155.731L198.715 161.736C199.318 162.004 199.601 162.73 199.348 163.351L195.336 173.175C195.087 173.785 194.399 174.075 193.796 173.818L180.378 168.103L180.374 168.103ZM180.192 168.564L193.61 174.268C194.454 174.629 195.411 174.216 195.757 173.372L199.772 163.56C200.129 162.685 199.727 161.677 198.89 161.305L185.405 155.292C184.523 154.897 183.53 155.318 183.184 156.203L179.236 166.309C178.882 167.173 179.318 168.192 180.196 168.568L180.192 168.564Z" fill="#010101"/>
<path d="M186.735 166.02C186.538 166.511 185.983 166.742 185.496 166.534L180.513 164.387L180.331 164.852L185.313 166.995C186.006 167.293 186.798 166.988 187.129 166.329L187.178 166.21L188.789 162.158L188.819 162.083C189.06 161.343 188.707 160.532 188.007 160.204L183.01 158.002L182.824 158.474L187.821 160.673C188.309 160.889 188.543 161.469 188.35 161.964L186.739 166.02L186.735 166.02Z" fill="#010101"/>
<path d="M190.308 167.708C190.093 168.415 190.442 169.204 191.138 169.505L195.979 171.589L196.165 171.135L191.309 169.044C190.829 168.839 190.599 168.27 190.796 167.782L192.415 163.756C192.612 163.265 193.166 163.034 193.646 163.246L198.513 165.39L198.699 164.932L193.832 162.785C193.133 162.476 192.322 162.785 192.005 163.492L191.975 163.566L190.357 167.596C190.323 167.634 190.305 167.678 190.308 167.715L190.308 167.708Z" fill="#010101"/>
<path d="M197.236 168.522L197.422 168.068L191.468 165.474L191.282 165.936L197.232 168.525L197.236 168.522Z" fill="#010101"/>
<path d="M187.65 164.352L187.836 163.886L181.741 161.23L181.559 161.699L187.654 164.352L187.65 164.352Z" fill="#010101"/>
<path d="M190.533 167.8L190.719 167.342L187.106 165.779L186.923 166.241L190.536 167.8L190.533 167.8Z" fill="#010101"/>
<path d="M190.472 172.421L191.711 169.351L191.261 169.158L190.022 172.231L190.472 172.421Z" fill="#010101"/>
<path d="M184.224 169.741L185.426 166.712L184.968 166.515L183.766 169.548L184.224 169.741Z" fill="#010101"/>
<path d="M194.162 163.289L195.379 160.271L194.929 160.07L193.712 163.092L194.162 163.289Z" fill="#010101"/>
<path d="M187.877 160.525L189.086 157.474L188.628 157.27L187.419 160.324L187.877 160.525Z" fill="#010101"/>
<path d="M192.044 164.047L192.23 163.585L188.614 161.997L188.428 162.462L192.044 164.047Z" fill="#010101"/>
<path d="M212.918 133.65L162.726 110.554L164.453 106.882L214.648 129.982L212.918 133.65Z" fill="#F2F2F2"/>
<path d="M209.309 141.251L159.117 118.151L160.843 114.482L211.035 137.582L209.309 141.251Z" fill="#F2F2F2"/>
<path d="M212.918 133.65L162.726 110.554L164.453 106.882L214.648 129.982L212.918 133.65Z" stroke="#320032" stroke-width="0.476282" stroke-linecap="round" stroke-linejoin="round"/>
<path d="M209.309 141.251L159.117 118.151L160.843 114.482L211.035 137.582L209.309 141.251Z" stroke="#320032" stroke-width="0.476282" stroke-linecap="round" stroke-linejoin="round"/>
</svg>
