<svg width="516" height="274" viewBox="0 0 516 274" fill="none" xmlns="http://www.w3.org/2000/svg">
<path d="M313.205 54.1156L312.303 54.8082L312.229 54.8666C312.043 55.002 311.826 55.0657 311.613 55.0657C311.274 55.0657 310.937 54.8985 310.73 54.5933L300.8 39.6983C300.436 39.1569 300.571 38.4219 301.105 38.0397L302.041 37.3232C301.864 37.4745 301.744 37.6656 301.678 37.8752C301.566 38.2149 301.612 38.597 301.821 38.9181L311.746 53.8105C311.95 54.1183 312.285 54.2828 312.624 54.2828H312.627C312.826 54.2828 313.025 54.2271 313.197 54.1156H313.205Z" fill="#018FFF"/>
<path d="M313.369 53.985L313.351 54.0009L313.207 54.1124C313.035 54.2238 312.836 54.2796 312.637 54.2796H312.634C312.295 54.2796 311.96 54.115 311.756 53.8072L301.831 38.9148C301.619 38.5938 301.574 38.2116 301.688 37.872C301.752 37.6623 301.874 37.4713 302.051 37.32L302.134 37.2563C302.235 37.1847 302.338 37.1369 302.452 37.1157C302.805 37.0281 303.187 37.1661 303.402 37.4872L313.521 52.6423C313.81 53.0695 313.738 53.6374 313.377 53.985H313.369Z" fill="#253292"/>
<path d="M307.29 93.3369C306.823 92.5568 306.202 91.9411 305.475 91.5324L304.592 91.1795C303.716 90.9539 302.774 90.9991 301.842 91.3095C302.304 89.9376 302.416 88.486 302.161 87.1672C302.079 86.6524 301.922 86.172 301.702 85.7475L301.715 85.7554C301.593 85.4768 301.452 85.2088 301.298 84.9593C299.252 81.6422 295.643 81.767 292.133 85.3149L283.893 93.6501C283.269 94.279 283.113 95.3351 283.537 96.0065L294.593 113.465C295.009 114.12 295.842 114.15 296.455 113.529L304.838 105.05C308.453 101.393 309.419 96.792 307.29 93.3369ZM296.572 92.095C295.357 93.321 293.916 93.5864 293.351 92.6815C292.783 91.7739 293.311 90.0411 294.526 88.8098C295.744 87.5811 297.188 87.3184 297.75 88.2286C298.316 89.1362 297.788 90.8664 296.572 92.095Z" fill="#B601B6"/>
<path d="M349.309 119.98L286.51 23.0154C284.637 20.1203 280.569 19.701 278.143 22.1556L241.403 59.3149C238.758 61.9925 238.333 66.1508 240.379 69.3086L285.892 139.562C286.075 139.493 286.266 139.424 286.462 139.36C291.213 137.779 295.312 134.387 297.934 139.087C300.232 143.203 300.516 148.367 292.914 150.394L298.056 158.334C303.515 157.49 306.625 156.691 307.782 160.343C309.029 164.262 308.538 167.255 304.497 168.272L311.062 178.406C312.853 181.169 316.738 181.575 319.06 179.237L356.777 141.257C352.632 132.654 350.493 125.747 349.309 119.98ZM258.745 50.5154C258.132 50.5154 257.638 49.8201 257.638 48.9603C257.638 48.1005 258.132 47.4053 258.745 47.4053C259.358 47.4053 259.849 48.1005 259.849 48.9603C259.849 49.8201 259.355 50.5154 258.745 50.5154ZM267.624 41.5088L262.317 46.8772C261.876 47.3257 261.128 47.2248 260.82 46.6755C260.709 46.4765 260.653 46.2562 260.653 46.0386C260.653 45.7069 260.78 45.3779 261.027 45.1284L266.255 39.8423C266.685 39.4071 267.406 39.4682 267.757 39.9724C267.903 40.182 267.972 40.4208 267.972 40.6597C267.972 40.9701 267.855 41.2753 267.624 41.5088ZM304.839 105.051L296.456 113.529C295.843 114.15 295.01 114.121 294.593 113.466L283.538 96.0072C283.114 95.3358 283.27 94.2796 283.894 93.6507L292.133 85.3155C295.644 81.7676 299.253 81.6429 301.299 84.96C301.453 85.2094 301.594 85.4774 301.716 85.7561L301.702 85.7481C301.923 86.1727 302.079 86.653 302.162 87.1678C302.416 88.4867 302.305 89.9382 301.843 91.3102C302.775 90.9997 303.717 90.9546 304.592 91.1801L305.476 91.5331C306.203 91.9417 306.824 92.5574 307.291 93.3376C309.419 96.7926 308.453 101.394 304.839 105.051Z" fill="#F0E4F0"/>
<path d="M348.511 115.383L333.154 91.6699C339.329 98.5031 346.675 105.758 347.657 107.069C347.858 109.566 348.068 112.297 348.511 115.383Z" fill="#253292"/>
<path d="M323.635 76.9746L287.476 21.1388C286.561 19.7271 285.215 18.8036 283.743 18.3949C283.09 18.2145 282.413 18.1349 281.736 18.1614L285.457 17.904L286.42 17.8376H286.433C288.54 17.8483 290.629 18.8673 291.889 20.8177L302.446 37.1165C302.331 37.1404 302.225 37.1882 302.127 37.2572L302.042 37.3209L301.105 38.0373C300.572 38.4195 300.439 39.1545 300.8 39.6985L310.73 54.5936C310.935 54.8987 311.272 55.0633 311.614 55.0633C311.824 55.0633 312.044 54.9996 312.23 54.8642L312.304 54.8085L313.206 54.1133L313.349 54.0018L313.368 53.9859L323.319 69.3506C322.621 71.2427 322.762 73.9892 323.635 76.9746Z" fill="#253292"/>
<path d="M359.205 146.038L330.062 175.313L324.66 180.74C323.41 181.995 321.82 182.656 320.209 182.754L320.119 182.759L316.213 183.033C316.842 182.959 317.46 182.794 318.055 182.545C318.848 182.21 319.594 181.717 320.244 181.061L357.806 143.334C358.25 144.215 358.714 145.117 359.205 146.038Z" fill="#253292"/>
<path d="M304.498 168.271C303.848 168.433 303.11 168.547 302.271 168.601L305.326 173.332C300.212 172.178 295.098 171.419 293.236 168.293C291.309 165.053 290.492 159.291 295.12 158.742C295.372 158.713 295.613 158.681 295.855 158.652C296.63 158.551 297.362 158.445 298.057 158.333C303.516 157.49 306.626 156.691 307.783 160.342C309.03 164.262 308.539 167.255 304.498 168.271Z" fill="#FF9AA0"/>
<path d="M262.391 106.777C260.278 106.201 256.85 104.914 252.79 102.066C246.588 97.7224 248.934 91.7305 251.412 89.7588L262.391 106.777Z" fill="#FF9AA0"/>
<path d="M280.875 135.426C266.296 134.752 263.602 130.97 263.018 128.266C262.419 125.48 264.059 121.491 266.572 121.544C268.257 121.582 270.579 121.571 271.927 121.558L280.875 135.426Z" fill="#FF9AA0"/>
<path d="M292.915 150.393C292.273 150.565 291.577 150.714 290.816 150.836L293.96 155.713C292.48 155.328 290.107 154.713 287.39 154.004C282.799 152.799 282.091 150.836 281.162 146.68C280.57 144.026 281.284 141.927 284.07 140.383C284.601 140.088 285.209 139.812 285.893 139.56C286.076 139.491 286.267 139.422 286.464 139.359C291.214 137.777 295.314 134.386 297.936 139.085C300.234 143.201 300.518 148.365 292.915 150.393Z" fill="#FF9AA0"/>
<path d="M241.406 59.3143C238.76 61.9918 238.336 66.1501 240.382 69.308L285.895 139.561C285.21 139.813 284.602 140.089 284.072 140.384L280.877 135.427L271.928 121.559L262.394 106.778H262.391L251.413 89.7598L238.694 70.0431C236.141 66.0838 236.693 60.8853 240.016 57.5496L277.358 20.0798C278.584 18.8512 280.147 18.2223 281.721 18.1612H281.739C282.416 18.1347 283.092 18.2143 283.745 18.3948C285.218 18.8034 286.563 19.7269 287.479 21.1386L323.638 76.9744C324.572 80.1747 326.339 83.6537 328.81 86.6577C330.102 88.2313 331.594 89.9349 333.157 91.6704L348.513 115.384C348.718 116.835 348.978 118.361 349.312 119.98L286.513 23.0148C284.64 20.1196 280.571 19.7004 278.146 22.155L241.406 59.3143Z" fill="#018FFF"/>
<path d="M357.805 143.335L320.242 181.062C319.592 181.717 318.846 182.211 318.053 182.545C317.458 182.795 316.84 182.959 316.211 183.033L315.466 183.084H315.428C313.173 183.108 310.933 182.025 309.588 179.939L305.326 173.332L302.271 168.6C303.11 168.547 303.848 168.433 304.498 168.271L311.063 178.406C312.854 181.168 316.739 181.574 319.061 179.236L356.778 141.257C357.107 141.936 357.449 142.631 357.805 143.335Z" fill="#018FFF"/>
<path d="M298.058 158.333C297.363 158.445 296.631 158.551 295.856 158.652L293.961 155.714L290.816 150.837C291.578 150.715 292.273 150.566 292.915 150.394L298.058 158.333Z" fill="#018FFF"/>
<path d="M425.534 148.615L407.179 194.664C405.038 193.48 401.076 191.259 397.655 189.192C392.682 186.185 387.709 186.679 387.001 186.788C374.855 188.656 370.389 187.387 365.58 185.803C360.774 184.222 335.53 175.313 335.53 175.313H330.061L359.203 146.038C358.713 145.117 358.248 144.215 357.805 143.334C357.449 142.631 357.107 141.935 356.778 141.256C352.633 132.653 350.494 125.745 349.311 119.979C348.976 118.36 348.716 116.834 348.512 115.383C348.069 112.297 347.859 109.566 347.657 107.069C346.675 105.758 339.33 98.5028 333.155 91.6696C331.592 89.9341 330.101 88.2305 328.808 86.6569C326.338 83.6529 324.57 80.174 323.636 76.9736C322.763 73.9883 322.623 71.2417 323.321 69.3497C323.812 68.0096 324.727 67.094 326.104 66.8234C332.908 65.47 334.543 70.0608 335.979 72.7251C337.414 75.3894 338.232 74.4049 341.32 75.4823C350.919 78.8418 351.81 80.4022 358.038 85.4282C364.269 90.4543 374.433 98.2136 379.132 104.007C383.832 109.799 391.7 121.162 396.947 128.813C402.19 136.464 409.291 142.254 414.869 144.44C420.27 146.558 419.641 146.072 425.534 148.615Z" fill="#FF9AA0"/>
<path d="M274.989 211.531C274.938 212.444 274.373 213.049 273.423 213.442C274.498 209.472 271.727 206.8 271.727 206.8C271.727 206.8 268.421 207.32 266.017 207.623C263.613 207.922 263.339 208.769 263.533 209.918C263.684 210.818 263.918 213.031 264.011 213.941C261.108 213.787 257.979 213.572 255.089 213.607C246.348 213.715 243.888 213.275 239.57 214.588C235.253 215.899 227.44 213.88 223.126 213.275C221.17 213.002 216.714 212.351 212.299 211.717C217.399 215.114 229.781 223.335 230.994 223.985C232.522 224.802 259.189 224.585 263.504 224.802C265.858 224.922 268.015 226.533 268.835 228.204C269.366 229.277 269.344 230.372 268.471 231.113L266.264 228.34C266.264 228.34 261.734 230.739 260.813 231.269C260.001 231.742 260.126 233.148 260.609 234.26C258.701 234.974 256.984 235.542 255.309 235.836C251.867 236.436 240.887 237.476 238.535 237.967C236.184 238.458 233.454 240.809 228.536 239.881C226.544 239.504 221.093 236.89 215.005 233.79C213.273 234.783 209.494 236.938 207.554 237.967C204.985 239.334 203.345 239.058 196.568 236.985C194.296 236.288 191.725 235.457 189.307 234.658H189.305C187.028 235.162 181.426 236.224 176.681 235.672C170.559 234.963 170.012 232.612 166.082 229.608C162.147 226.604 139.089 204.308 137.834 203.817C136.576 203.326 108.055 192.449 108.055 192.449L136.467 131.908C136.467 131.908 143.136 135.623 146.849 137.372C150.564 139.121 154.499 139.885 162.585 138.572C170.671 137.261 177.448 136.276 181.492 136.499C185.534 136.717 205.097 137.481 211.216 138.354C217.335 139.23 218.214 140.53 225.424 143.162C226.445 143.534 227.356 143.685 228.266 143.701V146.96C228.266 147.889 229.003 148.462 230.779 148.462H238.291C238.291 148.462 238.899 146.798 239.151 144.391C241.192 147.448 240.645 154.159 232.092 157.89C229.63 158.965 226.504 159.79 222.584 160.212C219.36 160.555 213.933 160.146 208.809 160.3H208.796C204.189 160.44 199.834 161.038 197.558 163.054C192.749 167.316 186.63 172.562 197.34 177.591C208.05 182.614 225.697 191.74 233.348 197.096C233.348 197.096 257.923 199.709 261.978 200.758C268.532 202.451 275.355 204.919 274.992 211.523L274.989 211.531Z" fill="#8F616B"/>
<path d="M300.211 224.33L299.779 224.834H299.776L296.563 228.571C297.12 227.851 297.454 226.949 297.46 225.997C297.462 225.564 297.396 225.121 297.255 224.678L281.442 175.391C279.712 170.004 274.925 166.178 269.291 165.676L208.809 160.305C213.933 160.151 219.36 160.562 222.584 160.217C226.503 159.798 229.629 158.973 232.092 157.896L272.884 161.518C278.518 162.019 283.305 165.846 285.035 171.233L300.848 220.519C301.291 221.907 300.989 223.292 300.217 224.33H300.211Z" fill="#E6E6E6"/>
<path d="M297.251 224.674L281.438 175.388C279.708 170.001 274.92 166.174 269.287 165.673L208.804 160.302H208.791C204.184 160.442 199.83 161.039 197.553 163.056C192.744 167.318 186.625 172.564 197.335 177.593C208.045 182.616 225.692 191.742 233.343 197.097C233.343 197.097 257.918 199.711 261.973 200.76C268.528 202.453 275.35 204.921 274.987 211.525C274.936 212.438 274.371 213.043 273.421 213.436C271.481 214.235 267.957 214.139 264.009 213.935C261.105 213.781 257.977 213.566 255.087 213.601C246.346 213.709 243.886 213.269 239.568 214.583C235.251 215.893 227.438 213.874 223.124 213.269C221.168 212.996 216.712 212.345 212.297 211.711C217.397 215.108 229.779 223.329 230.992 223.979C232.52 224.796 259.187 224.579 263.502 224.796C265.856 224.916 268.013 226.527 268.833 228.198L292.873 230.175C294.39 230.3 295.725 229.626 296.558 228.562C297.116 227.843 297.45 226.941 297.455 225.988C297.458 225.555 297.392 225.112 297.251 224.669V224.674ZM273.843 183.827C272.312 185.827 268.626 185.575 265.617 183.272C262.602 180.963 261.397 177.471 262.929 175.47C264.46 173.469 268.146 173.721 271.16 176.025C274.175 178.333 275.374 181.826 273.843 183.827Z" fill="#F0E4F0"/>
<path d="M143.33 117.288L108.052 192.455L89.9355 185.176L126.816 108.196L143.33 117.288Z" fill="#F0E4F0"/>
<path d="M361.016 149.359C360.379 148.226 359.774 147.122 359.203 146.039" stroke="#320032" stroke-width="0.39805" stroke-linecap="round" stroke-linejoin="round"/>
<path d="M330.061 175.314H335.53C335.53 175.314 360.774 184.223 365.58 185.804C370.388 187.388 374.854 188.657 387 186.789C387.709 186.68 392.682 186.186 397.655 189.193C401.075 191.26 405.037 193.481 407.179 194.665" stroke="#320032" stroke-width="0.39805" stroke-linecap="round" stroke-linejoin="round"/>
<path d="M323.636 76.9733C322.763 73.9879 322.623 71.2414 323.321 69.3493C323.812 68.0092 324.727 67.0937 326.104 66.823C327.75 66.4966 329.095 66.5152 330.207 66.7753" stroke="#320032" stroke-width="0.39805" stroke-linecap="round" stroke-linejoin="round"/>
<path d="M336.143 73.0203H336.145C337.48 75.3157 338.35 74.448 341.32 75.4829C350.918 78.8425 351.81 80.4028 358.038 85.4289C364.269 90.4549 374.432 98.2142 379.132 104.007C383.832 109.8 391.7 121.163 396.946 128.814C402.19 136.464 409.291 142.254 414.869 144.441C420.269 146.559 419.64 146.073 425.534 148.615" stroke="#320032" stroke-width="0.39805" stroke-linecap="round" stroke-linejoin="round"/>
<path d="M304.498 168.271C303.848 168.433 303.11 168.547 302.271 168.601L305.326 173.332C300.212 172.178 295.098 171.419 293.236 168.293C291.309 165.053 290.492 159.291 295.12 158.742C295.372 158.713 295.613 158.681 295.855 158.652C296.63 158.551 297.362 158.445 298.057 158.333C303.516 157.49 306.626 156.691 307.783 160.342C309.03 164.262 308.539 167.255 304.498 168.271Z" stroke="#320032" stroke-width="0.39805" stroke-linecap="round" stroke-linejoin="round"/>
<path d="M298.562 168.539C299.969 168.656 301.198 168.674 302.27 168.6" stroke="#320032" stroke-width="0.39805" stroke-linecap="round" stroke-linejoin="round"/>
<path d="M241.406 59.3143C238.76 61.9918 238.336 66.1501 240.382 69.308L285.895 139.561C285.21 139.813 284.602 140.089 284.072 140.384L280.877 135.427L271.928 121.559L262.394 106.778H262.391L251.413 89.7598L238.694 70.0431C236.141 66.0838 236.693 60.8853 240.016 57.5496L277.358 20.0798C278.584 18.8512 280.147 18.2223 281.721 18.1612H281.739C282.416 18.1347 283.092 18.2143 283.745 18.3948C285.218 18.8034 286.563 19.7269 287.479 21.1386L323.638 76.9744C324.572 80.1747 326.339 83.6537 328.81 86.6577C330.102 88.2313 331.594 89.9349 333.157 91.6704L348.513 115.384C348.718 116.835 348.978 118.361 349.312 119.98L286.513 23.0148C284.64 20.1196 280.571 19.7004 278.146 22.155L241.406 59.3143Z" stroke="#320032" stroke-width="0.39805" stroke-linecap="round" stroke-linejoin="round"/>
<path d="M357.805 143.335L320.242 181.062C319.592 181.717 318.846 182.211 318.053 182.545C317.458 182.795 316.84 182.959 316.211 183.033L315.466 183.084H315.428C313.173 183.108 310.933 182.025 309.588 179.939L305.326 173.332L302.271 168.6C303.11 168.547 303.848 168.433 304.498 168.271L311.063 178.406C312.854 181.168 316.739 181.574 319.061 179.236L356.778 141.257C357.107 141.936 357.449 142.631 357.805 143.335Z" stroke="#320032" stroke-width="0.39805" stroke-linecap="round" stroke-linejoin="round"/>
<path d="M316.211 183.032C315.964 183.067 315.712 183.083 315.465 183.083" stroke="#320032" stroke-width="0.39805" stroke-linecap="round" stroke-linejoin="round"/>
<path d="M298.058 158.333C297.363 158.445 296.631 158.551 295.856 158.652L293.961 155.714L290.816 150.837C291.578 150.715 292.273 150.566 292.915 150.394L298.058 158.333Z" stroke="#320032" stroke-width="0.39805" stroke-linecap="round" stroke-linejoin="round"/>
<path d="M348.511 115.383L333.154 91.6699C339.329 98.5031 346.675 105.758 347.657 107.069C347.858 109.566 348.068 112.297 348.511 115.383Z" stroke="#320032" stroke-width="0.39805" stroke-linecap="round" stroke-linejoin="round"/>
<path d="M359.205 146.038L330.062 175.313L324.66 180.74C323.41 181.995 321.82 182.656 320.209 182.754L320.119 182.759L316.213 183.033C316.842 182.959 317.46 182.794 318.055 182.545C318.848 182.21 319.594 181.717 320.244 181.061L357.806 143.334C358.25 144.215 358.714 145.117 359.205 146.038Z" stroke="#320032" stroke-width="0.39805" stroke-linecap="round" stroke-linejoin="round"/>
<path d="M323.635 76.9746L287.476 21.1388C286.561 19.7271 285.215 18.8036 283.743 18.3949C283.09 18.2145 282.413 18.1349 281.736 18.1614L285.457 17.904L286.42 17.8376H286.433C288.54 17.8483 290.629 18.8673 291.889 20.8177L302.446 37.1165C302.331 37.1404 302.225 37.1882 302.127 37.2572L302.042 37.3209L301.105 38.0373C300.572 38.4195 300.439 39.1545 300.8 39.6985L310.73 54.5936C310.935 54.8987 311.272 55.0633 311.614 55.0633C311.824 55.0633 312.044 54.9996 312.23 54.8642L312.304 54.8085L313.206 54.1133L313.349 54.0018L313.368 53.9859L323.319 69.3506C322.621 71.2427 322.762 73.9892 323.635 76.9746Z" stroke="#320032" stroke-width="0.39805" stroke-linecap="round" stroke-linejoin="round"/>
<path d="M262.391 106.777C260.278 106.201 256.85 104.914 252.79 102.066C246.588 97.7224 248.934 91.7305 251.412 89.7588L262.391 106.777Z" stroke="#320032" stroke-width="0.39805" stroke-linecap="round" stroke-linejoin="round"/>
<path d="M280.875 135.426C266.296 134.752 263.602 130.97 263.018 128.266C262.419 125.48 264.059 121.491 266.572 121.544C268.257 121.582 270.579 121.571 271.927 121.558L280.875 135.426Z" stroke="#320032" stroke-width="0.39805" stroke-linecap="round" stroke-linejoin="round"/>
<path d="M292.915 150.393C292.273 150.565 291.577 150.714 290.816 150.836L293.96 155.713C292.48 155.328 290.107 154.713 287.39 154.004C282.799 152.799 282.091 150.836 281.162 146.68C280.57 144.026 281.284 141.927 284.07 140.383C284.601 140.088 285.209 139.812 285.893 139.56C286.076 139.491 286.267 139.422 286.464 139.359C291.214 137.777 295.314 134.386 297.936 139.085C300.234 143.201 300.518 148.365 292.915 150.393Z" stroke="#320032" stroke-width="0.39805" stroke-linecap="round" stroke-linejoin="round"/>
<path d="M290.815 150.837C290.3 150.922 289.761 150.993 289.193 151.055" stroke="#320032" stroke-width="0.39805" stroke-linecap="round" stroke-linejoin="round"/>
<path d="M259.849 48.9593C259.849 49.8191 259.356 50.5144 258.745 50.5144C258.135 50.5144 257.639 49.8191 257.639 48.9593C257.639 48.0996 258.132 47.4043 258.745 47.4043C259.358 47.4043 259.849 48.0996 259.849 48.9593Z" stroke="#320032" stroke-width="0.39805" stroke-linecap="round" stroke-linejoin="round"/>
<path d="M267.971 40.659C267.971 40.9695 267.854 41.2747 267.624 41.5082L262.316 46.8765C261.876 47.325 261.127 47.2242 260.82 46.6749C260.708 46.4758 260.652 46.2556 260.652 46.038C260.652 45.7063 260.78 45.3772 261.027 45.1278L266.254 39.8417C266.684 39.4065 267.406 39.4675 267.756 39.9717C267.902 40.1813 267.971 40.4202 267.971 40.659Z" stroke="#320032" stroke-width="0.39805" stroke-linecap="round" stroke-linejoin="round"/>
<path d="M313.369 53.985L313.351 54.0009L313.207 54.1124C313.035 54.2238 312.836 54.2796 312.637 54.2796H312.634C312.295 54.2796 311.96 54.115 311.756 53.8072L301.831 38.9148C301.619 38.5938 301.574 38.2116 301.688 37.872C301.752 37.6623 301.874 37.4713 302.051 37.32L302.134 37.2563C302.235 37.1847 302.338 37.1369 302.452 37.1157C302.805 37.0281 303.187 37.1661 303.402 37.4872L313.521 52.6423C313.81 53.0695 313.738 53.6374 313.377 53.985H313.369Z" stroke="#320032" stroke-width="0.39805" stroke-linecap="round" stroke-linejoin="round"/>
<path d="M313.353 54.001C313.324 54.0303 313.289 54.0596 313.254 54.0836C313.238 54.0942 313.225 54.1022 313.209 54.1129L313.353 54.001Z" stroke="#320032" stroke-width="0.39805" stroke-linecap="round" stroke-linejoin="round"/>
<path d="M313.205 54.1156L312.303 54.8082L312.229 54.8666C312.043 55.002 311.826 55.0657 311.613 55.0657C311.274 55.0657 310.937 54.8985 310.73 54.5933L300.8 39.6983C300.436 39.1569 300.571 38.4219 301.105 38.0397L302.041 37.3232C301.864 37.4745 301.744 37.6656 301.678 37.8752C301.566 38.2149 301.612 38.597 301.821 38.9181L311.746 53.8105C311.95 54.1183 312.285 54.2828 312.624 54.2828H312.627C312.826 54.2828 313.025 54.2271 313.197 54.1156H313.205Z" stroke="#320032" stroke-width="0.39805" stroke-linecap="round" stroke-linejoin="round"/>
<path d="M187.936 222.945C187.936 222.945 190.395 221.525 193.017 222.563C195.753 223.645 206.063 229.242 215.003 233.796" stroke="#320032" stroke-width="0.39805" stroke-linecap="round" stroke-linejoin="round"/>
<path d="M180.342 231.635C180.342 231.635 184.519 233.084 189.303 234.663" stroke="#320032" stroke-width="0.39805" stroke-linecap="round" stroke-linejoin="round"/>
<path d="M297.251 224.674L281.438 175.388C279.708 170.001 274.92 166.174 269.287 165.673L208.804 160.302H208.791C204.184 160.442 199.83 161.039 197.553 163.056C192.744 167.318 186.625 172.564 197.335 177.593C208.045 182.616 225.692 191.742 233.343 197.097C233.343 197.097 257.918 199.711 261.973 200.76C268.528 202.453 275.35 204.921 274.987 211.525C274.936 212.438 274.371 213.043 273.421 213.436C271.481 214.235 267.957 214.139 264.009 213.935C261.105 213.781 257.977 213.566 255.087 213.601C246.346 213.709 243.886 213.269 239.568 214.583C235.251 215.893 227.438 213.874 223.124 213.269C221.168 212.996 216.712 212.345 212.297 211.711C217.397 215.108 229.779 223.329 230.992 223.979C232.52 224.796 259.187 224.579 263.502 224.796C265.856 224.916 268.013 226.527 268.833 228.198L292.873 230.175C294.39 230.3 295.725 229.626 296.558 228.562C297.116 227.843 297.45 226.941 297.455 225.988C297.458 225.555 297.392 225.112 297.251 224.669V224.674ZM273.843 183.827C272.312 185.827 268.626 185.575 265.617 183.272C262.602 180.963 261.397 177.471 262.929 175.47C264.46 173.469 268.146 173.721 271.16 176.025C274.175 178.333 275.374 181.826 273.843 183.827Z" stroke="#320032" stroke-width="0.39805" stroke-linecap="round" stroke-linejoin="round"/>
<path d="M273.841 183.826C272.31 185.827 268.624 185.575 265.614 183.272C262.6 180.963 261.395 177.471 262.926 175.47C264.457 173.469 268.143 173.721 271.158 176.025C274.173 178.333 275.372 181.826 273.841 183.826Z" fill="#253292"/>
<path d="M273.841 183.826C272.31 185.827 268.624 185.575 265.614 183.272C262.6 180.963 261.395 177.471 262.926 175.47C264.457 173.469 268.143 173.721 271.158 176.025C274.173 178.333 275.372 181.826 273.841 183.826Z" stroke="#320032" stroke-width="0.39805" stroke-linecap="round" stroke-linejoin="round"/>
<path d="M239.147 144.396C238.892 146.805 238.287 148.469 238.287 148.469H230.775C228.999 148.469 228.262 147.893 228.262 146.967V143.708C230.541 143.753 232.762 142.968 236.438 142.809C237.494 142.764 238.468 143.374 239.147 144.396Z" fill="#E3C4C9"/>
<path d="M273.423 213.439C271.483 214.238 267.959 214.142 264.01 213.938C263.918 213.03 263.684 210.815 263.533 209.915C263.339 208.766 263.612 207.919 266.017 207.62C268.421 207.317 271.727 206.797 271.727 206.797C271.727 206.797 274.498 209.466 273.423 213.439Z" fill="#E3C4C9"/>
<path d="M268.471 231.115C268.208 231.346 267.869 231.54 267.436 231.691C264.828 232.609 262.609 233.517 260.606 234.265C260.125 233.151 259.998 231.744 260.81 231.274C261.731 230.741 266.261 228.345 266.261 228.345L268.468 231.118L268.471 231.115Z" fill="#E3C4C9"/>
<path d="M198.48 211.964C198.48 211.964 199.629 210.215 200.94 210.215C201.66 210.215 206.951 210.953 212.298 211.717" stroke="#320032" stroke-width="0.39805" stroke-linecap="round" stroke-linejoin="round"/>
<path d="M239.147 144.396C238.892 146.805 238.287 148.469 238.287 148.469H230.775C228.999 148.469 228.262 147.893 228.262 146.967V143.708C230.541 143.753 232.762 142.968 236.438 142.809C237.494 142.764 238.468 143.374 239.147 144.396Z" stroke="#320032" stroke-width="0.39805" stroke-linecap="round" stroke-linejoin="round"/>
<path d="M274.989 211.531C274.938 212.444 274.373 213.049 273.423 213.442C274.498 209.472 271.727 206.8 271.727 206.8C271.727 206.8 268.421 207.32 266.017 207.623C263.613 207.922 263.339 208.769 263.533 209.918C263.684 210.818 263.918 213.031 264.011 213.941C261.108 213.787 257.979 213.572 255.089 213.607C246.348 213.715 243.888 213.275 239.57 214.588C235.253 215.899 227.44 213.88 223.126 213.275C221.17 213.002 216.714 212.351 212.299 211.717C217.399 215.114 229.781 223.335 230.994 223.985C232.522 224.802 259.189 224.585 263.504 224.802C265.858 224.922 268.015 226.533 268.835 228.204C269.366 229.277 269.344 230.372 268.471 231.113L266.264 228.34C266.264 228.34 261.734 230.739 260.813 231.269C260.001 231.742 260.126 233.148 260.609 234.26C258.701 234.974 256.984 235.542 255.309 235.836C251.867 236.436 240.887 237.476 238.535 237.967C236.184 238.458 233.454 240.809 228.536 239.881C226.544 239.504 221.093 236.89 215.005 233.79C213.273 234.783 209.494 236.938 207.554 237.967C204.985 239.334 203.345 239.058 196.568 236.985C194.296 236.288 191.725 235.457 189.307 234.658H189.305C187.028 235.162 181.426 236.224 176.681 235.672C170.559 234.963 170.012 232.612 166.082 229.608C162.147 226.604 139.089 204.308 137.834 203.817C136.576 203.326 108.055 192.449 108.055 192.449L136.467 131.908C136.467 131.908 143.136 135.623 146.849 137.372C150.564 139.121 154.499 139.885 162.585 138.572C170.671 137.261 177.448 136.276 181.492 136.499C185.534 136.717 205.097 137.481 211.216 138.354C217.335 139.23 218.214 140.53 225.424 143.162C226.445 143.534 227.356 143.685 228.266 143.701V146.96C228.266 147.889 229.003 148.462 230.779 148.462H238.291C238.291 148.462 238.899 146.798 239.151 144.391C241.192 147.448 240.645 154.159 232.092 157.89C229.63 158.965 226.504 159.79 222.584 160.212C219.36 160.555 213.933 160.146 208.809 160.3H208.796C204.189 160.44 199.834 161.038 197.558 163.054C192.749 167.316 186.63 172.562 197.34 177.591C208.05 182.614 225.697 191.74 233.348 197.096C233.348 197.096 257.923 199.709 261.978 200.758C268.532 202.451 275.355 204.919 274.992 211.523L274.989 211.531Z" stroke="#320032" stroke-width="0.39805" stroke-linecap="round" stroke-linejoin="round"/>
<path d="M515.8 163.887V273.242C515.8 273.242 496.422 256.033 469.456 245.87C442.492 235.706 435.582 232.726 431.652 220.53L412.139 213.537C409.73 212.675 408.039 210.491 407.814 207.941C407.453 203.87 407.15 199.385 407.18 194.665C407.267 179.839 410.603 162.675 425.535 148.616C425.952 148.223 426.379 147.83 426.814 147.443C428.414 146.015 430.651 145.537 432.705 146.153L450.349 151.423C461.487 142.748 498.726 158.198 515.8 163.887Z" fill="#26345B"/>
<path d="M300.211 224.33L299.779 224.834H299.776L296.563 228.571C297.12 227.851 297.454 226.949 297.46 225.997C297.462 225.564 297.396 225.121 297.255 224.678L281.442 175.391C279.712 170.004 274.925 166.178 269.291 165.676L208.809 160.305C213.933 160.151 219.36 160.562 222.584 160.217C226.503 159.798 229.629 158.973 232.092 157.896L272.884 161.518C278.518 162.019 283.305 165.846 285.035 171.233L300.848 220.519C301.291 221.907 300.989 223.292 300.217 224.33H300.211Z" stroke="#320032" stroke-width="0.39805" stroke-linecap="round" stroke-linejoin="round"/>
<path d="M300.212 224.329C300.079 224.51 299.936 224.677 299.779 224.833L300.212 224.329Z" stroke="#320032" stroke-width="0.39805" stroke-linecap="round" stroke-linejoin="round"/>
<path d="M296.561 228.57L296.33 228.836" stroke="#320032" stroke-width="0.39805" stroke-linecap="round" stroke-linejoin="round"/>
<path d="M271.874 182.33C272.853 181.052 272.084 178.821 270.159 177.347C268.233 175.872 265.879 175.713 264.9 176.99C263.922 178.268 264.69 180.499 266.616 181.974C268.542 183.448 270.896 183.608 271.874 182.33Z" stroke="#320032" stroke-width="0.39805" stroke-linecap="round" stroke-linejoin="round"/>
<path d="M296.575 92.0954C295.36 93.3214 293.919 93.5868 293.353 92.6819C292.785 91.7743 293.314 90.0415 294.529 88.8102C295.747 87.5815 297.191 87.3188 297.753 88.229C298.318 89.1366 297.79 90.8668 296.575 92.0954Z" fill="#F0E4F0"/>
<path d="M273.841 183.826C272.31 185.827 268.624 185.575 265.614 183.272C262.6 180.963 261.395 177.471 262.926 175.47C264.457 173.469 268.143 173.721 271.158 176.025C274.173 178.333 275.372 181.826 273.841 183.826Z" stroke="#320032" stroke-width="0.39805" stroke-linecap="round" stroke-linejoin="round"/>
<path d="M273.423 213.439C271.483 214.238 267.959 214.142 264.01 213.938C263.918 213.03 263.684 210.815 263.533 209.915C263.339 208.766 263.612 207.919 266.017 207.62C268.421 207.317 271.727 206.797 271.727 206.797C271.727 206.797 274.498 209.466 273.423 213.439Z" stroke="#320032" stroke-width="0.39805" stroke-linecap="round" stroke-linejoin="round"/>
<path d="M268.471 231.115C268.208 231.346 267.869 231.54 267.436 231.691C264.828 232.609 262.609 233.517 260.606 234.265C260.125 233.151 259.998 231.744 260.81 231.274C261.731 230.741 266.261 228.345 266.261 228.345L268.468 231.118L268.471 231.115Z" stroke="#320032" stroke-width="0.39805" stroke-linecap="round" stroke-linejoin="round"/>
<path d="M307.29 93.3369C306.823 92.5568 306.202 91.9411 305.475 91.5324L304.592 91.1795C303.716 90.9539 302.774 90.9991 301.842 91.3095C302.304 89.9376 302.416 88.486 302.161 87.1672C302.079 86.6524 301.922 86.172 301.702 85.7475L301.715 85.7554C301.593 85.4768 301.452 85.2088 301.298 84.9593C299.252 81.6422 295.643 81.767 292.133 85.3149L283.893 93.6501C283.269 94.279 283.113 95.3351 283.537 96.0065L294.593 113.465C295.009 114.12 295.842 114.15 296.455 113.529L304.838 105.05C308.453 101.393 309.419 96.792 307.29 93.3369Z" stroke="#320032" stroke-width="0.39805" stroke-linecap="round" stroke-linejoin="round"/>
<path d="M296.575 92.0954C295.36 93.3214 293.919 93.5868 293.353 92.6819C292.785 91.7743 293.314 90.0415 294.529 88.8102C295.747 87.5815 297.191 87.3188 297.753 88.229C298.318 89.1366 297.79 90.8668 296.575 92.0954Z" stroke="#320032" stroke-width="0.39805" stroke-linecap="round" stroke-linejoin="round"/>
<path d="M349.309 119.98L286.51 23.0154C284.637 20.1203 280.569 19.701 278.143 22.1556L241.403 59.3149C238.758 61.9925 238.333 66.1508 240.379 69.3086L285.892 139.562C286.075 139.493 286.266 139.424 286.462 139.36C291.213 137.779 295.312 134.387 297.934 139.087C300.232 143.203 300.516 148.367 292.914 150.394L298.056 158.334C303.515 157.49 306.625 156.691 307.782 160.343C309.029 164.262 308.538 167.255 304.497 168.272L311.062 178.406C312.853 181.169 316.738 181.575 319.06 179.237L356.777 141.257C352.632 132.654 350.493 125.747 349.309 119.98ZM258.745 50.5154C258.132 50.5154 257.638 49.8201 257.638 48.9603C257.638 48.1005 258.132 47.4053 258.745 47.4053C259.358 47.4053 259.849 48.1005 259.849 48.9603C259.849 49.8201 259.355 50.5154 258.745 50.5154ZM267.624 41.5088L262.317 46.8772C261.876 47.3257 261.128 47.2248 260.82 46.6755C260.709 46.4765 260.653 46.2562 260.653 46.0386C260.653 45.7069 260.78 45.3779 261.027 45.1284L266.255 39.8423C266.685 39.4071 267.406 39.4682 267.757 39.9724C267.903 40.182 267.972 40.4208 267.972 40.6597C267.972 40.9701 267.855 41.2753 267.624 41.5088ZM304.839 105.051L296.456 113.529C295.843 114.15 295.01 114.121 294.593 113.466L283.538 96.0072C283.114 95.3358 283.27 94.2796 283.894 93.6507L292.133 85.3155C295.644 81.7676 299.253 81.6429 301.299 84.96C301.453 85.2094 301.594 85.4774 301.716 85.7561L301.702 85.7481C301.923 86.1727 302.079 86.653 302.162 87.1678C302.416 88.4867 302.305 89.9382 301.843 91.3102C302.775 90.9997 303.717 90.9546 304.592 91.1801L305.476 91.5331C306.203 91.9418 306.824 92.5574 307.291 93.3376C309.419 96.7926 308.453 101.394 304.839 105.051Z" stroke="#320032" stroke-width="0.39805" stroke-linecap="round" stroke-linejoin="round"/>
<path d="M515.8 163.887V273.242C515.8 273.242 496.422 256.033 469.456 245.87C442.492 235.706 435.582 232.726 431.652 220.53L412.139 213.537C409.73 212.675 408.039 210.491 407.814 207.941C407.453 203.87 407.15 199.385 407.18 194.665C407.267 179.839 410.603 162.675 425.535 148.616C425.952 148.223 426.379 147.83 426.814 147.443C428.414 146.015 430.651 145.537 432.705 146.153L450.349 151.423C461.487 142.748 498.726 158.198 515.8 163.887Z" stroke="#320032" stroke-width="0.39805" stroke-linecap="round" stroke-linejoin="round"/>
<path d="M87.4684 190.321L131.572 98.2676C131.572 98.2676 26.4845 26.4859 0.197266 1.01074V165.477L87.4684 190.321Z" fill="#B601B6"/>
<path d="M271.874 182.33C272.853 181.052 272.084 178.821 270.159 177.347C268.233 175.872 265.879 175.713 264.9 176.99C263.922 178.268 264.69 180.499 266.616 181.974C268.542 183.448 270.896 183.608 271.874 182.33Z" fill="#320032"/>
<path d="M143.33 117.288L108.052 192.455L89.9355 185.176L126.816 108.196L143.33 117.288Z" stroke="#320032" stroke-width="0.39805" stroke-linecap="round" stroke-linejoin="round"/>
<path d="M87.4684 190.321L131.572 98.2676C131.572 98.2676 26.4845 26.4859 0.197266 1.01074V165.477L87.4684 190.321Z" stroke="#320032" stroke-width="0.39805" stroke-linecap="round" stroke-linejoin="round"/>
<path d="M336.142 73.0204C331.819 72.3199 329.887 73.7077 329.887 73.7077L325.416 69.3717C325.416 69.3717 325.997 67.4079 330.206 66.7764C333.687 67.5804 334.89 70.7064 335.978 72.7259C336.033 72.8294 336.089 72.9276 336.142 73.0204Z" fill="#FFCFD4"/>
<path d="M349.309 119.98L286.51 23.0154C284.637 20.1203 280.569 19.701 278.143 22.1556L241.403 59.3149C238.758 61.9925 238.333 66.1508 240.379 69.3086L285.892 139.562C286.075 139.493 286.266 139.424 286.462 139.36C291.213 137.779 295.312 134.387 297.934 139.087C300.232 143.203 300.516 148.367 292.914 150.394L298.056 158.334C303.515 157.49 306.625 156.691 307.782 160.343C309.029 164.262 308.538 167.255 304.497 168.272L311.062 178.406C312.853 181.169 316.738 181.575 319.06 179.237L356.777 141.257C352.632 132.654 350.493 125.747 349.309 119.98Z" stroke="#320032" stroke-width="0.39805" stroke-linecap="round" stroke-linejoin="round"/>
<path d="M258.745 50.5144C258.132 50.5144 257.639 49.8191 257.639 48.9593C257.639 48.0996 258.132 47.4043 258.745 47.4043C259.358 47.4043 259.849 48.0996 259.849 48.9593C259.849 49.8191 259.356 50.5144 258.745 50.5144Z" stroke="#320032" stroke-width="0.39805" stroke-linecap="round" stroke-linejoin="round"/>
<path d="M267.624 41.5082L262.316 46.8765C261.876 47.325 261.127 47.2242 260.82 46.6749C260.708 46.4758 260.652 46.2556 260.652 46.038C260.652 45.7063 260.78 45.3772 261.027 45.1278L266.254 39.8417C266.684 39.4065 267.406 39.4675 267.756 39.9717C267.902 40.1813 267.971 40.4202 267.971 40.659C267.971 40.9695 267.854 41.2747 267.624 41.5082Z" stroke="#320032" stroke-width="0.39805" stroke-linecap="round" stroke-linejoin="round"/>
<path d="M304.838 105.05L296.455 113.529C295.842 114.15 295.009 114.12 294.593 113.465L283.537 96.0065C283.113 95.3351 283.269 94.279 283.893 93.6501L292.133 85.3149C295.643 81.767 299.252 81.6422 301.298 84.9593C301.452 85.2088 301.593 85.4768 301.715 85.7554L301.702 85.7475C301.922 86.172 302.079 86.6524 302.161 87.1672C302.416 88.486 302.304 89.9376 301.842 91.3095C302.774 90.9991 303.716 90.9539 304.592 91.1795L305.475 91.5324C306.202 91.9411 306.823 92.5568 307.29 93.3369C309.419 96.792 308.453 101.393 304.838 105.05Z" stroke="#320032" stroke-width="0.39805" stroke-linecap="round" stroke-linejoin="round"/>
<path d="M258.745 50.5144C258.132 50.5144 257.639 49.8191 257.639 48.9593C257.639 48.0996 258.132 47.4043 258.745 47.4043C259.358 47.4043 259.849 48.0996 259.849 48.9593C259.849 49.8191 259.356 50.5144 258.745 50.5144Z" fill="#320032"/>
<path d="M267.624 41.5082L262.316 46.8765C261.876 47.325 261.127 47.2242 260.82 46.6749C260.708 46.4758 260.652 46.2556 260.652 46.038C260.652 45.7063 260.78 45.3772 261.027 45.1278L266.254 39.8417C266.684 39.4065 267.406 39.4675 267.756 39.9717C267.902 40.1813 267.971 40.4202 267.971 40.659C267.971 40.9695 267.854 41.2747 267.624 41.5082Z" fill="#320032"/>
<path d="M336.142 73.0204C331.819 72.3199 329.887 73.7077 329.887 73.7077L325.416 69.3717C325.416 69.3717 325.997 67.4079 330.206 66.7764C333.687 67.5804 334.89 70.7064 335.978 72.7259C336.033 72.8294 336.089 72.9276 336.142 73.0204Z" stroke="#320032" stroke-width="0.39805" stroke-linecap="round" stroke-linejoin="round"/>
<path d="M336.146 73.0203H336.143" stroke="#320032" stroke-width="0.39805" stroke-linecap="round" stroke-linejoin="round"/>
<path d="M286.885 141.439C286.885 141.439 287.423 145.505 289.167 147.763C289.167 147.763 295.143 146.407 296.722 144.963C297.884 143.899 296.212 140.484 295.252 138.757C294.925 138.17 294.249 137.947 293.678 138.236C292.362 138.903 289.833 140.147 286.885 141.442V141.439Z" fill="#FFCFD4"/>
<path d="M286.885 141.439C286.885 141.439 287.423 145.505 289.167 147.763C289.167 147.763 295.143 146.407 296.722 144.963C297.884 143.899 296.212 140.484 295.252 138.757C294.925 138.17 294.249 137.947 293.678 138.236C292.362 138.903 289.833 140.147 286.885 141.442V141.439Z" stroke="#320032" stroke-width="0.39805" stroke-linecap="round" stroke-linejoin="round"/>
<path d="M297.587 159.845C297.587 159.845 297.008 163.096 297.773 165.242C297.773 165.242 302.6 165.622 304.139 164.887C305.272 164.345 304.842 161.326 304.534 159.771C304.431 159.242 303.977 158.911 303.475 158.996C302.321 159.195 300.118 159.55 297.584 159.842L297.587 159.845Z" fill="#FFCFD4"/>
<path d="M297.587 159.845C297.587 159.845 297.008 163.096 297.773 165.242C297.773 165.242 302.6 165.622 304.139 164.887C305.272 164.345 304.842 161.326 304.534 159.771C304.431 159.242 303.977 158.911 303.475 158.996C302.321 159.195 300.118 159.55 297.584 159.842L297.587 159.845Z" stroke="#320032" stroke-width="0.437855" stroke-linecap="round" stroke-linejoin="round"/>
<g style="mix-blend-mode:color-dodge">
<mask id="mask0_726_1602" style="mask-type:luminance" maskUnits="userSpaceOnUse" x="0" y="1" width="132" height="190">
<path d="M87.4684 190.321L131.572 98.2676C131.572 98.2676 26.4845 26.4859 0.197266 1.01074V165.477L87.4684 190.321Z" fill="white"/>
</mask>
<g mask="url(#mask0_726_1602)">
<path d="M-115.834 -7.41481C-100.132 -4.48782 -87.0231 11.742 -58.0133 11.742C-26.1268 11.742 -15.0371 -7.86328 11.3031 -7.86328C37.6434 -7.86328 52.695 11.742 78.8363 11.742C104.978 11.742 122.208 -7.86328 150.331 -7.86328C171.603 -7.86328 185.644 10.4948 216.853 11.6836" stroke="#320032" stroke-width="1.32683" stroke-linecap="round" stroke-linejoin="round"/>
<path d="M-115.834 -4.18239C-100.132 -1.2554 -87.0231 14.9744 -58.0133 14.9744C-26.1268 14.9744 -15.0371 -4.63086 11.3031 -4.63086C37.6434 -4.63086 52.695 14.9744 78.8363 14.9744C104.978 14.9744 122.208 -4.63086 150.331 -4.63086C171.603 -4.63086 185.644 13.7272 216.853 14.916" stroke="#320032" stroke-width="1.32683" stroke-linecap="round" stroke-linejoin="round"/>
<path d="M-115.834 -0.950945C-100.132 1.97605 -87.0231 18.2059 -58.0133 18.2059C-26.1268 18.2059 -15.0371 -1.39941 11.3031 -1.39941C37.6434 -1.39941 52.695 18.2059 78.8363 18.2059C104.978 18.2059 122.208 -1.39941 150.331 -1.39941C171.603 -1.39941 185.644 16.9586 216.853 18.1475" stroke="#320032" stroke-width="1.32683" stroke-linecap="round" stroke-linejoin="round"/>
<path d="M-115.834 2.28148C-100.132 5.20847 -87.0231 21.4383 -58.0133 21.4383C-26.1268 21.4383 -15.0371 1.83301 11.3031 1.83301C37.6434 1.83301 52.695 21.4383 78.8363 21.4383C104.978 21.4383 122.208 1.83301 150.331 1.83301C171.603 1.83301 185.644 20.1911 216.853 21.3799" stroke="#320032" stroke-width="1.32683" stroke-linecap="round" stroke-linejoin="round"/>
<path d="M-115.834 5.51292C-100.132 8.43992 -87.0231 24.6697 -58.0133 24.6697C-26.1268 24.6697 -15.0371 5.06445 11.3031 5.06445C37.6434 5.06445 52.695 24.6697 78.8363 24.6697C104.978 24.6697 122.208 5.06445 150.331 5.06445C171.603 5.06445 185.644 23.4225 216.853 24.6114" stroke="#320032" stroke-width="1.32683" stroke-linecap="round" stroke-linejoin="round"/>
<path d="M-115.834 8.74339C-100.132 11.6704 -87.0231 27.9002 -58.0133 27.9002C-26.1268 27.9002 -15.0371 8.29492 11.3031 8.29492C37.6434 8.29492 52.695 27.9002 78.8363 27.9002C104.978 27.9002 122.208 8.29492 150.331 8.29492C171.603 8.29492 185.644 26.653 216.853 27.8418" stroke="#320032" stroke-width="1.32683" stroke-linecap="round" stroke-linejoin="round"/>
<path d="M-115.834 11.9758C-100.132 14.9028 -87.0231 31.1326 -58.0133 31.1326C-26.1268 31.1326 -15.0371 11.5273 11.3031 11.5273C37.6434 11.5273 52.695 31.1326 78.8363 31.1326C104.978 31.1326 122.208 11.5273 150.331 11.5273C171.603 11.5273 185.644 29.8854 216.853 31.0742" stroke="#320032" stroke-width="1.32683" stroke-linecap="round" stroke-linejoin="round"/>
<path d="M-115.834 15.2082C-100.132 18.1352 -87.0231 34.3651 -58.0133 34.3651C-26.1268 34.3651 -15.0371 14.7598 11.3031 14.7598C37.6434 14.7598 52.695 34.3651 78.8363 34.3651C104.978 34.3651 122.208 14.7598 150.331 14.7598C171.603 14.7598 185.644 33.1178 216.853 34.3067" stroke="#320032" stroke-width="1.32683" stroke-linecap="round" stroke-linejoin="round"/>
<path d="M-115.834 18.4387C-100.132 21.3657 -87.0231 37.5955 -58.0133 37.5955C-26.1268 37.5955 -15.0371 17.9902 11.3031 17.9902C37.6434 17.9902 52.695 37.5955 78.8363 37.5955C104.978 37.5955 122.208 17.9902 150.331 17.9902C171.603 17.9902 185.644 36.3483 216.853 37.5371" stroke="#320032" stroke-width="1.32683" stroke-linecap="round" stroke-linejoin="round"/>
<path d="M-115.834 21.6711C-100.132 24.5981 -87.0231 40.8279 -58.0133 40.8279C-26.1268 40.8279 -15.0371 21.2227 11.3031 21.2227C37.6434 21.2227 52.695 40.8279 78.8363 40.8279C104.978 40.8279 122.208 21.2227 150.331 21.2227C171.603 21.2227 185.644 39.5807 216.853 40.7696" stroke="#320032" stroke-width="1.32683" stroke-linecap="round" stroke-linejoin="round"/>
<path d="M-115.834 24.9035C-100.132 27.8305 -87.0231 44.0604 -58.0133 44.0604C-26.1268 44.0604 -15.0371 24.4551 11.3031 24.4551C37.6434 24.4551 52.695 44.0604 78.8363 44.0604C104.978 44.0604 122.208 24.4551 150.331 24.4551C171.603 24.4551 185.644 42.8131 216.853 44.002" stroke="#320032" stroke-width="1.32683" stroke-linecap="round" stroke-linejoin="round"/>
<path d="M-115.834 28.136C-100.132 31.063 -87.0231 47.2928 -58.0133 47.2928C-26.1268 47.2928 -15.0371 27.6875 11.3031 27.6875C37.6434 27.6875 52.695 47.2928 78.8363 47.2928C104.978 47.2928 122.208 27.6875 150.331 27.6875C171.603 27.6875 185.644 46.0456 216.853 47.2344" stroke="#320032" stroke-width="1.32683" stroke-linecap="round" stroke-linejoin="round"/>
<path d="M-115.834 31.3655C-100.132 34.2925 -87.0231 50.5223 -58.0133 50.5223C-26.1268 50.5223 -15.0371 30.917 11.3031 30.917C37.6434 30.917 52.695 50.5223 78.8363 50.5223C104.978 50.5223 122.208 30.917 150.331 30.917C171.603 30.917 185.644 49.2751 216.853 50.4639" stroke="#320032" stroke-width="1.32683" stroke-linecap="round" stroke-linejoin="round"/>
<path d="M-115.834 34.5979C-100.132 37.5249 -87.0231 53.7547 -58.0133 53.7547C-26.1268 53.7547 -15.0371 34.1494 11.3031 34.1494C37.6434 34.1494 52.695 53.7547 78.8363 53.7547C104.978 53.7547 122.208 34.1494 150.331 34.1494C171.603 34.1494 185.644 52.5075 216.853 53.6963" stroke="#320032" stroke-width="1.32683" stroke-linecap="round" stroke-linejoin="round"/>
<path d="M-115.834 37.8293C-100.132 40.7563 -87.0231 56.9861 -58.0133 56.9861C-26.1268 56.9861 -15.0371 37.3809 11.3031 37.3809C37.6434 37.3809 52.695 56.9861 78.8363 56.9861C104.978 56.9861 122.208 37.3809 150.331 37.3809C171.603 37.3809 185.644 55.7389 216.853 56.9278" stroke="#320032" stroke-width="1.32683" stroke-linecap="round" stroke-linejoin="round"/>
<path d="M-115.834 41.0618C-100.132 43.9887 -87.0231 60.2186 -58.0133 60.2186C-26.1268 60.2186 -15.0371 40.6133 11.3031 40.6133C37.6434 40.6133 52.695 60.2186 78.8363 60.2186C104.978 60.2186 122.208 40.6133 150.331 40.6133C171.603 40.6133 185.644 58.9713 216.853 60.1602" stroke="#320032" stroke-width="1.32683" stroke-linecap="round" stroke-linejoin="round"/>
<path d="M-115.834 44.2942C-100.132 47.2212 -87.0231 63.451 -58.0133 63.451C-26.1268 63.451 -15.0371 43.8457 11.3031 43.8457C37.6434 43.8457 52.695 63.451 78.8363 63.451C104.978 63.451 122.208 43.8457 150.331 43.8457C171.603 43.8457 185.644 62.2038 216.853 63.3926" stroke="#320032" stroke-width="1.32683" stroke-linecap="round" stroke-linejoin="round"/>
<path d="M-115.834 47.5266C-100.132 50.4536 -87.0231 66.6834 -58.0133 66.6834C-26.1268 66.6834 -15.0371 47.0781 11.3031 47.0781C37.6434 47.0781 52.695 66.6834 78.8363 66.6834C104.978 66.6834 122.208 47.0781 150.331 47.0781C171.603 47.0781 185.644 65.4362 216.853 66.625" stroke="#320032" stroke-width="1.32683" stroke-linecap="round" stroke-linejoin="round"/>
<path d="M-115.834 50.759C-100.132 53.686 -87.0231 69.9158 -58.0133 69.9158C-26.1268 69.9158 -15.0371 50.3105 11.3031 50.3105C37.6434 50.3105 52.695 69.9158 78.8363 69.9158C104.978 69.9158 122.208 50.3105 150.331 50.3105C171.603 50.3105 185.644 68.6686 216.853 69.8574" stroke="#320032" stroke-width="1.32683" stroke-linecap="round" stroke-linejoin="round"/>
<path d="M-115.834 53.9875C-100.132 56.9145 -87.0231 73.1443 -58.0133 73.1443C-26.1268 73.1443 -15.0371 53.5391 11.3031 53.5391C37.6434 53.5391 52.695 73.1443 78.8363 73.1443C104.978 73.1443 122.208 53.5391 150.331 53.5391C171.603 53.5391 185.644 71.8971 216.853 73.086" stroke="#320032" stroke-width="1.32683" stroke-linecap="round" stroke-linejoin="round"/>
<path d="M-115.834 57.22C-100.132 60.1469 -87.0231 76.3768 -58.0133 76.3768C-26.1268 76.3768 -15.0371 56.7715 11.3031 56.7715C37.6434 56.7715 52.695 76.3768 78.8363 76.3768C104.978 76.3768 122.208 56.7715 150.331 56.7715C171.603 56.7715 185.644 75.1295 216.853 76.3184" stroke="#320032" stroke-width="1.32683" stroke-linecap="round" stroke-linejoin="round"/>
<path d="M-115.834 60.4524C-100.132 63.3794 -87.0231 79.6092 -58.0133 79.6092C-26.1268 79.6092 -15.0371 60.0039 11.3031 60.0039C37.6434 60.0039 52.695 79.6092 78.8363 79.6092C104.978 79.6092 122.208 60.0039 150.331 60.0039C171.603 60.0039 185.644 78.362 216.853 79.5508" stroke="#320032" stroke-width="1.32683" stroke-linecap="round" stroke-linejoin="round"/>
<path d="M-115.834 63.6848C-100.132 66.6118 -87.0231 82.8416 -58.0133 82.8416C-26.1268 82.8416 -15.0371 63.2363 11.3031 63.2363C37.6434 63.2363 52.695 82.8416 78.8363 82.8416C104.978 82.8416 122.208 63.2363 150.331 63.2363C171.603 63.2363 185.644 81.5944 216.853 82.7832" stroke="#320032" stroke-width="1.32683" stroke-linecap="round" stroke-linejoin="round"/>
<path d="M-115.834 66.9172C-100.132 69.8442 -87.0231 86.074 -58.0133 86.074C-26.1268 86.074 -15.0371 66.4688 11.3031 66.4688C37.6434 66.4688 52.695 86.074 78.8363 86.074C104.978 86.074 122.208 66.4688 150.331 66.4688C171.603 66.4688 185.644 84.8268 216.853 86.0157" stroke="#320032" stroke-width="1.32683" stroke-linecap="round" stroke-linejoin="round"/>
<path d="M-115.834 70.1487C-100.132 73.0757 -87.0231 89.3055 -58.0133 89.3055C-26.1268 89.3055 -15.0371 69.7002 11.3031 69.7002C37.6434 69.7002 52.695 89.3055 78.8363 89.3055C104.978 89.3055 122.208 69.7002 150.331 69.7002C171.603 69.7002 185.644 88.0583 216.853 89.2471" stroke="#320032" stroke-width="1.32683" stroke-linecap="round" stroke-linejoin="round"/>
<path d="M-115.834 73.3801C-100.132 76.3071 -87.0231 92.5369 -58.0133 92.5369C-26.1268 92.5369 -15.0371 72.9316 11.3031 72.9316C37.6434 72.9316 52.695 92.5369 78.8363 92.5369C104.978 92.5369 122.208 72.9316 150.331 72.9316C171.603 72.9316 185.644 91.2897 216.853 92.4785" stroke="#320032" stroke-width="1.32683" stroke-linecap="round" stroke-linejoin="round"/>
<path d="M-115.834 76.6106C-100.132 79.5376 -87.0231 95.7674 -58.0133 95.7674C-26.1268 95.7674 -15.0371 76.1621 11.3031 76.1621C37.6434 76.1621 52.695 95.7674 78.8363 95.7674C104.978 95.7674 122.208 76.1621 150.331 76.1621C171.603 76.1621 185.644 94.5202 216.853 95.709" stroke="#320032" stroke-width="1.32683" stroke-linecap="round" stroke-linejoin="round"/>
<path d="M-115.834 79.843C-100.132 82.77 -87.0231 98.9998 -58.0133 98.9998C-26.1268 98.9998 -15.0371 79.3945 11.3031 79.3945C37.6434 79.3945 52.695 98.9998 78.8363 98.9998C104.978 98.9998 122.208 79.3945 150.331 79.3945C171.603 79.3945 185.644 97.7526 216.853 98.9414" stroke="#320032" stroke-width="1.32683" stroke-linecap="round" stroke-linejoin="round"/>
<path d="M-115.834 83.0744C-100.132 86.0014 -87.0231 102.231 -58.0133 102.231C-26.1268 102.231 -15.0371 82.626 11.3031 82.626C37.6434 82.626 52.695 102.231 78.8363 102.231C104.978 102.231 122.208 82.626 150.331 82.626C171.603 82.626 185.644 100.984 216.853 102.173" stroke="#320032" stroke-width="1.32683" stroke-linecap="round" stroke-linejoin="round"/>
<path d="M-115.834 86.3069C-100.132 89.2339 -87.0231 105.464 -58.0133 105.464C-26.1268 105.464 -15.0371 85.8584 11.3031 85.8584C37.6434 85.8584 52.695 105.464 78.8363 105.464C104.978 105.464 122.208 85.8584 150.331 85.8584C171.603 85.8584 185.644 104.216 216.853 105.405" stroke="#320032" stroke-width="1.32683" stroke-linecap="round" stroke-linejoin="round"/>
<path d="M-115.834 89.5393C-100.132 92.4663 -87.0231 108.696 -58.0133 108.696C-26.1268 108.696 -15.0371 89.0908 11.3031 89.0908C37.6434 89.0908 52.695 108.696 78.8363 108.696C104.978 108.696 122.208 89.0908 150.331 89.0908C171.603 89.0908 185.644 107.449 216.853 108.638" stroke="#320032" stroke-width="1.32683" stroke-linecap="round" stroke-linejoin="round"/>
<path d="M-115.834 92.7707C-100.132 95.6977 -87.0231 111.928 -58.0133 111.928C-26.1268 111.928 -15.0371 92.3223 11.3031 92.3223C37.6434 92.3223 52.695 111.928 78.8363 111.928C104.978 111.928 122.208 92.3223 150.331 92.3223C171.603 92.3223 185.644 110.68 216.853 111.869" stroke="#320032" stroke-width="1.32683" stroke-linecap="round" stroke-linejoin="round"/>
<path d="M-115.834 96.0002C-100.132 98.9272 -87.0231 115.157 -58.0133 115.157C-26.1268 115.157 -15.0371 95.5518 11.3031 95.5518C37.6434 95.5518 52.695 115.157 78.8363 115.157C104.978 115.157 122.208 95.5518 150.331 95.5518C171.603 95.5518 185.644 113.91 216.853 115.099" stroke="#320032" stroke-width="1.32683" stroke-linecap="round" stroke-linejoin="round"/>
<path d="M-115.834 99.2326C-100.132 102.16 -87.0231 118.389 -58.0133 118.389C-26.1268 118.389 -15.0371 98.7842 11.3031 98.7842C37.6434 98.7842 52.695 118.389 78.8363 118.389C104.978 118.389 122.208 98.7842 150.331 98.7842C171.603 98.7842 185.644 117.142 216.853 118.331" stroke="#320032" stroke-width="1.32683" stroke-linecap="round" stroke-linejoin="round"/>
<path d="M-115.834 102.465C-100.132 105.392 -87.0231 121.622 -58.0133 121.622C-26.1268 121.622 -15.0371 102.017 11.3031 102.017C37.6434 102.017 52.695 121.622 78.8363 121.622C104.978 121.622 122.208 102.017 150.331 102.017C171.603 102.017 185.644 120.375 216.853 121.564" stroke="#320032" stroke-width="1.32683" stroke-linecap="round" stroke-linejoin="round"/>
<path d="M-115.834 105.697C-100.132 108.624 -87.0231 124.854 -58.0133 124.854C-26.1268 124.854 -15.0371 105.249 11.3031 105.249C37.6434 105.249 52.695 124.854 78.8363 124.854C104.978 124.854 122.208 105.249 150.331 105.249C171.603 105.249 185.644 123.607 216.853 124.796" stroke="#320032" stroke-width="1.32683" stroke-linecap="round" stroke-linejoin="round"/>
<path d="M-115.834 108.93C-100.132 111.857 -87.0231 128.087 -58.0133 128.087C-26.1268 128.087 -15.0371 108.481 11.3031 108.481C37.6434 108.481 52.695 128.087 78.8363 128.087C104.978 128.087 122.208 108.481 150.331 108.481C171.603 108.481 185.644 126.839 216.853 128.028" stroke="#320032" stroke-width="1.32683" stroke-linecap="round" stroke-linejoin="round"/>
<path d="M-115.834 112.161C-100.132 115.088 -87.0231 131.318 -58.0133 131.318C-26.1268 131.318 -15.0371 111.713 11.3031 111.713C37.6434 111.713 52.695 131.318 78.8363 131.318C104.978 131.318 122.208 111.713 150.331 111.713C171.603 111.713 185.644 130.071 216.853 131.26" stroke="#320032" stroke-width="1.32683" stroke-linecap="round" stroke-linejoin="round"/>
<path d="M-115.834 115.394C-100.132 118.321 -87.0231 134.551 -58.0133 134.551C-26.1268 134.551 -15.0371 114.945 11.3031 114.945C37.6434 114.945 52.695 134.551 78.8363 134.551C104.978 134.551 122.208 114.945 150.331 114.945C171.603 114.945 185.644 133.303 216.853 134.492" stroke="#320032" stroke-width="1.32683" stroke-linecap="round" stroke-linejoin="round"/>
<path d="M-115.834 118.623C-100.132 121.55 -87.0231 137.78 -58.0133 137.78C-26.1268 137.78 -15.0371 118.175 11.3031 118.175C37.6434 118.175 52.695 137.78 78.8363 137.78C104.978 137.78 122.208 118.175 150.331 118.175C171.603 118.175 185.644 136.533 216.853 137.722" stroke="#320032" stroke-width="1.32683" stroke-linecap="round" stroke-linejoin="round"/>
<path d="M-115.834 121.856C-100.132 124.783 -87.0231 141.012 -58.0133 141.012C-26.1268 141.012 -15.0371 121.407 11.3031 121.407C37.6434 121.407 52.695 141.012 78.8363 141.012C104.978 141.012 122.208 121.407 150.331 121.407C171.603 121.407 185.644 139.765 216.853 140.954" stroke="#320032" stroke-width="1.32683" stroke-linecap="round" stroke-linejoin="round"/>
<path d="M-115.834 125.088C-100.132 128.015 -87.0231 144.245 -58.0133 144.245C-26.1268 144.245 -15.0371 124.64 11.3031 124.64C37.6434 124.64 52.695 144.245 78.8363 144.245C104.978 144.245 122.208 124.64 150.331 124.64C171.603 124.64 185.644 142.998 216.853 144.187" stroke="#320032" stroke-width="1.32683" stroke-linecap="round" stroke-linejoin="round"/>
<path d="M-115.834 128.322C-100.132 131.249 -87.0231 147.478 -58.0133 147.478C-26.1268 147.478 -15.0371 127.873 11.3031 127.873C37.6434 127.873 52.695 147.478 78.8363 147.478C104.978 147.478 122.208 127.873 150.331 127.873C171.603 127.873 185.644 146.231 216.853 147.42" stroke="#320032" stroke-width="1.32683" stroke-linecap="round" stroke-linejoin="round"/>
<path d="M-115.834 131.551C-100.132 134.478 -87.0231 150.708 -58.0133 150.708C-26.1268 150.708 -15.0371 131.103 11.3031 131.103C37.6434 131.103 52.695 150.708 78.8363 150.708C104.978 150.708 122.208 131.103 150.331 131.103C171.603 131.103 185.644 149.461 216.853 150.649" stroke="#320032" stroke-width="1.32683" stroke-linecap="round" stroke-linejoin="round"/>
<path d="M-115.834 134.783C-100.132 137.71 -87.0231 153.94 -58.0133 153.94C-26.1268 153.94 -15.0371 134.335 11.3031 134.335C37.6434 134.335 52.695 153.94 78.8363 153.94C104.978 153.94 122.208 134.335 150.331 134.335C171.603 134.335 185.644 152.693 216.853 153.882" stroke="#320032" stroke-width="1.32683" stroke-linecap="round" stroke-linejoin="round"/>
<path d="M-115.834 138.016C-100.132 140.943 -87.0231 157.173 -58.0133 157.173C-26.1268 157.173 -15.0371 137.567 11.3031 137.567C37.6434 137.567 52.695 157.173 78.8363 157.173C104.978 157.173 122.208 137.567 150.331 137.567C171.603 137.567 185.644 155.925 216.853 157.114" stroke="#320032" stroke-width="1.32683" stroke-linecap="round" stroke-linejoin="round"/>
<path d="M-115.834 141.246C-100.132 144.173 -87.0231 160.403 -58.0133 160.403C-26.1268 160.403 -15.0371 140.798 11.3031 140.798C37.6434 140.798 52.695 160.403 78.8363 160.403C104.978 160.403 122.208 140.798 150.331 140.798C171.603 140.798 185.644 159.156 216.853 160.345" stroke="#320032" stroke-width="1.32683" stroke-linecap="round" stroke-linejoin="round"/>
<path d="M-115.834 144.478C-100.132 147.405 -87.0231 163.635 -58.0133 163.635C-26.1268 163.635 -15.0371 144.029 11.3031 144.029C37.6434 144.029 52.695 163.635 78.8363 163.635C104.978 163.635 122.208 144.029 150.331 144.029C171.603 144.029 185.644 162.387 216.853 163.576" stroke="#320032" stroke-width="1.32683" stroke-linecap="round" stroke-linejoin="round"/>
<path d="M-115.834 147.709C-100.132 150.636 -87.0231 166.866 -58.0133 166.866C-26.1268 166.866 -15.0371 147.261 11.3031 147.261C37.6434 147.261 52.695 166.866 78.8363 166.866C104.978 166.866 122.208 147.261 150.331 147.261C171.603 147.261 185.644 165.619 216.853 166.808" stroke="#320032" stroke-width="1.32683" stroke-linecap="round" stroke-linejoin="round"/>
<path d="M-115.834 150.942C-100.132 153.869 -87.0231 170.098 -58.0133 170.098C-26.1268 170.098 -15.0371 150.493 11.3031 150.493C37.6434 150.493 52.695 170.098 78.8363 170.098C104.978 170.098 122.208 150.493 150.331 150.493C171.603 150.493 185.644 168.851 216.853 170.04" stroke="#320032" stroke-width="1.32683" stroke-linecap="round" stroke-linejoin="round"/>
<path d="M-115.834 154.175C-100.132 157.102 -87.0231 173.332 -58.0133 173.332C-26.1268 173.332 -15.0371 153.727 11.3031 153.727C37.6434 153.727 52.695 173.332 78.8363 173.332C104.978 173.332 122.208 153.727 150.331 153.727C171.603 153.727 185.644 172.085 216.853 173.273" stroke="#320032" stroke-width="1.32683" stroke-linecap="round" stroke-linejoin="round"/>
<path d="M-115.834 157.407C-100.132 160.334 -87.0231 176.564 -58.0133 176.564C-26.1268 176.564 -15.0371 156.959 11.3031 156.959C37.6434 156.959 52.695 176.564 78.8363 176.564C104.978 176.564 122.208 156.959 150.331 156.959C171.603 156.959 185.644 175.317 216.853 176.506" stroke="#320032" stroke-width="1.32683" stroke-linecap="round" stroke-linejoin="round"/>
<path d="M-115.834 160.639C-100.132 163.566 -87.0231 179.796 -58.0133 179.796C-26.1268 179.796 -15.0371 160.19 11.3031 160.19C37.6434 160.19 52.695 179.796 78.8363 179.796C104.978 179.796 122.208 160.19 150.331 160.19C171.603 160.19 185.644 178.548 216.853 179.737" stroke="#320032" stroke-width="1.32683" stroke-linecap="round" stroke-linejoin="round"/>
<path d="M-115.834 163.868C-100.132 166.795 -87.0231 183.025 -58.0133 183.025C-26.1268 183.025 -15.0371 163.42 11.3031 163.42C37.6434 163.42 52.695 183.025 78.8363 183.025C104.978 183.025 122.208 163.42 150.331 163.42C171.603 163.42 185.644 181.778 216.853 182.967" stroke="#320032" stroke-width="1.32683" stroke-linecap="round" stroke-linejoin="round"/>
<path d="M-115.834 167.1C-100.132 170.027 -87.0231 186.257 -58.0133 186.257C-26.1268 186.257 -15.0371 166.651 11.3031 166.651C37.6434 166.651 52.695 186.257 78.8363 186.257C104.978 186.257 122.208 166.651 150.331 166.651C171.603 166.651 185.644 185.009 216.853 186.198" stroke="#320032" stroke-width="1.32683" stroke-linecap="round" stroke-linejoin="round"/>
<path d="M-115.834 170.333C-100.132 173.26 -87.0231 189.49 -58.0133 189.49C-26.1268 189.49 -15.0371 169.885 11.3031 169.885C37.6434 169.885 52.695 189.49 78.8363 189.49C104.978 189.49 122.208 169.885 150.331 169.885C171.603 169.885 185.644 188.243 216.853 189.432" stroke="#320032" stroke-width="1.32683" stroke-linecap="round" stroke-linejoin="round"/>
<path d="M-115.834 173.565C-100.132 176.492 -87.0231 192.721 -58.0133 192.721C-26.1268 192.721 -15.0371 173.116 11.3031 173.116C37.6434 173.116 52.695 192.721 78.8363 192.721C104.978 192.721 122.208 173.116 150.331 173.116C171.603 173.116 185.644 191.474 216.853 192.663" stroke="#320032" stroke-width="1.32683" stroke-linecap="round" stroke-linejoin="round"/>
<path d="M-115.834 176.797C-100.132 179.724 -87.0231 195.954 -58.0133 195.954C-26.1268 195.954 -15.0371 176.349 11.3031 176.349C37.6434 176.349 52.695 195.954 78.8363 195.954C104.978 195.954 122.208 176.349 150.331 176.349C171.603 176.349 185.644 194.707 216.853 195.896" stroke="#320032" stroke-width="1.32683" stroke-linecap="round" stroke-linejoin="round"/>
<path d="M-115.834 180.03C-100.132 182.957 -87.0231 199.186 -58.0133 199.186C-26.1268 199.186 -15.0371 179.581 11.3031 179.581C37.6434 179.581 52.695 199.186 78.8363 199.186C104.978 199.186 122.208 179.581 150.331 179.581C171.603 179.581 185.644 197.939 216.853 199.128" stroke="#320032" stroke-width="1.32683" stroke-linecap="round" stroke-linejoin="round"/>
</g>
</g>
<g style="mix-blend-mode:screen">
<mask id="mask1_726_1602" style="mask-type:luminance" maskUnits="userSpaceOnUse" x="428" y="148" width="88" height="126">
<path d="M515.801 163.887V273.241C515.801 273.241 496.424 256.032 469.457 245.869C442.493 235.705 435.583 232.725 431.653 220.529C431.292 216.458 425.534 201.659 431.47 180.761C437.276 160.32 450.351 151.422 450.351 151.422C461.488 142.747 498.727 158.197 515.801 163.887Z" fill="white"/>
</mask>
<g mask="url(#mask1_726_1602)">
<path d="M304.096 115.656C320.936 117.312 330.98 136.798 360.778 139.725C390.573 142.652 402.738 125.35 427.353 127.768C451.969 130.185 464.231 149.891 488.661 152.29C513.09 154.692 530.992 137.95 557.271 140.534C577.813 142.554 589.338 162.186 620.614 165.259" stroke="#320032" stroke-width="1.32683" stroke-linecap="round" stroke-linejoin="round"/>
<path d="M303.799 118.677C320.639 120.333 330.683 139.819 360.481 142.746C390.279 145.673 402.441 128.371 427.056 130.788C451.672 133.206 463.934 152.912 488.364 155.311C512.794 157.712 530.695 140.97 556.974 143.555C577.516 145.574 589.041 165.206 620.318 168.279" stroke="#320032" stroke-width="1.32683" stroke-linecap="round" stroke-linejoin="round"/>
<path d="M303.504 121.696C320.344 123.352 330.388 142.838 360.186 145.765C389.982 148.692 402.146 131.39 426.761 133.808C451.377 136.225 463.639 155.931 488.069 158.33C512.499 160.732 530.4 143.99 556.68 146.574C577.222 148.594 588.746 168.226 620.023 171.299" stroke="#320032" stroke-width="1.32683" stroke-linecap="round" stroke-linejoin="round"/>
<path d="M303.209 124.719C320.049 126.375 330.093 145.861 359.891 148.788C389.687 151.714 401.851 134.413 426.466 136.83C451.082 139.248 463.344 158.954 487.774 161.353C512.204 163.754 530.105 147.012 556.385 149.597C576.927 151.616 588.452 171.248 619.728 174.321" stroke="#320032" stroke-width="1.32683" stroke-linecap="round" stroke-linejoin="round"/>
<path d="M302.91 127.738C319.75 129.394 329.794 148.88 359.592 151.807C389.388 154.734 401.552 137.432 426.168 139.85C450.783 142.267 463.046 161.973 487.475 164.372C511.905 166.774 529.807 150.032 556.086 152.616C576.628 154.636 588.153 174.268 619.429 177.341" stroke="#320032" stroke-width="1.32683" stroke-linecap="round" stroke-linejoin="round"/>
<path d="M302.613 130.759C319.453 132.415 329.498 151.901 359.296 154.828C389.091 157.755 401.255 140.453 425.871 142.87C450.486 145.288 462.749 164.994 487.178 167.393C511.608 169.794 529.51 153.052 555.789 155.637C576.331 157.656 587.856 177.288 619.132 180.361" stroke="#320032" stroke-width="1.32683" stroke-linecap="round" stroke-linejoin="round"/>
<path d="M302.316 133.778C319.157 135.434 329.201 154.92 358.999 157.847C388.794 160.774 400.958 143.472 425.574 145.89C450.189 148.307 462.452 168.013 486.882 170.412C511.311 172.814 529.213 156.072 555.492 158.656C576.034 160.676 587.559 180.308 618.835 183.381" stroke="#320032" stroke-width="1.32683" stroke-linecap="round" stroke-linejoin="round"/>
<path d="M302.018 136.798C318.858 138.454 328.902 157.94 358.7 160.867C388.495 163.794 400.66 146.492 425.275 148.909C449.89 151.327 462.153 171.033 486.583 173.432C511.012 175.833 528.914 159.091 555.193 161.676C575.735 163.695 587.26 183.327 618.536 186.4" stroke="#320032" stroke-width="1.32683" stroke-linecap="round" stroke-linejoin="round"/>
<path d="M301.725 139.818C318.565 141.474 328.609 160.96 358.407 163.887C388.202 166.814 400.367 149.512 424.982 151.93C449.597 154.347 461.86 174.053 486.29 176.452C510.719 178.854 528.621 162.112 554.9 164.696C575.442 166.716 586.967 186.348 618.243 189.421" stroke="#320032" stroke-width="1.32683" stroke-linecap="round" stroke-linejoin="round"/>
<path d="M301.426 142.838C318.266 144.494 328.31 163.98 358.108 166.907C387.903 169.834 400.068 152.532 424.683 154.949C449.299 157.367 461.561 177.073 485.991 179.472C510.421 181.873 528.322 165.131 554.601 167.716C575.143 169.735 586.668 189.367 617.944 192.44" stroke="#320032" stroke-width="1.32683" stroke-linecap="round" stroke-linejoin="round"/>
<path d="M301.131 145.857C317.971 147.513 328.015 166.999 357.813 169.926C387.609 172.853 399.773 155.551 424.388 157.969C449.004 160.386 461.266 180.092 485.696 182.491C510.126 184.893 528.027 168.151 554.307 170.736C574.849 172.755 586.373 192.387 617.65 195.46" stroke="#320032" stroke-width="1.32683" stroke-linecap="round" stroke-linejoin="round"/>
<path d="M300.832 148.878C317.672 150.534 327.716 170.02 357.514 172.947C387.31 175.874 399.474 158.572 424.089 160.989C448.705 163.407 460.967 183.113 485.397 185.512C509.827 187.913 527.728 171.171 554.008 173.756C574.55 175.775 586.075 195.407 617.351 198.48" stroke="#320032" stroke-width="1.32683" stroke-linecap="round" stroke-linejoin="round"/>
<path d="M300.535 151.898C317.375 153.554 327.419 173.04 357.217 175.967C387.013 178.894 399.177 161.592 423.793 164.01C448.408 166.427 460.671 186.133 485.1 188.532C509.53 190.934 527.432 174.192 553.711 176.777C574.253 178.796 585.778 198.428 617.054 201.501" stroke="#320032" stroke-width="1.32683" stroke-linecap="round" stroke-linejoin="round"/>
<path d="M300.238 154.918C317.078 156.574 327.123 176.06 356.921 178.987C386.719 181.914 398.88 164.612 423.496 167.029C448.111 169.447 460.374 189.153 484.803 191.552C509.233 193.953 527.135 177.211 553.414 179.796C573.956 181.816 585.481 201.447 616.757 204.52" stroke="#320032" stroke-width="1.32683" stroke-linecap="round" stroke-linejoin="round"/>
<path d="M299.943 157.938C316.784 159.593 326.828 179.079 356.626 182.006C386.421 184.933 398.585 167.631 423.201 170.049C447.816 172.466 460.079 192.172 484.508 194.571C508.938 196.973 526.84 180.231 553.119 182.816C573.661 184.835 585.186 204.467 616.462 207.54" stroke="#320032" stroke-width="1.32683" stroke-linecap="round" stroke-linejoin="round"/>
<path d="M299.646 160.958C316.487 162.614 326.531 182.1 356.329 185.027C386.124 187.954 398.289 170.652 422.904 173.069C447.519 175.487 459.782 195.193 484.212 197.592C508.641 199.993 526.543 183.251 552.822 185.836C573.364 187.856 584.889 207.487 616.165 210.56" stroke="#320032" stroke-width="1.32683" stroke-linecap="round" stroke-linejoin="round"/>
<path d="M299.35 163.977C316.19 165.633 326.234 185.119 356.032 188.046C385.827 190.973 397.992 173.671 422.607 176.089C447.222 178.506 459.485 198.212 483.915 200.611C508.344 203.013 526.246 186.271 552.525 188.855C573.067 190.875 584.592 210.507 615.868 213.58" stroke="#320032" stroke-width="1.32683" stroke-linecap="round" stroke-linejoin="round"/>
<path d="M299.051 166.997C315.891 168.653 325.935 188.139 355.733 191.066C385.528 193.993 397.693 176.691 422.308 179.108C446.924 181.526 459.186 201.232 483.616 203.631C508.046 206.032 525.947 189.291 552.226 191.875C572.768 193.895 584.293 213.526 615.569 216.599" stroke="#320032" stroke-width="1.32683" stroke-linecap="round" stroke-linejoin="round"/>
<path d="M298.756 170.017C315.596 171.673 325.64 191.159 355.438 194.086C385.234 197.013 397.398 179.711 422.013 182.129C446.629 184.546 458.891 204.252 483.321 206.651C507.751 209.053 525.652 192.311 551.931 194.895C572.474 196.915 583.998 216.547 615.275 219.62" stroke="#320032" stroke-width="1.32683" stroke-linecap="round" stroke-linejoin="round"/>
<path d="M298.457 173.04C315.297 174.696 325.341 194.182 355.139 197.109C384.935 200.036 397.099 182.734 421.715 185.151C446.33 187.569 458.592 207.275 483.022 209.674C507.452 212.075 525.353 195.333 551.633 197.918C572.175 199.938 583.7 219.569 614.976 222.642" stroke="#320032" stroke-width="1.32683" stroke-linecap="round" stroke-linejoin="round"/>
<path d="M298.164 176.06C315.004 177.715 325.048 197.201 354.846 200.128C384.644 203.055 396.806 185.753 421.422 188.171C446.037 190.588 458.3 210.295 482.729 212.693C507.159 215.095 525.06 198.353 551.34 200.938C571.882 202.957 583.407 222.589 614.683 225.662" stroke="#320032" stroke-width="1.32683" stroke-linecap="round" stroke-linejoin="round"/>
<path d="M297.865 179.079C314.705 180.735 324.75 200.221 354.548 203.148C384.343 206.075 396.507 188.773 421.123 191.19C445.738 193.608 458.001 213.314 482.43 215.713C506.86 218.115 524.762 201.373 551.041 203.957C571.583 205.977 583.108 225.608 614.384 228.681" stroke="#320032" stroke-width="1.32683" stroke-linecap="round" stroke-linejoin="round"/>
<path d="M297.57 182.1C314.41 183.755 324.455 203.241 354.253 206.168C384.048 209.095 396.212 191.793 420.828 194.211C445.443 196.628 457.706 216.335 482.135 218.733C506.565 221.135 524.467 204.393 550.746 206.978C571.288 208.997 582.813 228.629 614.089 231.702" stroke="#320032" stroke-width="1.32683" stroke-linecap="round" stroke-linejoin="round"/>
<path d="M297.271 185.119C314.112 186.775 324.156 206.261 353.954 209.188C383.749 212.115 395.914 194.813 420.529 197.23C445.144 199.648 457.407 219.354 481.837 221.753C506.266 224.155 524.168 207.413 550.447 209.997C570.989 212.017 582.514 231.649 613.79 234.721" stroke="#320032" stroke-width="1.32683" stroke-linecap="round" stroke-linejoin="round"/>
<path d="M296.975 188.139C313.815 189.795 323.859 209.28 353.657 212.207C383.455 215.134 395.617 197.833 420.232 200.25C444.847 202.667 457.11 222.374 481.54 224.773C505.969 227.174 523.871 210.432 550.15 213.017C570.692 215.036 582.217 234.668 613.493 237.741" stroke="#320032" stroke-width="1.32683" stroke-linecap="round" stroke-linejoin="round"/>
<path d="M296.678 191.159C313.518 192.815 323.562 212.301 353.36 215.228C383.155 218.155 395.32 200.853 419.935 203.271C444.551 205.688 456.813 225.394 481.243 227.793C505.672 230.195 523.574 213.453 549.853 216.037C570.395 218.057 581.92 237.689 613.196 240.761" stroke="#320032" stroke-width="1.32683" stroke-linecap="round" stroke-linejoin="round"/>
<path d="M296.383 194.179C313.223 195.835 323.267 215.32 353.065 218.247C382.86 221.174 395.025 203.873 419.64 206.29C444.256 208.708 456.518 228.414 480.948 230.813C505.378 233.214 523.279 216.472 549.558 219.057C570.1 221.076 581.625 240.708 612.901 243.781" stroke="#320032" stroke-width="1.32683" stroke-linecap="round" stroke-linejoin="round"/>
<path d="M296.086 197.198C312.926 198.854 322.97 218.34 352.768 221.267C382.564 224.194 394.728 206.892 419.343 209.31C443.959 211.727 456.221 231.433 480.651 233.832C505.081 236.234 522.982 219.492 549.262 222.076C569.804 224.096 581.328 243.728 612.605 246.801" stroke="#320032" stroke-width="1.32683" stroke-linecap="round" stroke-linejoin="round"/>
<path d="M295.789 200.219C312.629 201.875 322.673 221.361 352.471 224.288C382.267 227.214 394.431 209.913 419.047 212.33C443.662 214.748 455.925 234.454 480.354 236.853C504.784 239.254 522.685 222.512 548.965 225.097C569.507 227.116 581.032 246.748 612.308 249.821" stroke="#320032" stroke-width="1.32683" stroke-linecap="round" stroke-linejoin="round"/>
<path d="M295.49 203.238C312.33 204.894 322.375 224.38 352.173 227.307C381.968 230.234 394.132 212.932 418.748 215.35C443.363 217.767 455.626 237.473 480.055 239.872C504.485 242.274 522.387 225.532 548.666 228.116C569.208 230.136 580.733 249.768 612.009 252.841" stroke="#320032" stroke-width="1.32683" stroke-linecap="round" stroke-linejoin="round"/>
<path d="M295.195 206.258C312.035 207.914 322.08 227.4 351.878 230.327C381.673 233.254 393.837 215.952 418.453 218.369C443.068 220.787 455.331 240.493 479.76 242.892C504.19 245.293 522.092 228.551 548.371 231.136C568.913 233.155 580.438 252.787 611.714 255.86" stroke="#320032" stroke-width="1.32683" stroke-linecap="round" stroke-linejoin="round"/>
<path d="M294.898 209.278C311.739 210.934 321.783 230.42 351.581 233.347C381.376 236.274 393.54 218.972 418.156 221.39C442.771 223.807 455.034 243.513 479.464 245.912C503.893 248.314 521.795 231.572 548.074 234.156C568.616 236.176 580.141 255.808 611.417 258.881" stroke="#320032" stroke-width="1.32683" stroke-linecap="round" stroke-linejoin="round"/>
<path d="M294.604 212.298C311.444 213.954 321.488 233.44 351.286 236.367C381.081 239.294 393.246 221.992 417.861 224.409C442.476 226.827 454.739 246.533 479.169 248.932C503.598 251.333 521.5 234.591 547.779 237.176C568.321 239.195 579.846 258.827 611.122 261.9" stroke="#320032" stroke-width="1.32683" stroke-linecap="round" stroke-linejoin="round"/>
<path d="M294.305 215.317C311.145 216.973 321.189 236.459 350.987 239.386C380.782 242.313 392.947 225.011 417.562 227.429C442.178 229.846 454.44 249.552 478.87 251.951C503.299 254.353 521.201 237.611 547.48 240.196C568.022 242.215 579.547 261.847 610.823 264.92" stroke="#320032" stroke-width="1.32683" stroke-linecap="round" stroke-linejoin="round"/>
<path d="M294.008 218.338C310.848 219.994 320.892 239.48 350.69 242.407C380.485 245.334 392.65 228.032 417.265 230.449C441.881 232.867 454.143 252.573 478.573 254.972C503.003 257.373 520.904 240.631 547.183 243.216C567.725 245.235 579.25 264.867 610.526 267.94" stroke="#320032" stroke-width="1.32683" stroke-linecap="round" stroke-linejoin="round"/>
<path d="M293.711 221.36C310.551 223.016 320.595 242.502 350.393 245.429C380.189 248.356 392.353 231.054 416.968 233.472C441.584 235.889 453.846 255.595 478.276 257.994C502.706 260.396 520.607 243.654 546.887 246.238C567.429 248.258 578.953 267.89 610.23 270.963" stroke="#320032" stroke-width="1.32683" stroke-linecap="round" stroke-linejoin="round"/>
<path d="M293.412 224.381C310.252 226.037 320.296 245.523 350.094 248.45C379.89 251.377 392.054 234.075 416.67 236.492C441.285 238.91 453.548 258.616 477.977 261.015C502.407 263.416 520.309 246.674 546.588 249.259C567.13 251.278 578.655 270.91 609.931 273.983" stroke="#320032" stroke-width="1.32683" stroke-linecap="round" stroke-linejoin="round"/>
<path d="M293.119 227.4C309.959 229.056 320.003 248.542 349.801 251.469C379.597 254.396 391.761 237.094 416.377 239.512C440.992 241.929 453.255 261.635 477.684 264.034C502.114 266.436 520.016 249.694 546.295 252.279C566.837 254.298 578.362 273.93 609.638 277.003" stroke="#320032" stroke-width="1.32683" stroke-linecap="round" stroke-linejoin="round"/>
<path d="M292.822 230.42C309.662 232.076 319.707 251.562 349.505 254.489C379.3 257.416 391.464 240.114 416.08 242.531C440.695 244.949 452.958 264.655 477.387 267.054C501.817 269.455 519.719 252.713 545.998 255.298C566.54 257.317 578.065 276.949 609.341 280.022" stroke="#320032" stroke-width="1.32683" stroke-linecap="round" stroke-linejoin="round"/>
<path d="M292.525 233.439C309.366 235.095 319.41 254.581 349.208 257.508C379.003 260.435 391.167 243.133 415.783 245.551C440.398 247.968 452.661 267.674 477.091 270.073C501.52 272.475 519.422 255.733 545.701 258.318C566.243 260.337 577.768 279.969 609.044 283.042" stroke="#320032" stroke-width="1.32683" stroke-linecap="round" stroke-linejoin="round"/>
<path d="M292.227 236.459C309.067 238.115 319.111 257.601 348.909 260.528C378.704 263.455 390.869 246.153 415.484 248.57C440.099 250.988 452.362 270.694 476.792 273.093C501.221 275.494 519.123 258.752 545.402 261.337C565.944 263.357 577.469 282.988 608.745 286.061" stroke="#320032" stroke-width="1.32683" stroke-linecap="round" stroke-linejoin="round"/>
<path d="M291.928 239.479C308.768 241.134 318.812 260.62 348.61 263.547C378.405 266.474 390.57 249.172 415.185 251.59C439.801 254.007 452.063 273.713 476.493 276.112C500.922 278.514 518.824 261.772 545.103 264.357C565.645 266.376 577.17 286.008 608.446 289.081" stroke="#320032" stroke-width="1.32683" stroke-linecap="round" stroke-linejoin="round"/>
<path d="M291.633 242.499C308.473 244.155 318.517 263.641 348.315 266.568C378.11 269.495 390.275 252.193 414.89 254.61C439.506 257.028 451.768 276.734 476.198 279.133C500.628 281.534 518.529 264.792 544.808 267.377C565.35 269.397 576.875 289.028 608.151 292.101" stroke="#320032" stroke-width="1.32683" stroke-linecap="round" stroke-linejoin="round"/>
<path d="M291.338 245.519C308.178 247.174 318.222 266.66 348.02 269.587C377.816 272.514 389.98 255.212 414.595 257.63C439.211 260.047 451.473 279.753 475.903 282.152C500.333 284.554 518.234 267.812 544.514 270.397C565.056 272.416 576.58 292.048 607.857 295.121" stroke="#320032" stroke-width="1.32683" stroke-linecap="round" stroke-linejoin="round"/>
<path d="M291.041 248.538C307.881 250.194 317.925 269.68 347.723 272.607C377.521 275.534 389.683 258.232 414.298 260.649C438.914 263.067 451.176 282.773 475.606 285.172C500.036 287.574 517.937 270.832 544.217 273.416C564.759 275.436 576.284 295.067 607.56 298.14" stroke="#320032" stroke-width="1.32683" stroke-linecap="round" stroke-linejoin="round"/>
<path d="M290.742 251.559C307.582 253.214 317.626 272.7 347.424 275.627C377.22 278.554 389.384 261.252 414 263.67C438.615 266.087 450.878 285.794 475.307 288.192C499.737 290.594 517.639 273.852 543.918 276.437C564.46 278.456 575.985 298.088 607.261 301.161" stroke="#320032" stroke-width="1.32683" stroke-linecap="round" stroke-linejoin="round"/>
<path d="M290.445 254.578C307.285 256.234 317.33 275.72 347.128 278.647C376.923 281.574 389.087 264.272 413.703 266.689C438.318 269.107 450.581 288.813 475.01 291.212C499.44 293.614 517.342 276.872 543.621 279.456C564.163 281.476 575.688 301.107 606.964 304.18" stroke="#320032" stroke-width="1.32683" stroke-linecap="round" stroke-linejoin="round"/>
<path d="M290.15 257.598C306.991 259.254 317.035 278.739 346.833 281.666C376.628 284.593 388.792 267.291 413.408 269.709C438.023 272.126 450.286 291.833 474.716 294.231C499.145 296.633 517.047 279.891 543.326 282.476C563.868 284.495 575.393 304.127 606.669 307.2" stroke="#320032" stroke-width="1.32683" stroke-linecap="round" stroke-linejoin="round"/>
<path d="M289.852 260.618C306.692 262.274 316.736 281.76 346.534 284.687C376.329 287.614 388.494 270.312 413.109 272.73C437.724 275.147 449.987 294.853 474.417 297.252C498.846 299.654 516.748 282.912 543.027 285.496C563.569 287.516 575.094 307.148 606.37 310.221" stroke="#320032" stroke-width="1.32683" stroke-linecap="round" stroke-linejoin="round"/>
<path d="M289.557 263.638C306.397 265.294 316.441 284.779 346.239 287.706C376.034 290.633 388.199 273.332 412.814 275.749C437.43 278.167 449.692 297.873 474.122 300.272C498.551 302.673 516.453 285.931 542.732 288.516C563.274 290.535 574.799 310.167 606.075 313.24" stroke="#320032" stroke-width="1.32683" stroke-linecap="round" stroke-linejoin="round"/>
<path d="M289.26 266.657C306.1 268.313 316.144 287.799 345.942 290.726C375.737 293.653 387.902 276.351 412.517 278.769C437.133 281.186 449.395 300.892 473.825 303.291C498.255 305.693 516.156 288.951 542.435 291.535C562.977 293.555 574.502 313.187 605.778 316.26" stroke="#320032" stroke-width="1.32683" stroke-linecap="round" stroke-linejoin="round"/>
<path d="M288.961 269.68C305.801 271.336 315.845 290.821 345.643 293.748C375.439 296.675 387.603 279.374 412.218 281.791C436.834 284.209 449.096 303.915 473.526 306.314C497.956 308.715 515.857 291.973 542.137 294.558C562.679 296.577 574.203 316.209 605.48 319.282" stroke="#320032" stroke-width="1.32683" stroke-linecap="round" stroke-linejoin="round"/>
<path d="M288.666 272.7C305.506 274.356 315.55 293.842 345.348 296.769C375.144 299.696 387.308 282.394 411.923 284.812C436.539 287.229 448.801 306.935 473.231 309.334C497.661 311.736 515.562 294.994 541.842 297.578C562.384 299.598 573.909 319.23 605.185 322.303" stroke="#320032" stroke-width="1.32683" stroke-linecap="round" stroke-linejoin="round"/>
</g>
</g>
<path d="M313.369 53.985L313.351 54.0009L313.207 54.1124C313.035 54.2238 312.836 54.2796 312.637 54.2796H312.634C312.295 54.2796 311.96 54.115 311.756 53.8072L301.831 38.9148C301.619 38.5938 301.574 38.2116 301.688 37.872C301.752 37.6623 301.874 37.4713 302.051 37.32L302.134 37.2563C302.235 37.1847 302.338 37.1369 302.452 37.1157C302.805 37.0281 303.187 37.1661 303.402 37.4872L313.521 52.6423C313.81 53.0695 313.738 53.6374 313.377 53.985H313.369Z" stroke="#320032" stroke-width="0.39805" stroke-linecap="round" stroke-linejoin="round"/>
</svg>
