<svg width="1440" height="71" viewBox="0 0 1440 71" fill="none" xmlns="http://www.w3.org/2000/svg">
<g clip-path="url(#clip0_602_18083)">
<mask id="mask0_602_18083" style="mask-type:luminance" maskUnits="userSpaceOnUse" x="-274" y="-46" width="1934" height="1095">
<path d="M1659.04 1048.67C1659.04 1048.67 -188.56 1048.67 -274 1048.67V-46H1659.04V1048.67Z" fill="white"/>
</mask>
<g mask="url(#mask0_602_18083)">
<g opacity="0.75">
<path d="M354.061 82.6997L355.931 83.1997C357.751 83.4997 359.611 83.3597 361.371 82.7997C360.881 85.0097 361.101 87.3197 362.021 89.3897C362.341 90.1997 362.801 90.9397 363.371 91.5997H363.341C363.671 92.0197 364.031 92.4297 364.421 92.8097C369.491 97.8797 376.581 97.4097 382.431 91.5697L396.161 77.8397C397.191 76.8097 397.191 75.1297 396.161 74.0897L368.961 46.8897C367.931 45.8597 366.251 45.8597 365.211 46.8897L351.061 61.0397C344.961 67.1397 344.491 74.5797 349.861 79.9497C351.041 81.1597 352.481 82.0997 354.061 82.6897V82.6997ZM371.601 81.1897C373.631 79.1597 376.411 78.6397 377.801 80.0397C379.191 81.4297 378.681 84.2097 376.651 86.2397C374.621 88.2697 371.841 88.7897 370.451 87.3897C369.061 85.9897 369.571 83.2197 371.601 81.1897Z" stroke="#B001B0" stroke-width="0.55" stroke-miterlimit="10"/>
<path d="M318.44 47.0903L320.31 47.5903C322.13 47.8903 323.99 47.7503 325.75 47.1903C325.26 49.4003 325.48 51.7103 326.4 53.7803C326.72 54.5903 327.18 55.3303 327.75 55.9903H327.72C328.05 56.4103 328.41 56.8203 328.8 57.2003C333.87 62.2703 340.96 61.8003 346.81 55.9603L360.54 42.2303C361.57 41.2003 361.57 39.5203 360.54 38.4803L333.34 11.2803C332.31 10.2503 330.63 10.2503 329.59 11.2803L315.44 25.4303C309.34 31.5303 308.87 38.9703 314.24 44.3403C315.42 45.5503 316.86 46.4903 318.44 47.0803V47.0903ZM335.99 45.5703C338.02 43.5403 340.8 43.0203 342.19 44.4203C343.58 45.8103 343.07 48.5903 341.04 50.6203C339.01 52.6503 336.23 53.1703 334.84 51.7703C333.45 50.3803 333.96 47.6003 335.99 45.5703Z" stroke="#B001B0" stroke-width="0.55" stroke-miterlimit="10"/>
<path d="M319.691 58.4404L317.821 57.9404C316.001 57.6404 314.141 57.7803 312.381 58.3403C312.871 56.1303 312.651 53.8204 311.731 51.7504C311.411 50.9404 310.951 50.2004 310.381 49.5404H310.411C310.081 49.1204 309.721 48.7104 309.331 48.3304C304.261 43.2604 297.171 43.7304 291.321 49.5704L277.591 63.3004C276.561 64.3304 276.561 66.0104 277.591 67.0504L304.791 94.2504C305.821 95.2804 307.501 95.2804 308.541 94.2504L322.691 80.1003C328.791 74.0003 329.261 66.5604 323.891 61.1904C322.711 59.9804 321.271 59.0403 319.691 58.4503V58.4404ZM302.141 59.9603C300.111 61.9903 297.331 62.5104 295.941 61.1104C294.551 59.7204 295.061 56.9404 297.091 54.9104C299.121 52.8804 301.901 52.3604 303.291 53.7604C304.681 55.1504 304.171 57.9303 302.141 59.9603Z" stroke="#B001B0" stroke-width="0.55" stroke-miterlimit="10"/>
<path d="M282.83 11.4809L284.7 11.9809C286.52 12.2809 288.38 12.1409 290.14 11.5809C289.65 13.7909 289.87 16.1009 290.79 18.1709C291.11 18.9809 291.57 19.7209 292.14 20.3809H292.11C292.44 20.8009 292.8 21.2109 293.19 21.5909C298.26 26.6609 305.35 26.1909 311.2 20.3509L324.93 6.62094C325.96 5.59094 325.96 3.91094 324.93 2.87094L297.73 -24.3291C296.7 -25.3591 295.02 -25.3591 293.98 -24.3291L279.83 -10.1791C273.73 -4.07906 273.26 3.36094 278.63 8.73094C279.81 9.94094 281.25 10.8809 282.83 11.4709V11.4809ZM300.37 9.96094C302.4 7.93094 305.18 7.41094 306.57 8.81094C307.96 10.2109 307.45 12.9809 305.42 15.0109C303.39 17.0409 300.61 17.5609 299.22 16.1609C297.83 14.7709 298.34 11.9909 300.37 9.96094Z" stroke="#B001B0" stroke-width="0.55" stroke-miterlimit="10"/>
<path d="M284.07 22.8212L282.2 22.3212C280.38 22.0212 278.52 22.1612 276.76 22.7212C277.25 20.5112 277.03 18.2012 276.11 16.1312C275.79 15.3212 275.33 14.5812 274.76 13.9212H274.79C274.46 13.5012 274.1 13.0912 273.71 12.7112C268.64 7.64121 261.55 8.11121 255.7 13.9512L241.97 27.6812C240.94 28.7112 240.94 30.3912 241.97 31.4312L269.17 58.6312C270.2 59.6612 271.88 59.6612 272.92 58.6312L287.07 44.4812C293.17 38.3812 293.64 30.9412 288.27 25.5712C287.09 24.3612 285.65 23.4212 284.07 22.8312V22.8212ZM266.53 24.3412C264.5 26.3712 261.72 26.8912 260.33 25.4912C258.94 24.1012 259.45 21.3212 261.48 19.2912C263.51 17.2612 266.29 16.7412 267.68 18.1412C269.07 19.5312 268.56 22.3112 266.53 24.3412Z" stroke="#B001B0" stroke-width="0.55" stroke-miterlimit="10"/>
<path d="M248.46 -12.7882L246.59 -13.2882C244.77 -13.5882 242.91 -13.4482 241.15 -12.8882C241.64 -15.0982 241.42 -17.4082 240.5 -19.4782C240.18 -20.2882 239.72 -21.0282 239.15 -21.6882H239.18C238.85 -22.1082 238.49 -22.5182 238.1 -22.8982C233.03 -27.9682 225.94 -27.4982 220.09 -21.6582L206.36 -7.92817C205.33 -6.89817 205.33 -5.21817 206.36 -4.17817L233.56 23.0218C234.59 24.0518 236.27 24.0518 237.31 23.0218L251.46 8.87183C257.56 2.77183 258.03 -4.66817 252.66 -10.0382C251.48 -11.2482 250.04 -12.1882 248.46 -12.7782V-12.7882ZM230.91 -11.2682C228.88 -9.23817 226.1 -8.71816 224.71 -10.1182C223.32 -11.5082 223.83 -14.2882 225.86 -16.3182C227.89 -18.3482 230.67 -18.8682 232.06 -17.4682C233.45 -16.0782 232.94 -13.2982 230.91 -11.2682Z" stroke="#B001B0" stroke-width="0.55" stroke-miterlimit="10"/>
<path d="M484.641 94.5806L486.511 95.0806C488.331 95.3806 490.191 95.2405 491.951 94.6805C491.461 96.8905 491.681 99.2006 492.601 101.271C492.921 102.081 493.381 102.821 493.951 103.481H493.921C494.251 103.901 494.611 104.311 495.001 104.691C500.071 109.761 507.161 109.291 513.011 103.451L526.741 89.7206C527.771 88.6906 527.771 87.0106 526.741 85.9706L499.541 58.7705C498.511 57.7405 496.831 57.7405 495.791 58.7705L481.641 72.9205C475.541 79.0205 475.071 86.4606 480.441 91.8306C481.621 93.0406 483.061 93.9806 484.641 94.5706V94.5806ZM502.191 93.0605C504.221 91.0305 507.001 90.5106 508.391 91.9106C509.781 93.3106 509.271 96.0805 507.241 98.1105C505.211 100.141 502.431 100.661 501.041 99.2605C499.651 97.8605 500.161 95.0905 502.191 93.0605Z" stroke="#B001B0" stroke-width="0.55" stroke-miterlimit="10"/>
<path d="M449.03 58.9614L450.9 59.4614C452.72 59.7614 454.58 59.6214 456.34 59.0614C455.85 61.2714 456.069 63.5814 456.989 65.6514C457.309 66.4614 457.77 67.2014 458.34 67.8614H458.309C458.639 68.2814 458.999 68.6914 459.389 69.0714C464.459 74.1414 471.55 73.6714 477.4 67.8314L491.129 54.1014C492.159 53.0714 492.159 51.3914 491.129 50.3514L463.929 23.1514C462.899 22.1214 461.219 22.1214 460.179 23.1514L446.03 37.3014C439.93 43.4014 439.459 50.8414 444.829 56.2114C446.009 57.4214 447.45 58.3614 449.03 58.9514V58.9614ZM466.569 57.4414C468.599 55.4114 471.38 54.8914 472.77 56.2914C474.16 57.6814 473.649 60.4614 471.619 62.4914C469.589 64.5214 466.809 65.0414 465.419 63.6414C464.029 62.2414 464.539 59.4714 466.569 57.4414Z" stroke="#B001B0" stroke-width="0.55" stroke-miterlimit="10"/>
<path d="M450.271 70.3095L448.401 69.8095C446.581 69.5095 444.721 69.6495 442.961 70.2095C443.451 67.9995 443.231 65.6895 442.311 63.6195C441.991 62.8095 441.531 62.0695 440.961 61.4095H440.991C440.661 60.9895 440.301 60.5795 439.911 60.1995C434.841 55.1295 427.751 55.5995 421.901 61.4395L408.171 75.1695C407.141 76.1995 407.141 77.8795 408.171 78.9195L435.371 106.119C436.401 107.149 438.081 107.149 439.121 106.119L453.271 91.9695C459.371 85.8695 459.841 78.4295 454.471 73.0595C453.291 71.8495 451.851 70.9095 450.271 70.3195V70.3095ZM432.721 71.8295C430.691 73.8595 427.911 74.3795 426.521 72.9795C425.131 71.5795 425.641 68.8095 427.671 66.7795C429.701 64.7495 432.481 64.2295 433.871 65.6295C435.261 67.0195 434.751 69.7995 432.721 71.8295Z" stroke="#B001B0" stroke-width="0.55" stroke-miterlimit="10"/>
<path d="M413.41 23.3501L415.28 23.8501C417.1 24.1501 418.96 24.0101 420.72 23.4501C420.23 25.6601 420.45 27.9701 421.37 30.0401C421.69 30.8501 422.15 31.5901 422.72 32.2501H422.69C423.02 32.6701 423.38 33.0801 423.77 33.4601C428.84 38.5301 435.93 38.0601 441.78 32.2201L455.51 18.4901C456.54 17.4601 456.54 15.7801 455.51 14.7401L428.31 -12.4599C427.28 -13.4899 425.6 -13.4899 424.56 -12.4599L410.41 1.69008C404.31 7.79008 403.84 15.2301 409.21 20.6001C410.39 21.8101 411.83 22.7501 413.41 23.3401V23.3501ZM430.96 21.8301C432.99 19.8001 435.77 19.2801 437.16 20.6801C438.55 22.0701 438.04 24.8501 436.01 26.8801C433.98 28.9101 431.2 29.4301 429.81 28.0301C428.42 26.6401 428.93 23.8601 430.96 21.8301Z" stroke="#B001B0" stroke-width="0.55" stroke-miterlimit="10"/>
<path d="M414.66 34.7001L412.79 34.2001C410.97 33.9001 409.11 34.0401 407.35 34.6001C407.84 32.3901 407.62 30.0801 406.7 28.0101C406.38 27.2001 405.92 26.4601 405.35 25.8001H405.38C405.05 25.3801 404.69 24.9701 404.3 24.5901C399.23 19.5201 392.14 19.9901 386.29 25.8301L372.56 39.5601C371.53 40.5901 371.53 42.2701 372.56 43.3101L399.76 70.5101C400.79 71.5401 402.47 71.5401 403.51 70.5101L417.66 56.3601C423.76 50.2601 424.23 42.8201 418.86 37.4501C417.68 36.2401 416.24 35.3001 414.66 34.7101V34.7001ZM397.11 36.2201C395.08 38.2501 392.3 38.7701 390.91 37.3701C389.52 35.9801 390.03 33.2001 392.06 31.1701C394.09 29.1401 396.87 28.6201 398.26 30.0201C399.65 31.4201 399.14 34.1901 397.11 36.2201Z" stroke="#B001B0" stroke-width="0.55" stroke-miterlimit="10"/>
<path d="M377.799 -12.2691L379.669 -11.7691C381.489 -11.4691 383.349 -11.6091 385.109 -12.1691C384.619 -9.95906 384.839 -7.64906 385.759 -5.57906C386.079 -4.76906 386.539 -4.02906 387.109 -3.36906H387.079C387.409 -2.94906 387.769 -2.53906 388.159 -2.15906C393.229 2.91094 400.319 2.44094 406.169 -3.39906L419.899 -17.1291C420.929 -18.1591 420.929 -19.8391 419.899 -20.8791L392.699 -48.0791C391.669 -49.1091 389.989 -49.1091 388.949 -48.0791L374.799 -33.9291C368.699 -27.8291 368.229 -20.3891 373.599 -15.0191C374.779 -13.8091 376.219 -12.8691 377.799 -12.2791V-12.2691ZM395.339 -13.7791C397.369 -15.8091 400.149 -16.3291 401.539 -14.9291C402.929 -13.5291 402.419 -10.7591 400.389 -8.72906C398.359 -6.69906 395.579 -6.17906 394.189 -7.57906C392.799 -8.96906 393.309 -11.7491 395.339 -13.7791Z" stroke="#B001B0" stroke-width="0.55" stroke-miterlimit="10"/>
<path d="M379.04 -0.920976L377.17 -1.42098C375.35 -1.72098 373.49 -1.58098 371.73 -1.02098C372.22 -3.23098 372 -5.54098 371.08 -7.61098C370.76 -8.42098 370.3 -9.16098 369.73 -9.82098H369.76C369.43 -10.241 369.07 -10.651 368.68 -11.031C363.61 -16.101 356.52 -15.631 350.67 -9.79098L336.94 3.93902C335.91 4.96902 335.91 6.64902 336.94 7.68902L364.14 34.889C365.17 35.919 366.85 35.919 367.89 34.889L382.04 20.739C388.14 14.639 388.61 7.19903 383.24 1.82903C382.06 0.619025 380.62 -0.320977 379.04 -0.910977V-0.920976ZM361.5 0.599021C359.47 2.62902 356.69 3.14902 355.3 1.74902C353.91 0.359023 354.42 -2.42098 356.45 -4.45098C358.48 -6.48098 361.26 -7.00098 362.65 -5.60098C364.04 -4.21098 363.53 -1.43098 361.5 0.599021Z" stroke="#B001B0" stroke-width="0.55" stroke-miterlimit="10"/>
<path d="M343.429 -36.5304L341.559 -37.0304C339.739 -37.3304 337.879 -37.1904 336.119 -36.6304C336.609 -38.8404 336.389 -41.1504 335.469 -43.2204C335.149 -44.0304 334.689 -44.7704 334.119 -45.4304H334.149C333.819 -45.8504 333.459 -46.2604 333.069 -46.6404C327.999 -51.7104 320.909 -51.2404 315.059 -45.4004L301.329 -31.6704C300.299 -30.6404 300.299 -28.9604 301.329 -27.9204L328.529 -0.720352C329.559 0.309648 331.239 0.309648 332.279 -0.720352L346.429 -14.8704C352.529 -20.9704 352.999 -28.4104 347.629 -33.7804C346.449 -34.9904 345.009 -35.9304 343.429 -36.5204V-36.5304ZM325.879 -35.0104C323.849 -32.9804 321.069 -32.4604 319.679 -33.8604C318.289 -35.2604 318.799 -38.0304 320.829 -40.0604C322.859 -42.0904 325.639 -42.6104 327.029 -41.2104C328.419 -39.8104 327.909 -37.0404 325.879 -35.0104Z" stroke="#B001B0" stroke-width="0.55" stroke-miterlimit="10"/>
<path d="M615.231 106.45L617.101 106.95C618.921 107.25 620.781 107.11 622.541 106.55C622.051 108.76 622.271 111.07 623.191 113.14C623.511 113.95 623.971 114.69 624.541 115.35H624.511C624.841 115.77 625.201 116.18 625.591 116.56C630.661 121.63 637.751 121.16 643.601 115.32L657.331 101.59C658.361 100.56 658.361 98.8797 657.331 97.8397L630.131 70.6397C629.101 69.6097 627.421 69.6097 626.381 70.6397L612.231 84.7897C606.131 90.8897 605.661 98.3297 611.031 103.7C612.211 104.91 613.651 105.85 615.231 106.44V106.45ZM632.771 104.93C634.801 102.9 637.581 102.38 638.971 103.78C640.361 105.17 639.851 107.95 637.821 109.98C635.791 112.01 633.011 112.53 631.621 111.13C630.231 109.74 630.741 106.96 632.771 104.93Z" stroke="#B001B0" stroke-width="0.55" stroke-miterlimit="10"/>
<path d="M579.61 70.8403L581.48 71.3403C583.3 71.6403 585.16 71.5003 586.92 70.9403C586.43 73.1503 586.65 75.4603 587.57 77.5303C587.89 78.3403 588.35 79.0803 588.92 79.7403H588.89C589.22 80.1603 589.58 80.5703 589.97 80.9503C595.04 86.0203 602.13 85.5503 607.98 79.7103L621.71 65.9803C622.74 64.9503 622.74 63.2703 621.71 62.2303L594.51 35.0303C593.48 34.0003 591.8 34.0003 590.76 35.0303L576.61 49.1803C570.51 55.2803 570.04 62.7203 575.41 68.0903C576.59 69.3003 578.03 70.2403 579.61 70.8303V70.8403ZM597.16 69.3203C599.19 67.2903 601.97 66.7703 603.36 68.1703C604.75 69.5603 604.24 72.3403 602.21 74.3703C600.18 76.4003 597.4 76.9203 596.01 75.5203C594.62 74.1303 595.13 71.3503 597.16 69.3203Z" stroke="#B001B0" stroke-width="0.55" stroke-miterlimit="10"/>
<path d="M580.849 82.1904L578.979 81.6904C577.159 81.3904 575.299 81.5303 573.539 82.0903C574.029 79.8803 573.809 77.5704 572.889 75.5004C572.569 74.6904 572.109 73.9504 571.539 73.2904H571.569C571.239 72.8704 570.879 72.4604 570.489 72.0804C565.419 67.0104 558.329 67.4804 552.479 73.3204L538.749 87.0504C537.719 88.0804 537.719 89.7604 538.749 90.8004L565.949 118C566.979 119.03 568.659 119.03 569.699 118L583.849 103.85C589.949 97.7504 590.419 90.3104 585.049 84.9404C583.869 83.7304 582.429 82.7903 580.849 82.2003V82.1904ZM563.309 83.7003C561.279 85.7303 558.499 86.2504 557.109 84.8504C555.719 83.4604 556.229 80.6804 558.259 78.6504C560.289 76.6204 563.069 76.1004 564.459 77.5003C565.849 78.8903 565.339 81.6703 563.309 83.7003Z" stroke="#B001B0" stroke-width="0.55" stroke-miterlimit="10"/>
<path d="M544 35.2192L545.87 35.7192C547.69 36.0192 549.55 35.8792 551.31 35.3192C550.82 37.5292 551.04 39.8392 551.96 41.9092C552.28 42.7192 552.74 43.4592 553.31 44.1192H553.28C553.61 44.5392 553.97 44.9492 554.36 45.3292C559.43 50.3992 566.52 49.9292 572.37 44.0892L586.1 30.3592C587.13 29.3292 587.13 27.6492 586.1 26.6092L558.9 -0.590781C557.87 -1.62078 556.19 -1.62078 555.15 -0.590781L541 13.5592C534.9 19.6592 534.43 27.0992 539.8 32.4692C540.98 33.6792 542.42 34.6192 544 35.2092V35.2192ZM561.54 33.6992C563.57 31.6692 566.35 31.1492 567.74 32.5492C569.13 33.9492 568.62 36.7192 566.59 38.7492C564.56 40.7792 561.78 41.2992 560.39 39.8992C559 38.5092 559.51 35.7292 561.54 33.6992Z" stroke="#B001B0" stroke-width="0.55" stroke-miterlimit="10"/>
<path d="M545.24 46.5712L543.37 46.0712C541.55 45.7712 539.69 45.9112 537.93 46.4712C538.42 44.2612 538.2 41.9512 537.28 39.8812C536.96 39.0712 536.5 38.3312 535.93 37.6712H535.96C535.63 37.2512 535.27 36.8412 534.88 36.4612C529.81 31.3912 522.72 31.8612 516.87 37.7012L503.14 51.4312C502.11 52.4612 502.11 54.1412 503.14 55.1812L530.34 82.3812C531.37 83.4112 533.05 83.4112 534.09 82.3812L548.24 68.2312C554.34 62.1312 554.81 54.6912 549.44 49.3212C548.26 48.1112 546.82 47.1712 545.24 46.5812V46.5712ZM527.69 48.0912C525.66 50.1212 522.88 50.6412 521.49 49.2412C520.1 47.8512 520.61 45.0712 522.64 43.0412C524.67 41.0112 527.45 40.4912 528.84 41.8912C530.23 43.2812 529.72 46.0612 527.69 48.0912Z" stroke="#B001B0" stroke-width="0.55" stroke-miterlimit="10"/>
<path d="M508.379 -0.390156L510.249 0.109844C512.069 0.409844 513.929 0.269843 515.689 -0.290157C515.199 1.91984 515.419 4.22984 516.339 6.29984C516.659 7.10984 517.119 7.84984 517.689 8.50984H517.659C517.989 8.92984 518.349 9.33984 518.739 9.71984C523.809 14.7898 530.899 14.3198 536.749 8.47984L550.479 -5.25016C551.509 -6.28016 551.509 -7.96016 550.479 -9.00016L523.279 -36.2002C522.249 -37.2302 520.569 -37.2302 519.529 -36.2002L505.379 -22.0502C499.279 -15.9502 498.809 -8.51016 504.179 -3.14016C505.359 -1.93016 506.799 -0.990158 508.379 -0.400158V-0.390156ZM525.929 -1.91016C527.959 -3.94016 530.739 -4.46016 532.129 -3.06016C533.519 -1.66016 533.009 1.10984 530.979 3.13984C528.949 5.16984 526.169 5.68984 524.779 4.28984C523.389 2.89984 523.899 0.119844 525.929 -1.91016Z" stroke="#B001B0" stroke-width="0.55" stroke-miterlimit="10"/>
<path d="M509.621 10.9618L507.751 10.4618C505.931 10.1618 504.071 10.3018 502.311 10.8618C502.801 8.65184 502.58 6.34184 501.66 4.27184C501.34 3.46184 500.881 2.72184 500.311 2.06184H500.341C500.011 1.64184 499.651 1.23183 499.261 0.851835C494.191 -4.21817 487.101 -3.74816 481.251 2.09184L467.521 15.8218C466.491 16.8518 466.491 18.5318 467.521 19.5718L494.72 46.7718C495.75 47.8018 497.43 47.8018 498.47 46.7718L512.621 32.6218C518.721 26.5218 519.191 19.0818 513.821 13.7118C512.641 12.5018 511.201 11.5618 509.621 10.9718V10.9618ZM492.081 12.4818C490.051 14.5118 487.271 15.0318 485.881 13.6318C484.491 12.2418 485.001 9.46184 487.031 7.43184C489.061 5.40184 491.841 4.88184 493.231 6.28184C494.621 7.67184 494.111 10.4518 492.081 12.4818Z" stroke="#B001B0" stroke-width="0.55" stroke-miterlimit="10"/>
<path d="M474.009 -24.6593L472.139 -25.1593C470.319 -25.4593 468.459 -25.3193 466.699 -24.7593C467.189 -26.9693 466.969 -29.2793 466.049 -31.3493C465.729 -32.1593 465.269 -32.8993 464.699 -33.5593H464.729C464.399 -33.9793 464.039 -34.3893 463.649 -34.7693C458.579 -39.8393 451.489 -39.3693 445.639 -33.5293L431.909 -19.7993C430.879 -18.7693 430.879 -17.0893 431.909 -16.0493L459.109 11.1507C460.139 12.1807 461.819 12.1807 462.859 11.1507L477.009 -2.99926C483.109 -9.09926 483.579 -16.5393 478.209 -21.9093C477.029 -23.1193 475.589 -24.0593 474.009 -24.6493V-24.6593ZM456.469 -23.1393C454.439 -21.1093 451.659 -20.5893 450.269 -21.9893C448.879 -23.3793 449.389 -26.1593 451.419 -28.1893C453.449 -30.2193 456.229 -30.7393 457.619 -29.3393C459.009 -27.9493 458.499 -25.1693 456.469 -23.1393Z" stroke="#B001B0" stroke-width="0.55" stroke-miterlimit="10"/>
<path d="M710.199 82.7114L712.069 83.2114C713.889 83.5114 715.749 83.3714 717.509 82.8114C717.019 85.0214 717.239 87.3314 718.159 89.4014C718.479 90.2114 718.939 90.9514 719.509 91.6114H719.479C719.809 92.0314 720.169 92.4414 720.559 92.8214C725.629 97.8914 732.719 97.4214 738.569 91.5814L752.299 77.8514C753.329 76.8214 753.329 75.1414 752.299 74.1014L725.099 46.9014C724.069 45.8714 722.389 45.8714 721.349 46.9014L707.199 61.0514C701.099 67.1514 700.629 74.5914 705.999 79.9614C707.179 81.1714 708.619 82.1114 710.199 82.7014V82.7114ZM727.739 81.1914C729.769 79.1614 732.549 78.6414 733.939 80.0414C735.329 81.4314 734.819 84.2114 732.789 86.2414C730.759 88.2714 727.979 88.7914 726.589 87.3914C725.199 86.0014 725.709 83.2214 727.739 81.1914Z" stroke="#B001B0" stroke-width="0.55" stroke-miterlimit="10"/>
<path d="M674.58 47.1001L676.45 47.6001C678.27 47.9001 680.13 47.7601 681.89 47.2001C681.4 49.4101 681.62 51.7201 682.54 53.7901C682.86 54.6001 683.32 55.3401 683.89 56.0001H683.86C684.19 56.4201 684.55 56.8301 684.94 57.2101C690.01 62.2801 697.1 61.8101 702.95 55.9701L716.68 42.2401C717.71 41.2101 717.71 39.5301 716.68 38.4901L689.48 11.2901C688.45 10.2601 686.77 10.2601 685.73 11.2901L671.58 25.4401C665.48 31.5401 665.01 38.9801 670.38 44.3501C671.56 45.5601 673 46.5001 674.58 47.0901V47.1001ZM692.13 45.5801C694.16 43.5501 696.94 43.0301 698.33 44.4301C699.72 45.8201 699.21 48.6001 697.18 50.6301C695.15 52.6601 692.37 53.1801 690.98 51.7801C689.59 50.3901 690.1 47.6101 692.13 45.5801Z" stroke="#B001B0" stroke-width="0.55" stroke-miterlimit="10"/>
<path d="M675.82 58.4404L673.95 57.9404C672.13 57.6404 670.27 57.7803 668.51 58.3403C669 56.1303 668.78 53.8204 667.86 51.7504C667.54 50.9404 667.08 50.2004 666.51 49.5404H666.54C666.21 49.1204 665.85 48.7104 665.46 48.3304C660.39 43.2604 653.3 43.7304 647.45 49.5704L633.72 63.3004C632.69 64.3304 632.69 66.0104 633.72 67.0504L660.92 94.2504C661.95 95.2804 663.63 95.2804 664.67 94.2504L678.82 80.1003C684.92 74.0003 685.39 66.5604 680.02 61.1904C678.84 59.9804 677.4 59.0403 675.82 58.4503V58.4404ZM658.28 59.9603C656.25 61.9903 653.47 62.5104 652.08 61.1104C650.69 59.7104 651.2 56.9404 653.23 54.9104C655.26 52.8804 658.04 52.3604 659.43 53.7604C660.82 55.1504 660.31 57.9303 658.28 59.9603Z" stroke="#B001B0" stroke-width="0.55" stroke-miterlimit="10"/>
<path d="M638.971 11.4809L640.841 11.9809C642.661 12.2809 644.521 12.1409 646.281 11.5809C645.791 13.7909 646.011 16.1009 646.931 18.1709C647.251 18.9809 647.711 19.7209 648.281 20.3809H648.251C648.581 20.8009 648.941 21.2109 649.331 21.5909C654.401 26.6609 661.491 26.1909 667.341 20.3509L681.071 6.62094C682.101 5.59094 682.101 3.91094 681.071 2.87094L653.871 -24.3291C652.841 -25.3591 651.161 -25.3591 650.121 -24.3291L635.971 -10.1791C629.871 -4.07906 629.401 3.36094 634.771 8.73094C635.951 9.94094 637.391 10.8809 638.971 11.4709V11.4809ZM656.511 9.96094C658.541 7.93094 661.321 7.41094 662.711 8.81094C664.101 10.2009 663.591 12.9809 661.561 15.0109C659.531 17.0409 656.751 17.5609 655.361 16.1609C653.971 14.7709 654.481 11.9909 656.511 9.96094Z" stroke="#B001B0" stroke-width="0.55" stroke-miterlimit="10"/>
<path d="M640.21 22.829L638.34 22.329C636.52 22.029 634.66 22.169 632.9 22.729C633.39 20.519 633.17 18.209 632.25 16.139C631.93 15.329 631.47 14.589 630.9 13.929H630.93C630.6 13.509 630.24 13.099 629.85 12.719C624.78 7.64902 617.69 8.11902 611.84 13.959L598.11 27.689C597.08 28.719 597.08 30.399 598.11 31.439L625.31 58.639C626.34 59.669 628.02 59.669 629.06 58.639L643.21 44.489C649.31 38.389 649.78 30.949 644.41 25.579C643.23 24.369 641.79 23.429 640.21 22.839V22.829ZM622.66 24.349C620.63 26.379 617.85 26.899 616.46 25.499C615.07 24.099 615.58 21.329 617.61 19.299C619.64 17.269 622.42 16.749 623.81 18.149C625.2 19.539 624.69 22.319 622.66 24.349Z" stroke="#B001B0" stroke-width="0.55" stroke-miterlimit="10"/>
<path d="M604.589 -12.7804L602.719 -13.2804C600.899 -13.5804 599.039 -13.4404 597.279 -12.8804C597.769 -15.0904 597.549 -17.4004 596.629 -19.4704C596.309 -20.2804 595.849 -21.0204 595.279 -21.6804H595.309C594.979 -22.1004 594.619 -22.5104 594.229 -22.8904C589.159 -27.9604 582.069 -27.4904 576.219 -21.6504L562.489 -7.92035C561.459 -6.89035 561.459 -5.21035 562.489 -4.17035L589.689 23.0296C590.719 24.0596 592.399 24.0596 593.439 23.0296L607.589 8.87965C613.689 2.77965 614.159 -4.66035 608.789 -10.0304C607.609 -11.2404 606.169 -12.1804 604.589 -12.7704V-12.7804ZM587.049 -11.2704C585.019 -9.24035 582.239 -8.72035 580.849 -10.1204C579.459 -11.5104 579.969 -14.2904 581.999 -16.3204C584.029 -18.3504 586.809 -18.8704 588.199 -17.4704C589.589 -16.0804 589.079 -13.3004 587.049 -11.2704Z" stroke="#B001B0" stroke-width="0.55" stroke-miterlimit="10"/>
<path d="M840.78 94.5806L842.65 95.0806C844.47 95.3806 846.329 95.2405 848.089 94.6805C847.599 96.8905 847.82 99.2006 848.74 101.271C849.06 102.081 849.519 102.821 850.089 103.481H850.06C850.39 103.901 850.75 104.311 851.14 104.691C856.21 109.761 863.3 109.291 869.15 103.451L882.88 89.7206C883.91 88.6906 883.91 87.0106 882.88 85.9706L855.68 58.7705C854.65 57.7405 852.97 57.7405 851.93 58.7705L837.78 72.9205C831.68 79.0205 831.209 86.4606 836.579 91.8306C837.759 93.0406 839.2 93.9806 840.78 94.5706V94.5806ZM858.319 93.0605C860.349 91.0305 863.13 90.5106 864.52 91.9106C865.91 93.3006 865.4 96.0805 863.37 98.1105C861.34 100.141 858.56 100.661 857.17 99.2605C855.78 97.8705 856.289 95.0905 858.319 93.0605Z" stroke="#B001B0" stroke-width="0.55" stroke-miterlimit="10"/>
<path d="M805.16 58.9692L807.03 59.4692C808.85 59.7692 810.71 59.6292 812.47 59.0692C811.98 61.2792 812.2 63.5892 813.12 65.6592C813.44 66.4692 813.9 67.2092 814.47 67.8692H814.44C814.77 68.2892 815.13 68.6992 815.52 69.0792C820.59 74.1492 827.68 73.6792 833.53 67.8392L847.26 54.1092C848.29 53.0792 848.29 51.3992 847.26 50.3592L820.06 23.1592C819.03 22.1292 817.35 22.1292 816.31 23.1592L802.16 37.3092C796.06 43.4092 795.59 50.8492 800.96 56.2192C802.14 57.4292 803.58 58.3692 805.16 58.9592V58.9692ZM822.71 57.4492C824.74 55.4192 827.52 54.8992 828.91 56.2992C830.3 57.6892 829.79 60.4692 827.76 62.4992C825.73 64.5292 822.95 65.0492 821.56 63.6492C820.17 62.2592 820.68 59.4792 822.71 57.4492Z" stroke="#B001B0" stroke-width="0.55" stroke-miterlimit="10"/>
<path d="M806.41 70.3212L804.54 69.8212C802.72 69.5212 800.86 69.6612 799.1 70.2212C799.59 68.0112 799.37 65.7012 798.45 63.6312C798.13 62.8212 797.67 62.0812 797.1 61.4212H797.13C796.8 61.0012 796.44 60.5912 796.05 60.2112C790.98 55.1412 783.89 55.6112 778.04 61.4512L764.31 75.1812C763.28 76.2112 763.28 77.8912 764.31 78.9312L791.51 106.131C792.54 107.161 794.22 107.161 795.26 106.131L809.41 91.9812C815.51 85.8812 815.98 78.4412 810.61 73.0712C809.43 71.8612 807.99 70.9212 806.41 70.3312V70.3212ZM788.86 71.8412C786.83 73.8712 784.05 74.3912 782.66 72.9912C781.27 71.6012 781.78 68.8212 783.81 66.7912C785.84 64.7612 788.62 64.2412 790.01 65.6412C791.4 67.0312 790.89 69.8112 788.86 71.8412Z" stroke="#B001B0" stroke-width="0.55" stroke-miterlimit="10"/>
<path d="M769.549 23.3501L771.419 23.8501C773.239 24.1501 775.099 24.0101 776.859 23.4501C776.369 25.6601 776.589 27.9701 777.509 30.0401C777.829 30.8501 778.289 31.5901 778.859 32.2501H778.829C779.159 32.6701 779.519 33.0801 779.909 33.4601C784.979 38.5301 792.069 38.0601 797.919 32.2201L811.649 18.4901C812.679 17.4601 812.679 15.7801 811.649 14.7401L784.449 -12.4599C783.419 -13.4899 781.739 -13.4899 780.699 -12.4599L766.549 1.69008C760.449 7.79008 759.979 15.2301 765.349 20.6001C766.529 21.8101 767.969 22.7501 769.549 23.3401V23.3501ZM787.099 21.8401C789.129 19.8101 791.909 19.2901 793.299 20.6901C794.689 22.0801 794.179 24.8601 792.149 26.8901C790.119 28.9201 787.339 29.4401 785.949 28.0401C784.559 26.6501 785.069 23.8701 787.099 21.8401Z" stroke="#B001B0" stroke-width="0.55" stroke-miterlimit="10"/>
<path d="M770.791 34.7001L768.921 34.2001C767.101 33.9001 765.24 34.0401 763.48 34.6001C763.97 32.3901 763.75 30.0801 762.83 28.0101C762.51 27.2001 762.05 26.4601 761.48 25.8001H761.51C761.18 25.3801 760.821 24.9701 760.431 24.5901C755.361 19.5201 748.27 19.9901 742.42 25.8301L728.69 39.5601C727.66 40.5901 727.66 42.2701 728.69 43.3101L755.89 70.5101C756.92 71.5401 758.6 71.5401 759.64 70.5101L773.791 56.3601C779.891 50.2601 780.36 42.8201 774.99 37.4501C773.81 36.2401 772.371 35.3001 770.791 34.7101V34.7001ZM753.25 36.2201C751.22 38.2501 748.44 38.7701 747.05 37.3701C745.66 35.9801 746.17 33.2001 748.2 31.1701C750.23 29.1401 753.01 28.6201 754.4 30.0201C755.79 31.4101 755.28 34.1901 753.25 36.2201Z" stroke="#B001B0" stroke-width="0.55" stroke-miterlimit="10"/>
<path d="M733.94 -12.2593L735.81 -11.7593C737.63 -11.4593 739.49 -11.5993 741.25 -12.1593C740.76 -9.9493 740.98 -7.6393 741.9 -5.5693C742.22 -4.7593 742.68 -4.0193 743.25 -3.3593H743.22C743.55 -2.9393 743.91 -2.5293 744.3 -2.1493C749.37 2.9207 756.46 2.4507 762.31 -3.3893L776.04 -17.1193C777.07 -18.1493 777.07 -19.8293 776.04 -20.8693L748.84 -48.0693C747.81 -49.0993 746.13 -49.0993 745.09 -48.0693L730.94 -33.9193C724.84 -27.8193 724.37 -20.3793 729.74 -15.0093C730.92 -13.7993 732.36 -12.8593 733.94 -12.2693V-12.2593ZM751.48 -13.7793C753.51 -15.8093 756.29 -16.3293 757.68 -14.9293C759.07 -13.5393 758.56 -10.7593 756.53 -8.7293C754.5 -6.6993 751.72 -6.1793 750.33 -7.5793C748.94 -8.9693 749.45 -11.7493 751.48 -13.7793Z" stroke="#B001B0" stroke-width="0.55" stroke-miterlimit="10"/>
<path d="M735.179 -0.909258L733.309 -1.40926C731.489 -1.70926 729.629 -1.56926 727.869 -1.00926C728.359 -3.21926 728.139 -5.52926 727.219 -7.59926C726.899 -8.40926 726.439 -9.14926 725.869 -9.80926H725.899C725.569 -10.2293 725.209 -10.6393 724.819 -11.0193C719.749 -16.0893 712.659 -15.6193 706.809 -9.77926L693.079 3.95074C692.049 4.98074 692.049 6.66074 693.079 7.70074L720.279 34.9007C721.309 35.9307 722.989 35.9307 724.029 34.9007L738.179 20.7507C744.279 14.6507 744.749 7.21074 739.379 1.84074C738.199 0.630742 736.759 -0.30926 735.179 -0.89926V-0.909258ZM717.629 0.610743C715.599 2.64074 712.819 3.16074 711.429 1.76074C710.039 0.37074 710.549 -2.40926 712.579 -4.43926C714.609 -6.46926 717.389 -6.98926 718.779 -5.58926C720.169 -4.19926 719.659 -1.41926 717.629 0.610743Z" stroke="#B001B0" stroke-width="0.55" stroke-miterlimit="10"/>
<path d="M699.56 -36.5304L697.69 -37.0304C695.87 -37.3304 694.01 -37.1904 692.25 -36.6304C692.74 -38.8404 692.52 -41.1504 691.6 -43.2204C691.28 -44.0304 690.82 -44.7704 690.25 -45.4304H690.28C689.95 -45.8504 689.59 -46.2604 689.2 -46.6404C684.13 -51.7104 677.04 -51.2404 671.19 -45.4004L657.46 -31.6704C656.43 -30.6404 656.43 -28.9604 657.46 -27.9204L684.66 -0.720352C685.69 0.309648 687.37 0.309648 688.41 -0.720352L702.56 -14.8704C708.66 -20.9704 709.13 -28.4104 703.76 -33.7804C702.58 -34.9904 701.14 -35.9304 699.56 -36.5204V-36.5304ZM682.02 -35.0104C679.99 -32.9804 677.21 -32.4604 675.82 -33.8604C674.43 -35.2604 674.94 -38.0304 676.97 -40.0604C679 -42.0904 681.78 -42.6104 683.17 -41.2104C684.56 -39.8204 684.05 -37.0404 682.02 -35.0104Z" stroke="#B001B0" stroke-width="0.55" stroke-miterlimit="10"/>
<path d="M971.36 106.461L973.23 106.961C975.05 107.261 976.91 107.121 978.67 106.561C978.18 108.771 978.4 111.081 979.32 113.151C979.64 113.961 980.1 114.701 980.67 115.361H980.64C980.97 115.781 981.33 116.191 981.72 116.571C986.79 121.641 993.88 121.171 999.73 115.331L1013.46 101.601C1014.49 100.571 1014.49 98.8914 1013.46 97.8514L986.26 70.6514C985.23 69.6214 983.55 69.6214 982.51 70.6514L968.36 84.8014C962.26 90.9014 961.79 98.3414 967.16 103.711C968.34 104.921 969.78 105.861 971.36 106.451V106.461ZM988.91 104.941C990.94 102.911 993.72 102.391 995.11 103.791C996.5 105.181 995.99 107.961 993.96 109.991C991.93 112.021 989.15 112.541 987.76 111.141C986.37 109.751 986.88 106.971 988.91 104.941Z" stroke="#B001B0" stroke-width="0.55" stroke-miterlimit="10"/>
<path d="M935.75 70.8403L937.62 71.3403C939.44 71.6403 941.3 71.5003 943.06 70.9403C942.57 73.1503 942.79 75.4603 943.71 77.5303C944.03 78.3403 944.49 79.0803 945.06 79.7403H945.03C945.36 80.1603 945.72 80.5703 946.11 80.9503C951.18 86.0203 958.27 85.5503 964.12 79.7103L977.85 65.9803C978.88 64.9503 978.88 63.2703 977.85 62.2303L950.65 35.0303C949.62 34.0003 947.94 34.0003 946.9 35.0303L932.75 49.1803C926.65 55.2803 926.18 62.7203 931.55 68.0903C932.73 69.3003 934.17 70.2403 935.75 70.8303V70.8403ZM953.29 69.3203C955.32 67.2903 958.1 66.7703 959.49 68.1703C960.88 69.5603 960.37 72.3403 958.34 74.3703C956.31 76.4003 953.53 76.9203 952.14 75.5203C950.75 74.1303 951.26 71.3503 953.29 69.3203Z" stroke="#B001B0" stroke-width="0.55" stroke-miterlimit="10"/>
<path d="M936.99 82.1904L935.12 81.6904C933.3 81.3904 931.44 81.5303 929.68 82.0903C930.17 79.8803 929.95 77.5704 929.03 75.5004C928.71 74.6904 928.25 73.9504 927.68 73.2904H927.71C927.38 72.8704 927.02 72.4604 926.63 72.0804C921.56 67.0104 914.47 67.4804 908.62 73.3204L894.89 87.0504C893.86 88.0804 893.86 89.7604 894.89 90.8004L922.09 118C923.12 119.03 924.8 119.03 925.84 118L939.99 103.85C946.09 97.7504 946.56 90.3104 941.19 84.9404C940.01 83.7304 938.57 82.7903 936.99 82.2003V82.1904ZM919.45 83.7104C917.42 85.7404 914.64 86.2604 913.25 84.8604C911.86 83.4704 912.37 80.6904 914.4 78.6604C916.43 76.6304 919.21 76.1104 920.6 77.5104C921.99 78.9004 921.48 81.6804 919.45 83.7104Z" stroke="#B001B0" stroke-width="0.55" stroke-miterlimit="10"/>
<path d="M900.131 35.2309L902.001 35.7309C903.821 36.0309 905.681 35.8909 907.441 35.3309C906.951 37.5409 907.171 39.8509 908.091 41.9209C908.411 42.7309 908.871 43.4709 909.441 44.1309H909.411C909.741 44.5509 910.101 44.9609 910.491 45.3409C915.561 50.4109 922.651 49.9409 928.501 44.1009L942.231 30.3709C943.261 29.3409 943.261 27.6609 942.231 26.6209L915.031 -0.579063C914.001 -1.60906 912.321 -1.60906 911.281 -0.579063L897.131 13.5709C891.031 19.6709 890.561 27.1109 895.931 32.4809C897.111 33.6909 898.551 34.6309 900.131 35.2209V35.2309ZM917.681 33.7109C919.711 31.6809 922.491 31.1609 923.881 32.5609C925.271 33.9509 924.761 36.7309 922.731 38.7609C920.701 40.7909 917.921 41.3109 916.531 39.9109C915.141 38.5209 915.651 35.7409 917.681 33.7109Z" stroke="#B001B0" stroke-width="0.55" stroke-miterlimit="10"/>
<path d="M901.38 46.579L899.51 46.079C897.69 45.779 895.83 45.919 894.07 46.479C894.56 44.269 894.34 41.959 893.42 39.889C893.1 39.079 892.64 38.339 892.07 37.679H892.1C891.77 37.259 891.41 36.849 891.02 36.469C885.95 31.399 878.86 31.869 873.01 37.709L859.28 51.439C858.25 52.469 858.25 54.149 859.28 55.189L886.48 82.389C887.51 83.419 889.19 83.419 890.23 82.389L904.38 68.239C910.48 62.139 910.95 54.699 905.58 49.329C904.4 48.119 902.96 47.179 901.38 46.589V46.579ZM883.83 48.099C881.8 50.129 879.02 50.649 877.63 49.249C876.24 47.859 876.75 45.079 878.78 43.049C880.81 41.019 883.59 40.499 884.98 41.899C886.37 43.299 885.86 46.069 883.83 48.099Z" stroke="#B001B0" stroke-width="0.55" stroke-miterlimit="10"/>
<path d="M864.52 -0.390156L866.39 0.109844C868.21 0.409844 870.07 0.269843 871.83 -0.290157C871.34 1.91984 871.56 4.22984 872.48 6.29984C872.8 7.10984 873.26 7.84984 873.83 8.50984H873.8C874.13 8.92984 874.49 9.33984 874.88 9.71984C879.95 14.7898 887.04 14.3198 892.89 8.47984L906.62 -5.25016C907.65 -6.28016 907.65 -7.96016 906.62 -9.00016L879.42 -36.2002C878.39 -37.2302 876.71 -37.2302 875.67 -36.2002L861.52 -22.0502C855.42 -15.9502 854.95 -8.51016 860.32 -3.14016C861.5 -1.93016 862.94 -0.990158 864.52 -0.400158V-0.390156ZM882.07 -1.91016C884.1 -3.94016 886.88 -4.46016 888.27 -3.06016C889.66 -1.67016 889.15 1.10984 887.12 3.13984C885.09 5.16984 882.31 5.68984 880.92 4.28984C879.53 2.89984 880.04 0.119844 882.07 -1.91016Z" stroke="#B001B0" stroke-width="0.55" stroke-miterlimit="10"/>
<path d="M865.759 10.9618L863.889 10.4618C862.069 10.1618 860.209 10.3018 858.449 10.8618C858.939 8.65184 858.719 6.34184 857.799 4.27184C857.479 3.46184 857.019 2.72184 856.449 2.06184H856.479C856.149 1.64184 855.789 1.23183 855.399 0.851835C850.329 -4.21817 843.239 -3.74816 837.389 2.09184L823.659 15.8218C822.629 16.8518 822.629 18.5318 823.659 19.5718L850.859 46.7718C851.889 47.8018 853.569 47.8018 854.609 46.7718L868.759 32.6218C874.859 26.5218 875.329 19.0818 869.959 13.7118C868.779 12.5018 867.339 11.5618 865.759 10.9718V10.9618ZM848.219 12.4818C846.189 14.5118 843.409 15.0318 842.019 13.6318C840.629 12.2418 841.139 9.46184 843.169 7.43184C845.199 5.40184 847.979 4.88184 849.369 6.28184C850.759 7.67184 850.249 10.4518 848.219 12.4818Z" stroke="#B001B0" stroke-width="0.55" stroke-miterlimit="10"/>
<path d="M830.15 -24.6495L828.28 -25.1495C826.46 -25.4495 824.6 -25.3095 822.84 -24.7495C823.33 -26.9595 823.11 -29.2695 822.19 -31.3395C821.87 -32.1495 821.41 -32.8895 820.84 -33.5495H820.87C820.54 -33.9695 820.18 -34.3795 819.79 -34.7595C814.72 -39.8295 807.63 -39.3595 801.78 -33.5195L788.05 -19.7895C787.02 -18.7595 787.02 -17.0795 788.05 -16.0395L815.25 11.1605C816.28 12.1905 817.96 12.1905 819 11.1605L833.15 -2.98949C839.25 -9.08949 839.72 -16.5295 834.35 -21.8995C833.17 -23.1095 831.73 -24.0495 830.15 -24.6395V-24.6495ZM812.6 -23.1295C810.57 -21.0995 807.79 -20.5795 806.4 -21.9795C805.01 -23.3695 805.52 -26.1495 807.55 -28.1795C809.58 -30.2095 812.36 -30.7295 813.75 -29.3295C815.14 -27.9395 814.63 -25.1595 812.6 -23.1295Z" stroke="#B001B0" stroke-width="0.55" stroke-miterlimit="10"/>
<path d="M1066.33 82.7114L1068.2 83.2114C1070.02 83.5114 1071.88 83.3714 1073.64 82.8114C1073.15 85.0214 1073.37 87.3314 1074.29 89.4014C1074.61 90.2114 1075.07 90.9514 1075.64 91.6114H1075.61C1075.94 92.0314 1076.3 92.4414 1076.69 92.8214C1081.76 97.8914 1088.85 97.4214 1094.7 91.5814L1108.43 77.8514C1109.46 76.8214 1109.46 75.1414 1108.43 74.1014L1081.23 46.9014C1080.2 45.8714 1078.52 45.8714 1077.48 46.9014L1063.33 61.0514C1057.23 67.1514 1056.76 74.5914 1062.13 79.9614C1063.31 81.1714 1064.75 82.1114 1066.33 82.7014V82.7114ZM1083.88 81.2014C1085.91 79.1714 1088.69 78.6514 1090.08 80.0514C1091.47 81.4414 1090.96 84.2214 1088.93 86.2514C1086.9 88.2814 1084.12 88.8014 1082.73 87.4014C1081.34 86.0114 1081.85 83.2314 1083.88 81.2014Z" stroke="#B001B0" stroke-width="0.55" stroke-miterlimit="10"/>
<path d="M1030.72 47.1001L1032.59 47.6001C1034.41 47.9001 1036.27 47.7601 1038.03 47.2001C1037.54 49.4101 1037.76 51.7201 1038.68 53.7901C1039 54.6001 1039.46 55.3401 1040.03 56.0001H1040C1040.33 56.4201 1040.69 56.8301 1041.08 57.2101C1046.15 62.2801 1053.24 61.8101 1059.09 55.9701L1072.82 42.2401C1073.85 41.2101 1073.85 39.5301 1072.82 38.4901L1045.62 11.2901C1044.59 10.2601 1042.91 10.2601 1041.87 11.2901L1027.72 25.4401C1021.62 31.5401 1021.15 38.9801 1026.52 44.3501C1027.7 45.5601 1029.14 46.5001 1030.72 47.0901V47.1001ZM1048.26 45.5801C1050.29 43.5501 1053.07 43.0301 1054.46 44.4301C1055.85 45.8201 1055.34 48.6001 1053.31 50.6301C1051.28 52.6601 1048.5 53.1801 1047.11 51.7801C1045.72 50.3901 1046.23 47.6101 1048.26 45.5801Z" stroke="#B001B0" stroke-width="0.55" stroke-miterlimit="10"/>
<path d="M1031.96 58.4501L1030.09 57.9501C1028.27 57.6501 1026.41 57.7901 1024.65 58.3501C1025.14 56.1401 1024.92 53.8301 1024 51.7601C1023.68 50.9501 1023.22 50.2101 1022.65 49.5501H1022.68C1022.35 49.1301 1021.99 48.7201 1021.6 48.3401C1016.53 43.2701 1009.44 43.7401 1003.59 49.5801L989.86 63.3101C988.83 64.3401 988.83 66.0201 989.86 67.0601L1017.06 94.2601C1018.09 95.2901 1019.77 95.2901 1020.81 94.2601L1034.96 80.1101C1041.06 74.0101 1041.53 66.5701 1036.16 61.2001C1034.98 59.9901 1033.54 59.0501 1031.96 58.4601V58.4501ZM1014.41 59.9701C1012.38 62.0001 1009.6 62.5201 1008.21 61.1201C1006.82 59.7301 1007.33 56.9501 1009.36 54.9201C1011.39 52.8901 1014.17 52.3701 1015.56 53.7701C1016.95 55.1601 1016.44 57.9401 1014.41 59.9701Z" stroke="#B001B0" stroke-width="0.55" stroke-miterlimit="10"/>
<path d="M995.1 11.4907L996.97 11.9907C998.79 12.2907 1000.65 12.1507 1002.41 11.5907C1001.92 13.8007 1002.14 16.1107 1003.06 18.1807C1003.38 18.9907 1003.84 19.7307 1004.41 20.3907H1004.38C1004.71 20.8107 1005.07 21.2207 1005.46 21.6007C1010.53 26.6707 1017.62 26.2007 1023.47 20.3607L1037.2 6.6307C1038.23 5.6007 1038.23 3.9207 1037.2 2.8807L1010 -24.3193C1008.97 -25.3493 1007.29 -25.3493 1006.25 -24.3193L992.1 -10.1693C986 -4.0693 985.53 3.3707 990.9 8.7407C992.08 9.9507 993.52 10.8907 995.1 11.4807V11.4907ZM1012.65 9.9707C1014.68 7.9407 1017.46 7.4207 1018.85 8.8207C1020.24 10.2207 1019.73 12.9907 1017.7 15.0207C1015.67 17.0507 1012.89 17.5707 1011.5 16.1707C1010.11 14.7707 1010.62 12.0007 1012.65 9.9707Z" stroke="#B001B0" stroke-width="0.55" stroke-miterlimit="10"/>
<path d="M996.349 22.8407L994.479 22.3407C992.659 22.0407 990.799 22.1807 989.039 22.7407C989.529 20.5307 989.309 18.2207 988.389 16.1507C988.069 15.3407 987.609 14.6007 987.039 13.9407H987.069C986.739 13.5207 986.379 13.1107 985.989 12.7307C980.919 7.66074 973.829 8.13074 967.979 13.9707L954.249 27.7007C953.219 28.7307 953.219 30.4107 954.249 31.4507L981.449 58.6507C982.479 59.6807 984.159 59.6807 985.199 58.6507L999.349 44.5007C1005.45 38.4007 1005.92 30.9607 1000.55 25.5907C999.369 24.3807 997.929 23.4407 996.349 22.8507V22.8407ZM978.799 24.3507C976.769 26.3807 973.989 26.9007 972.599 25.5007C971.209 24.1107 971.719 21.3307 973.749 19.3007C975.779 17.2707 978.559 16.7507 979.949 18.1507C981.339 19.5407 980.829 22.3207 978.799 24.3507Z" stroke="#B001B0" stroke-width="0.55" stroke-miterlimit="10"/>
<path d="M960.73 -12.7804L958.86 -13.2804C957.04 -13.5804 955.18 -13.4404 953.42 -12.8804C953.91 -15.0904 953.69 -17.4004 952.77 -19.4704C952.45 -20.2804 951.99 -21.0204 951.42 -21.6804H951.45C951.12 -22.1004 950.76 -22.5104 950.37 -22.8904C945.3 -27.9604 938.21 -27.4904 932.36 -21.6504L918.63 -7.92035C917.6 -6.89035 917.6 -5.21035 918.63 -4.17035L945.83 23.0296C946.86 24.0596 948.54 24.0596 949.58 23.0296L963.73 8.87965C969.83 2.77965 970.3 -4.66035 964.93 -10.0304C963.75 -11.2404 962.31 -12.1804 960.73 -12.7704V-12.7804ZM943.19 -11.2604C941.16 -9.23035 938.38 -8.71035 936.99 -10.1104C935.6 -11.5004 936.11 -14.2804 938.14 -16.3104C940.17 -18.3404 942.95 -18.8604 944.34 -17.4604C945.73 -16.0704 945.22 -13.2904 943.19 -11.2604Z" stroke="#B001B0" stroke-width="0.55" stroke-miterlimit="10"/>
<path d="M1161.3 58.9692L1163.17 59.4692C1164.99 59.7692 1166.85 59.6292 1168.61 59.0692C1168.12 61.2792 1168.34 63.5892 1169.26 65.6592C1169.58 66.4692 1170.04 67.2092 1170.61 67.8692H1170.58C1170.91 68.2892 1171.27 68.6992 1171.66 69.0792C1176.73 74.1492 1183.82 73.6792 1189.67 67.8392L1203.4 54.1092C1204.43 53.0792 1204.43 51.3992 1203.4 50.3592L1176.2 23.1592C1175.17 22.1292 1173.49 22.1292 1172.45 23.1592L1158.3 37.3092C1152.2 43.4092 1151.73 50.8492 1157.1 56.2192C1158.28 57.4292 1159.72 58.3692 1161.3 58.9592V58.9692ZM1178.85 57.4492C1180.88 55.4192 1183.66 54.8992 1185.05 56.2992C1186.44 57.6992 1185.93 60.4692 1183.9 62.4992C1181.87 64.5292 1179.09 65.0492 1177.7 63.6492C1176.31 62.2492 1176.82 59.4792 1178.85 57.4492Z" stroke="#B001B0" stroke-width="0.55" stroke-miterlimit="10"/>
<path d="M1162.54 70.3212L1160.67 69.8212C1158.85 69.5212 1156.99 69.6612 1155.23 70.2212C1155.72 68.0112 1155.5 65.7012 1154.58 63.6312C1154.26 62.8212 1153.8 62.0812 1153.23 61.4212H1153.26C1152.93 61.0012 1152.57 60.5912 1152.18 60.2112C1147.11 55.1412 1140.02 55.6112 1134.17 61.4512L1120.44 75.1812C1119.41 76.2112 1119.41 77.8912 1120.44 78.9312L1147.64 106.131C1148.67 107.161 1150.35 107.161 1151.39 106.131L1165.54 91.9812C1171.64 85.8812 1172.11 78.4412 1166.74 73.0712C1165.56 71.8612 1164.12 70.9212 1162.54 70.3312V70.3212ZM1145 71.8412C1142.97 73.8712 1140.19 74.3912 1138.8 72.9912C1137.41 71.6012 1137.92 68.8212 1139.95 66.7912C1141.98 64.7612 1144.76 64.2412 1146.15 65.6412C1147.54 67.0312 1147.03 69.8112 1145 71.8412Z" stroke="#B001B0" stroke-width="0.55" stroke-miterlimit="10"/>
<path d="M1125.69 23.3598L1127.56 23.8598C1129.38 24.1598 1131.24 24.0198 1133 23.4598C1132.51 25.6698 1132.73 27.9798 1133.65 30.0498C1133.97 30.8598 1134.43 31.5998 1135 32.2598H1134.97C1135.3 32.6798 1135.66 33.0898 1136.05 33.4698C1141.12 38.5398 1148.21 38.0698 1154.06 32.2298L1167.79 18.4998C1168.82 17.4698 1168.82 15.7898 1167.79 14.7498L1140.59 -12.4502C1139.56 -13.4802 1137.88 -13.4802 1136.84 -12.4502L1122.69 1.69985C1116.59 7.79985 1116.12 15.2398 1121.49 20.6098C1122.67 21.8198 1124.11 22.7598 1125.69 23.3498V23.3598ZM1143.23 21.8398C1145.26 19.8098 1148.04 19.2898 1149.43 20.6898C1150.82 22.0798 1150.31 24.8598 1148.28 26.8898C1146.25 28.9198 1143.47 29.4398 1142.08 28.0398C1140.69 26.6498 1141.2 23.8698 1143.23 21.8398Z" stroke="#B001B0" stroke-width="0.55" stroke-miterlimit="10"/>
<path d="M1126.93 34.7118L1125.06 34.2118C1123.24 33.9118 1121.38 34.0518 1119.62 34.6118C1120.11 32.4018 1119.89 30.0918 1118.97 28.0218C1118.65 27.2118 1118.19 26.4718 1117.62 25.8118H1117.65C1117.32 25.3918 1116.96 24.9818 1116.57 24.6018C1111.5 19.5318 1104.41 20.0018 1098.56 25.8418L1084.83 39.5718C1083.8 40.6018 1083.8 42.2818 1084.83 43.3218L1112.03 70.5218C1113.06 71.5518 1114.74 71.5518 1115.78 70.5218L1129.93 56.3718C1136.03 50.2718 1136.5 42.8318 1131.13 37.4618C1129.95 36.2518 1128.51 35.3118 1126.93 34.7218V34.7118ZM1109.38 36.2318C1107.35 38.2618 1104.57 38.7818 1103.18 37.3818C1101.79 35.9918 1102.3 33.2118 1104.33 31.1818C1106.36 29.1518 1109.14 28.6318 1110.53 30.0318C1111.92 31.4218 1111.41 34.2018 1109.38 36.2318Z" stroke="#B001B0" stroke-width="0.55" stroke-miterlimit="10"/>
<path d="M1090.07 -12.2495L1091.94 -11.7495C1093.76 -11.4495 1095.62 -11.5895 1097.38 -12.1495C1096.89 -9.93953 1097.11 -7.62953 1098.03 -5.55953C1098.35 -4.74953 1098.81 -4.00953 1099.38 -3.34953H1099.35C1099.68 -2.92953 1100.04 -2.51953 1100.43 -2.13953C1105.5 2.93047 1112.59 2.46047 1118.44 -3.37953L1132.17 -17.1095C1133.2 -18.1395 1133.2 -19.8195 1132.17 -20.8595L1104.97 -48.0595C1103.94 -49.0895 1102.26 -49.0895 1101.22 -48.0595L1087.07 -33.9095C1080.97 -27.8095 1080.5 -20.3695 1085.87 -14.9995C1087.05 -13.7895 1088.49 -12.8495 1090.07 -12.2595V-12.2495ZM1107.62 -13.7695C1109.65 -15.7995 1112.43 -16.3195 1113.82 -14.9195C1115.21 -13.5295 1114.7 -10.7495 1112.67 -8.71953C1110.64 -6.68953 1107.86 -6.16953 1106.47 -7.56953C1105.08 -8.95953 1105.59 -11.7395 1107.62 -13.7695Z" stroke="#B001B0" stroke-width="0.55" stroke-miterlimit="10"/>
<path d="M1091.32 -0.909258L1089.45 -1.40926C1087.63 -1.70926 1085.77 -1.56926 1084.01 -1.00926C1084.5 -3.21926 1084.28 -5.52926 1083.36 -7.59926C1083.04 -8.40926 1082.58 -9.14926 1082.01 -9.80926H1082.04C1081.71 -10.2293 1081.35 -10.6393 1080.96 -11.0193C1075.89 -16.0893 1068.8 -15.6193 1062.95 -9.77926L1049.22 3.95074C1048.19 4.98074 1048.19 6.66074 1049.22 7.70074L1076.42 34.9007C1077.45 35.9307 1079.13 35.9307 1080.17 34.9007L1094.32 20.7507C1100.42 14.6507 1100.89 7.21074 1095.52 1.84074C1094.34 0.630742 1092.9 -0.30926 1091.32 -0.89926V-0.909258ZM1073.77 0.610743C1071.74 2.64074 1068.96 3.16074 1067.57 1.76074C1066.18 0.37074 1066.69 -2.40926 1068.72 -4.43926C1070.75 -6.46926 1073.53 -6.98926 1074.92 -5.58926C1076.31 -4.19926 1075.8 -1.41926 1073.77 0.610743Z" stroke="#B001B0" stroke-width="0.55" stroke-miterlimit="10"/>
<path d="M1055.7 -36.5186L1053.83 -37.0186C1052.01 -37.3186 1050.15 -37.1786 1048.39 -36.6186C1048.88 -38.8286 1048.66 -41.1386 1047.74 -43.2086C1047.42 -44.0186 1046.96 -44.7586 1046.39 -45.4186H1046.42C1046.09 -45.8386 1045.73 -46.2486 1045.34 -46.6286C1040.27 -51.6986 1033.18 -51.2286 1027.33 -45.3886L1013.6 -31.6586C1012.57 -30.6286 1012.57 -28.9486 1013.6 -27.9086L1040.8 -0.708633C1041.83 0.321367 1043.51 0.321367 1044.55 -0.708633L1058.7 -14.8586C1064.8 -20.9586 1065.27 -28.3986 1059.9 -33.7686C1058.72 -34.9786 1057.28 -35.9186 1055.7 -36.5086V-36.5186ZM1038.16 -34.9986C1036.13 -32.9686 1033.35 -32.4486 1031.96 -33.8486C1030.57 -35.2386 1031.08 -38.0186 1033.11 -40.0486C1035.14 -42.0786 1037.92 -42.5986 1039.31 -41.1986C1040.7 -39.7986 1040.19 -37.0286 1038.16 -34.9986Z" stroke="#B001B0" stroke-width="0.55" stroke-miterlimit="10"/>
<path d="M1220.66 -0.378441L1222.53 0.121559C1224.35 0.421559 1226.21 0.281561 1227.97 -0.278439C1227.48 1.93156 1227.7 4.24156 1228.62 6.31156C1228.94 7.12156 1229.4 7.86156 1229.97 8.52156H1229.94C1230.27 8.94156 1230.63 9.35156 1231.02 9.73156C1236.09 14.8016 1243.18 14.3316 1249.03 8.49156L1262.76 -5.23844C1263.79 -6.26844 1263.79 -7.94844 1262.76 -8.98844L1235.56 -36.1884C1234.53 -37.2184 1232.85 -37.2184 1231.81 -36.1884L1217.66 -22.0384C1211.56 -15.9384 1211.09 -8.49844 1216.46 -3.12844C1217.64 -1.91844 1219.08 -0.978439 1220.66 -0.388439V-0.378441ZM1238.2 -1.89844C1240.23 -3.92844 1243.01 -4.44844 1244.4 -3.04844C1245.79 -1.64844 1245.28 1.12156 1243.25 3.15156C1241.22 5.18156 1238.44 5.70156 1237.05 4.30156C1235.66 2.91156 1236.17 0.131559 1238.2 -1.89844Z" stroke="#B001B0" stroke-width="0.55" stroke-miterlimit="10"/>
<path d="M1221.9 10.9696L1220.03 10.4696C1218.21 10.1696 1216.35 10.3096 1214.59 10.8696C1215.08 8.65965 1214.86 6.34965 1213.94 4.27965C1213.62 3.46965 1213.16 2.72965 1212.59 2.06965H1212.62C1212.29 1.64965 1211.93 1.23965 1211.54 0.859649C1206.47 -4.21035 1199.38 -3.74035 1193.53 2.09965L1179.8 15.8297C1178.77 16.8597 1178.77 18.5397 1179.8 19.5797L1207 46.7796C1208.03 47.8096 1209.71 47.8096 1210.75 46.7796L1224.9 32.6296C1231 26.5296 1231.47 19.0897 1226.1 13.7197C1224.92 12.5097 1223.48 11.5696 1221.9 10.9796V10.9696ZM1204.35 12.4896C1202.32 14.5196 1199.54 15.0396 1198.15 13.6396C1196.76 12.2396 1197.27 9.46965 1199.3 7.43965C1201.33 5.40965 1204.11 4.88965 1205.5 6.28965C1206.89 7.67965 1206.38 10.4596 1204.35 12.4896Z" stroke="#B001B0" stroke-width="0.55" stroke-miterlimit="10"/>
<path d="M1186.28 -24.6495L1184.41 -25.1495C1182.59 -25.4495 1180.73 -25.3095 1178.97 -24.7495C1179.46 -26.9595 1179.24 -29.2695 1178.32 -31.3395C1178 -32.1495 1177.54 -32.8895 1176.97 -33.5495H1177C1176.67 -33.9695 1176.31 -34.3795 1175.92 -34.7595C1170.85 -39.8295 1163.76 -39.3595 1157.91 -33.5195L1144.18 -19.7895C1143.15 -18.7595 1143.15 -17.0795 1144.18 -16.0395L1171.38 11.1605C1172.41 12.1905 1174.09 12.1905 1175.13 11.1605L1189.28 -2.98949C1195.38 -9.08949 1195.85 -16.5295 1190.48 -21.8995C1189.3 -23.1095 1187.86 -24.0495 1186.28 -24.6395V-24.6495ZM1168.74 -23.1295C1166.71 -21.0995 1163.93 -20.5795 1162.54 -21.9795C1161.15 -23.3695 1161.66 -26.1495 1163.69 -28.1795C1165.72 -30.2095 1168.5 -30.7295 1169.89 -29.3295C1171.28 -27.9395 1170.77 -25.1595 1168.74 -23.1295Z" stroke="#B001B0" stroke-width="0.55" stroke-miterlimit="10"/>
<path d="M1196.68 94.3501L1198.55 94.8501C1200.37 95.1501 1202.23 95.0101 1203.99 94.4501C1203.5 96.6601 1203.72 98.9701 1204.64 101.04C1204.96 101.85 1205.42 102.59 1205.99 103.25H1205.96C1206.29 103.67 1206.65 104.08 1207.04 104.46C1212.11 109.53 1219.2 109.06 1225.05 103.22L1238.78 89.4901C1239.81 88.4601 1239.81 86.7801 1238.78 85.7401L1211.58 58.5401C1210.55 57.5101 1208.87 57.5101 1207.83 58.5401L1193.68 72.6901C1187.58 78.7901 1187.11 86.2301 1192.48 91.6001C1193.66 92.8101 1195.1 93.7501 1196.68 94.3401V94.3501ZM1214.23 92.8301C1216.26 90.8001 1219.04 90.2801 1220.43 91.6801C1221.82 93.0701 1221.31 95.8501 1219.28 97.8801C1217.25 99.9101 1214.47 100.43 1213.08 99.0301C1211.69 97.6401 1212.2 94.8601 1214.23 92.8301Z" stroke="#B001B0" stroke-width="0.55" stroke-miterlimit="10"/>
<path d="M1291.65 70.6098L1293.52 71.1098C1295.34 71.4098 1297.2 71.2698 1298.96 70.7098C1298.47 72.9198 1298.69 75.2298 1299.61 77.2998C1299.93 78.1098 1300.39 78.8498 1300.96 79.5098H1300.93C1301.26 79.9298 1301.62 80.3398 1302.01 80.7198C1307.08 85.7898 1314.17 85.3198 1320.02 79.4798L1333.75 65.7498C1334.78 64.7198 1334.78 63.0398 1333.75 61.9998L1306.55 34.7998C1305.52 33.7698 1303.84 33.7698 1302.8 34.7998L1288.65 48.9498C1282.55 55.0498 1282.08 62.4898 1287.45 67.8598C1288.63 69.0698 1290.07 70.0098 1291.65 70.5998V70.6098ZM1309.2 69.0898C1311.23 67.0598 1314.01 66.5398 1315.4 67.9398C1316.79 69.3398 1316.28 72.1098 1314.25 74.1398C1312.22 76.1698 1309.44 76.6898 1308.05 75.2898C1306.66 73.8998 1307.17 71.1198 1309.2 69.0898Z" stroke="#B001B0" stroke-width="0.55" stroke-miterlimit="10"/>
<path d="M1292.89 81.9618L1291.02 81.4618C1289.2 81.1618 1287.34 81.3018 1285.58 81.8618C1286.07 79.6518 1285.85 77.3418 1284.93 75.2718C1284.61 74.4618 1284.15 73.7218 1283.58 73.0618H1283.61C1283.28 72.6418 1282.92 72.2318 1282.53 71.8518C1277.46 66.7818 1270.37 67.2518 1264.52 73.0918L1250.79 86.8218C1249.76 87.8518 1249.76 89.5318 1250.79 90.5718L1277.99 117.772C1279.02 118.802 1280.7 118.802 1281.74 117.772L1295.89 103.622C1301.99 97.5218 1302.46 90.0818 1297.09 84.7118C1295.91 83.5018 1294.47 82.5618 1292.89 81.9718V81.9618ZM1275.35 83.4818C1273.32 85.5118 1270.54 86.0318 1269.15 84.6318C1267.76 83.2318 1268.27 80.4618 1270.3 78.4318C1272.33 76.4018 1275.11 75.8818 1276.5 77.2818C1277.89 78.6718 1277.38 81.4518 1275.35 83.4818Z" stroke="#B001B0" stroke-width="0.55" stroke-miterlimit="10"/>
<path d="M1256.04 35.0005L1257.91 35.5005C1259.73 35.8005 1261.59 35.6605 1263.35 35.1005C1262.86 37.3105 1263.08 39.6205 1264 41.6905C1264.32 42.5005 1264.78 43.2405 1265.35 43.9005H1265.32C1265.65 44.3205 1266.01 44.7305 1266.4 45.1105C1271.47 50.1805 1278.56 49.7105 1284.41 43.8705L1298.14 30.1405C1299.17 29.1105 1299.17 27.4305 1298.14 26.3905L1270.94 -0.809531C1269.91 -1.83953 1268.23 -1.83953 1267.19 -0.809531L1253.04 13.3405C1246.94 19.4405 1246.47 26.8805 1251.84 32.2505C1253.02 33.4605 1254.46 34.4005 1256.04 34.9905V35.0005ZM1273.58 33.4805C1275.61 31.4505 1278.39 30.9305 1279.78 32.3305C1281.17 33.7205 1280.66 36.5005 1278.63 38.5305C1276.6 40.5605 1273.82 41.0805 1272.43 39.6805C1271.04 38.2905 1271.55 35.5105 1273.58 33.4805Z" stroke="#B001B0" stroke-width="0.55" stroke-miterlimit="10"/>
<path d="M1257.28 46.3505L1255.41 45.8505C1253.59 45.5505 1251.73 45.6905 1249.97 46.2505C1250.46 44.0405 1250.24 41.7305 1249.32 39.6605C1249 38.8505 1248.54 38.1105 1247.97 37.4505H1248C1247.67 37.0305 1247.31 36.6205 1246.92 36.2405C1241.85 31.1705 1234.76 31.6405 1228.91 37.4805L1215.18 51.2105C1214.15 52.2405 1214.15 53.9205 1215.18 54.9605L1242.38 82.1605C1243.41 83.1905 1245.09 83.1905 1246.13 82.1605L1260.28 68.0105C1266.38 61.9105 1266.85 54.4705 1261.48 49.1005C1260.3 47.8905 1258.86 46.9505 1257.28 46.3605V46.3505ZM1239.73 47.8705C1237.7 49.9005 1234.92 50.4205 1233.53 49.0205C1232.14 47.6305 1232.65 44.8505 1234.68 42.8205C1236.71 40.7905 1239.49 40.2705 1240.88 41.6705C1242.27 43.0605 1241.76 45.8405 1239.73 47.8705Z" stroke="#B001B0" stroke-width="0.55" stroke-miterlimit="10"/>
<path d="M1351.01 11.2602L1352.88 11.7602C1354.7 12.0602 1356.56 11.9202 1358.32 11.3602C1357.83 13.5702 1358.05 15.8802 1358.97 17.9502C1359.29 18.7602 1359.75 19.5002 1360.32 20.1602H1360.29C1360.62 20.5802 1360.98 20.9902 1361.37 21.3702C1366.44 26.4402 1373.53 25.9702 1379.38 20.1302L1393.11 6.40023C1394.14 5.37023 1394.14 3.69023 1393.11 2.65023L1365.91 -24.5498C1364.88 -25.5798 1363.2 -25.5798 1362.16 -24.5498L1348.01 -10.3998C1341.91 -4.29977 1341.44 3.14023 1346.81 8.51023C1347.99 9.72023 1349.43 10.6602 1351.01 11.2502V11.2602ZM1368.55 9.74023C1370.58 7.71023 1373.36 7.19023 1374.75 8.59023C1376.14 9.98023 1375.63 12.7602 1373.6 14.7902C1371.57 16.8202 1368.79 17.3402 1367.4 15.9402C1366.01 14.5402 1366.52 11.7702 1368.55 9.74023Z" stroke="#B001B0" stroke-width="0.55" stroke-miterlimit="10"/>
<path d="M1352.25 22.6103L1350.38 22.1103C1348.56 21.8103 1346.7 21.9503 1344.94 22.5103C1345.43 20.3003 1345.21 17.9903 1344.29 15.9203C1343.97 15.1103 1343.51 14.3703 1342.94 13.7103H1342.97C1342.64 13.2903 1342.28 12.8803 1341.89 12.5003C1336.82 7.43027 1329.73 7.90027 1323.88 13.7403L1310.15 27.4703C1309.12 28.5003 1309.12 30.1803 1310.15 31.2203L1337.35 58.4203C1338.38 59.4503 1340.06 59.4503 1341.1 58.4203L1355.25 44.2703C1361.35 38.1703 1361.82 30.7303 1356.45 25.3603C1355.27 24.1503 1353.83 23.2103 1352.25 22.6203V22.6103ZM1334.7 24.1203C1332.67 26.1503 1329.89 26.6703 1328.5 25.2703C1327.11 23.8803 1327.62 21.1003 1329.65 19.0703C1331.68 17.0403 1334.46 16.5203 1335.85 17.9203C1337.24 19.3103 1336.73 22.0903 1334.7 24.1203Z" stroke="#B001B0" stroke-width="0.55" stroke-miterlimit="10"/>
<path d="M1316.63 -13.0108L1314.76 -13.5108C1312.94 -13.8108 1311.08 -13.6708 1309.32 -13.1108C1309.81 -15.3208 1309.59 -17.6308 1308.67 -19.7008C1308.35 -20.5108 1307.89 -21.2508 1307.32 -21.9108H1307.35C1307.02 -22.3308 1306.66 -22.7408 1306.27 -23.1208C1301.2 -28.1908 1294.11 -27.7208 1288.26 -21.8808L1274.53 -8.15082C1273.5 -7.12082 1273.5 -5.44082 1274.53 -4.40082L1301.73 22.7992C1302.76 23.8292 1304.44 23.8292 1305.48 22.7992L1319.63 8.64918C1325.73 2.54918 1326.2 -4.89082 1320.83 -10.2608C1319.65 -11.4708 1318.21 -12.4108 1316.63 -13.0008V-13.0108ZM1299.09 -11.4908C1297.06 -9.46082 1294.28 -8.94082 1292.89 -10.3408C1291.5 -11.7308 1292.01 -14.5108 1294.04 -16.5408C1296.07 -18.5708 1298.85 -19.0908 1300.24 -17.6908C1301.63 -16.3008 1301.12 -13.5208 1299.09 -11.4908Z" stroke="#B001B0" stroke-width="0.55" stroke-miterlimit="10"/>
<path d="M1327.03 105.991L1328.9 106.491C1330.72 106.791 1332.58 106.651 1334.34 106.091C1333.85 108.301 1334.07 110.611 1334.99 112.681C1335.31 113.491 1335.77 114.231 1336.34 114.891H1336.31C1336.64 115.311 1337 115.721 1337.39 116.101C1342.46 121.171 1349.55 120.701 1355.4 114.861L1369.13 101.131C1370.16 100.101 1370.16 98.4207 1369.13 97.3807L1341.93 70.1807C1340.9 69.1507 1339.22 69.1507 1338.18 70.1807L1324.03 84.3307C1317.93 90.4307 1317.46 97.8707 1322.83 103.241C1324.01 104.451 1325.45 105.391 1327.03 105.981V105.991ZM1344.58 104.471C1346.61 102.441 1349.39 101.921 1350.78 103.321C1352.17 104.711 1351.66 107.491 1349.63 109.521C1347.6 111.551 1344.82 112.071 1343.43 110.671C1342.04 109.281 1342.55 106.501 1344.58 104.471Z" stroke="#B001B0" stroke-width="0.55" stroke-miterlimit="10"/>
<path d="M1422 82.2505L1423.87 82.7505C1425.69 83.0505 1427.55 82.9105 1429.31 82.3505C1428.82 84.5605 1429.04 86.8705 1429.96 88.9405C1430.28 89.7505 1430.74 90.4905 1431.31 91.1505H1431.28C1431.61 91.5705 1431.97 91.9805 1432.36 92.3605C1437.43 97.4305 1444.52 96.9605 1450.37 91.1205L1464.1 77.3905C1465.13 76.3605 1465.13 74.6805 1464.1 73.6405L1436.9 46.4405C1435.87 45.4105 1434.19 45.4105 1433.15 46.4405L1419 60.5905C1412.9 66.6905 1412.43 74.1305 1417.8 79.5005C1418.98 80.7105 1420.42 81.6505 1422 82.2405V82.2505ZM1439.54 80.7305C1441.57 78.7005 1444.35 78.1805 1445.74 79.5805C1447.13 80.9705 1446.62 83.7505 1444.59 85.7805C1442.56 87.8105 1439.78 88.3305 1438.39 86.9305C1437 85.5305 1437.51 82.7605 1439.54 80.7305Z" stroke="#B001B0" stroke-width="0.55" stroke-miterlimit="10"/>
<path d="M1386.39 46.6411L1388.26 47.1411C1390.08 47.4411 1391.94 47.3011 1393.7 46.7411C1393.21 48.9511 1393.43 51.2611 1394.35 53.3311C1394.67 54.1411 1395.13 54.8811 1395.7 55.5411H1395.67C1396 55.9611 1396.36 56.3711 1396.75 56.7511C1401.82 61.8211 1408.91 61.3511 1414.76 55.5111L1428.49 41.7811C1429.52 40.7511 1429.52 39.0711 1428.49 38.0311L1401.29 10.8311C1400.26 9.80109 1398.58 9.80109 1397.54 10.8311L1383.39 24.9811C1377.29 31.0811 1376.82 38.5211 1382.19 43.8911C1383.37 45.1011 1384.81 46.0411 1386.39 46.6311V46.6411ZM1403.93 45.1211C1405.96 43.0911 1408.74 42.5711 1410.13 43.9711C1411.52 45.3611 1411.01 48.1411 1408.98 50.1711C1406.95 52.2011 1404.17 52.7211 1402.78 51.3211C1401.39 49.9311 1401.9 47.1511 1403.93 45.1211Z" stroke="#B001B0" stroke-width="0.55" stroke-miterlimit="10"/>
<path d="M1387.63 57.9814L1385.76 57.4814C1383.94 57.1814 1382.08 57.3214 1380.32 57.8814C1380.81 55.6714 1380.59 53.3614 1379.67 51.2914C1379.35 50.4814 1378.89 49.7414 1378.32 49.0814H1378.35C1378.02 48.6614 1377.66 48.2514 1377.27 47.8714C1372.2 42.8014 1365.11 43.2714 1359.26 49.1114L1345.53 62.8414C1344.5 63.8714 1344.5 65.5514 1345.53 66.5914L1372.73 93.7914C1373.76 94.8214 1375.44 94.8214 1376.48 93.7914L1390.63 79.6414C1396.73 73.5414 1397.2 66.1014 1391.83 60.7314C1390.65 59.5214 1389.21 58.5814 1387.63 57.9914V57.9814ZM1370.08 59.5014C1368.05 61.5314 1365.27 62.0514 1363.88 60.6514C1362.49 59.2614 1363 56.4814 1365.03 54.4514C1367.06 52.4214 1369.84 51.9014 1371.23 53.3014C1372.62 54.6914 1372.11 57.4714 1370.08 59.5014Z" stroke="#B001B0" stroke-width="0.55" stroke-miterlimit="10"/>
<path d="M1483.28 33.5595L1481.41 33.0595C1479.59 32.7595 1477.73 32.8995 1475.97 33.4595C1476.46 31.2495 1476.24 28.9395 1475.32 26.8695C1475 26.0595 1474.54 25.3195 1473.97 24.6595H1474C1473.67 24.2395 1473.31 23.8295 1472.92 23.4495C1467.85 18.3795 1460.76 18.8495 1454.91 24.6895L1441.18 38.4195C1440.15 39.4495 1440.15 41.1295 1441.18 42.1695L1468.38 69.3695C1469.41 70.3995 1471.09 70.3995 1472.13 69.3695L1486.28 55.2195C1492.38 49.1195 1492.85 41.6795 1487.48 36.3095C1486.3 35.0995 1484.86 34.1595 1483.28 33.5695V33.5595ZM1465.74 35.0695C1463.71 37.0995 1460.93 37.6195 1459.54 36.2195C1458.15 34.8295 1458.66 32.0495 1460.69 30.0195C1462.72 27.9895 1465.5 27.4695 1466.89 28.8695C1468.28 30.2595 1467.77 33.0395 1465.74 35.0695Z" stroke="#B001B0" stroke-width="0.55" stroke-miterlimit="10"/>
<path d="M1446.43 -13.4097L1448.3 -12.9097C1450.12 -12.6097 1451.98 -12.7497 1453.74 -13.3097C1453.25 -11.0997 1453.47 -8.78969 1454.39 -6.71969C1454.71 -5.90969 1455.17 -5.16969 1455.74 -4.50969H1455.71C1456.04 -4.08969 1456.4 -3.67969 1456.79 -3.29969C1461.86 1.77031 1468.95 1.30031 1474.8 -4.53969L1488.53 -18.2697C1489.56 -19.2997 1489.56 -20.9797 1488.53 -22.0197L1461.33 -49.2197C1460.3 -50.2497 1458.62 -50.2497 1457.58 -49.2197L1443.43 -35.0697C1437.33 -28.9697 1436.86 -21.5297 1442.23 -16.1597C1443.41 -14.9497 1444.85 -14.0097 1446.43 -13.4197V-13.4097ZM1463.97 -14.9297C1466 -16.9597 1468.78 -17.4797 1470.17 -16.0797C1471.56 -14.6797 1471.05 -11.9097 1469.02 -9.87969C1466.99 -7.84969 1464.21 -7.32969 1462.82 -8.72969C1461.43 -10.1197 1461.94 -12.8997 1463.97 -14.9297Z" stroke="#B001B0" stroke-width="0.55" stroke-miterlimit="10"/>
<path d="M1447.67 -2.05965L1445.8 -2.55965C1443.98 -2.85965 1442.12 -2.71965 1440.36 -2.15965C1440.85 -4.36965 1440.63 -6.67965 1439.71 -8.74965C1439.39 -9.55965 1438.93 -10.2996 1438.36 -10.9596H1438.39C1438.06 -11.3796 1437.7 -11.7896 1437.31 -12.1696C1432.24 -17.2396 1425.15 -16.7696 1419.3 -10.9296L1405.57 2.80035C1404.54 3.83035 1404.54 5.51035 1405.57 6.55035L1432.77 33.7504C1433.8 34.7804 1435.48 34.7804 1436.52 33.7504L1450.67 19.6003C1456.77 13.5003 1457.24 6.06035 1451.87 0.69035C1450.69 -0.51965 1449.25 -1.45965 1447.67 -2.04965V-2.05965ZM1430.13 -0.539651C1428.1 1.49035 1425.32 2.01035 1423.93 0.610352C1422.54 -0.789648 1423.05 -3.55965 1425.08 -5.58965C1427.11 -7.61965 1429.89 -8.13965 1431.28 -6.73965C1432.67 -5.33965 1432.16 -2.56965 1430.13 -0.539651Z" stroke="#B001B0" stroke-width="0.55" stroke-miterlimit="10"/>
<path d="M258.36 107.18L260.23 107.68C262.05 107.98 263.91 107.84 265.67 107.28C265.18 109.49 265.4 111.8 266.32 113.87C266.64 114.68 267.1 115.42 267.67 116.08H267.64C267.97 116.5 268.33 116.91 268.72 117.29C273.79 122.36 280.88 121.89 286.73 116.05L300.46 102.32C301.49 101.29 301.49 99.6102 300.46 98.5702L273.26 71.3702C272.23 70.3402 270.55 70.3402 269.51 71.3702L255.36 85.5202C249.26 91.6202 248.79 99.0601 254.16 104.43C255.34 105.64 256.78 106.58 258.36 107.17V107.18ZM275.9 105.66C277.93 103.63 280.71 103.11 282.1 104.51C283.49 105.9 282.98 108.68 280.95 110.71C278.92 112.74 276.14 113.26 274.75 111.86C273.36 110.47 273.87 107.69 275.9 105.66Z" stroke="#B001B0" stroke-width="0.55" stroke-miterlimit="10"/>
<path d="M222.74 71.5591L224.61 72.0591C226.43 72.3591 228.29 72.2191 230.05 71.6591C229.56 73.8691 229.78 76.1791 230.7 78.2491C231.02 79.0591 231.48 79.7991 232.05 80.4591H232.02C232.35 80.8791 232.71 81.2891 233.1 81.6691C238.17 86.7391 245.26 86.2691 251.11 80.4291L264.84 66.6991C265.87 65.6691 265.87 63.9891 264.84 62.9491L237.64 35.7491C236.61 34.7191 234.93 34.7191 233.89 35.7491L219.74 49.8991C213.64 55.9991 213.17 63.4391 218.54 68.8091C219.72 70.0191 221.16 70.9591 222.74 71.5491V71.5591ZM240.29 70.0391C242.32 68.0091 245.1 67.4891 246.49 68.8891C247.88 70.2791 247.37 73.0591 245.34 75.0891C243.31 77.1191 240.53 77.6391 239.14 76.2391C237.75 74.8491 238.26 72.0691 240.29 70.0391Z" stroke="#B001B0" stroke-width="0.55" stroke-miterlimit="10"/>
<path d="M223.98 82.9111L222.11 82.4111C220.29 82.1111 218.43 82.251 216.67 82.811C217.16 80.601 216.94 78.2911 216.02 76.2211C215.7 75.4111 215.24 74.6711 214.67 74.0111H214.7C214.37 73.5911 214.01 73.1811 213.62 72.8011C208.55 67.7311 201.46 68.2011 195.61 74.0411L181.88 87.7711C180.85 88.8011 180.85 90.4811 181.88 91.5211L209.08 118.721C210.11 119.751 211.79 119.751 212.83 118.721L226.98 104.571C233.08 98.4711 233.55 91.0311 228.18 85.6611C227 84.4511 225.56 83.5111 223.98 82.9211V82.9111ZM206.44 84.431C204.41 86.461 201.63 86.9811 200.24 85.5811C198.85 84.1911 199.36 81.411 201.39 79.381C203.42 77.351 206.2 76.8311 207.59 78.2311C208.98 79.6211 208.47 82.401 206.44 84.431Z" stroke="#B001B0" stroke-width="0.55" stroke-miterlimit="10"/>
<path d="M187.129 35.9497L188.999 36.4497C190.819 36.7497 192.679 36.6097 194.439 36.0497C193.949 38.2597 194.169 40.5697 195.089 42.6397C195.409 43.4497 195.869 44.1897 196.439 44.8497H196.409C196.739 45.2697 197.099 45.6797 197.489 46.0597C202.559 51.1297 209.649 50.6597 215.499 44.8197L229.229 31.0897C230.259 30.0597 230.259 28.3797 229.229 27.3397L202.029 0.139687C200.999 -0.890312 199.319 -0.890312 198.279 0.139687L184.129 14.2897C178.029 20.3897 177.559 27.8297 182.929 33.1997C184.109 34.4097 185.549 35.3497 187.129 35.9397V35.9497ZM204.669 34.4297C206.699 32.3997 209.479 31.8797 210.869 33.2797C212.259 34.6697 211.749 37.4497 209.719 39.4797C207.689 41.5097 204.909 42.0297 203.519 40.6297C202.129 39.2397 202.639 36.4597 204.669 34.4297Z" stroke="#B001B0" stroke-width="0.55" stroke-miterlimit="10"/>
<path d="M188.371 47.3017L186.501 46.8017C184.681 46.5017 182.821 46.6417 181.061 47.2017C181.551 44.9917 181.331 42.6817 180.411 40.6117C180.091 39.8017 179.631 39.0617 179.061 38.4017H179.091C178.761 37.9817 178.401 37.5717 178.011 37.1917C172.941 32.1217 165.851 32.5917 160.001 38.4317L146.271 52.1617C145.241 53.1917 145.241 54.8717 146.271 55.9117L173.471 83.1117C174.501 84.1417 176.181 84.1417 177.221 83.1117L191.371 68.9617C197.471 62.8617 197.941 55.4217 192.571 50.0517C191.391 48.8417 189.951 47.9017 188.371 47.3117V47.3017ZM170.821 48.8217C168.791 50.8517 166.011 51.3717 164.621 49.9717C163.231 48.5817 163.741 45.8017 165.771 43.7717C167.801 41.7417 170.581 41.2217 171.971 42.6217C173.361 44.0217 172.851 46.7917 170.821 48.8217Z" stroke="#B001B0" stroke-width="0.55" stroke-miterlimit="10"/>
<path d="M151.51 0.330547L153.38 0.830547C155.2 1.13055 157.06 0.990546 158.82 0.430546C158.33 2.64055 158.55 4.95055 159.47 7.02055C159.79 7.83055 160.25 8.57055 160.82 9.23055H160.79C161.12 9.65055 161.48 10.0605 161.87 10.4405C166.94 15.5105 174.03 15.0405 179.88 9.20055L193.61 -4.52945C194.64 -5.55945 194.64 -7.23945 193.61 -8.27945L166.41 -35.4795C165.38 -36.5095 163.7 -36.5095 162.66 -35.4795L148.51 -21.3295C142.41 -15.2295 141.94 -7.78945 147.31 -2.41945C148.49 -1.20945 149.93 -0.269455 151.51 0.320545V0.330547ZM169.06 -1.17945C171.09 -3.20945 173.87 -3.72946 175.26 -2.32946C176.65 -0.929456 176.14 1.84054 174.11 3.87054C172.08 5.90054 169.3 6.42055 167.91 5.02055C166.52 3.63055 167.03 0.850545 169.06 -1.17945Z" stroke="#B001B0" stroke-width="0.55" stroke-miterlimit="10"/>
<path d="M152.759 11.6806L150.889 11.1806C149.069 10.8806 147.209 11.0206 145.449 11.5806C145.939 9.37059 145.719 7.06059 144.799 4.99059C144.479 4.18059 144.019 3.44058 143.449 2.78058H143.479C143.149 2.36058 142.789 1.95058 142.399 1.57058C137.329 -3.49942 130.239 -3.02941 124.389 2.81059L110.659 16.5406C109.629 17.5706 109.629 19.2506 110.659 20.2906L137.859 47.4906C138.889 48.5206 140.569 48.5206 141.609 47.4906L155.759 33.3406C161.859 27.2406 162.329 19.8006 156.959 14.4306C155.779 13.2206 154.339 12.2806 152.759 11.6906V11.6806ZM135.209 13.2006C133.179 15.2306 130.399 15.7506 129.009 14.3506C127.619 12.9606 128.129 10.1806 130.159 8.15059C132.189 6.12059 134.969 5.60059 136.359 7.00059C137.749 8.39059 137.239 11.1706 135.209 13.2006Z" stroke="#B001B0" stroke-width="0.55" stroke-miterlimit="10"/>
<path d="M117.861 -23.2198L115.991 -23.7198C114.171 -24.0198 112.311 -23.8798 110.551 -23.3198C111.041 -25.5298 110.821 -27.8398 109.901 -29.9098C109.581 -30.7198 109.121 -31.4598 108.551 -32.1198H108.581C108.251 -32.5398 107.891 -32.9498 107.501 -33.3298C102.431 -38.3998 95.3408 -37.9298 89.4908 -32.0898L75.7608 -18.3598C74.7308 -17.3298 74.7308 -15.6498 75.7608 -14.6098L102.961 12.5902C103.991 13.6202 105.671 13.6202 106.711 12.5902L120.861 -1.55981C126.961 -7.65981 127.431 -15.0998 122.061 -20.4698C120.881 -21.6798 119.441 -22.6198 117.861 -23.2098V-23.2198ZM100.311 -21.6998C98.2808 -19.6698 95.5008 -19.1498 94.1108 -20.5498C92.7208 -21.9398 93.2308 -24.7198 95.2608 -26.7498C97.2908 -28.7798 100.071 -29.2998 101.461 -27.8998C102.851 -26.5098 102.341 -23.7298 100.311 -21.6998Z" stroke="#B001B0" stroke-width="0.55" stroke-miterlimit="10"/>
<path d="M127.039 96.0395L128.909 96.5395C130.729 96.8395 132.589 96.6995 134.349 96.1395C133.859 98.3495 134.079 100.66 134.999 102.73C135.319 103.54 135.779 104.28 136.349 104.94H136.319C136.649 105.36 137.009 105.77 137.399 106.15C142.469 111.22 149.559 110.75 155.409 104.91L169.139 91.1795C170.169 90.1495 170.169 88.4695 169.139 87.4295L141.939 60.2295C140.909 59.1995 139.229 59.1995 138.189 60.2295L124.039 74.3795C117.939 80.4795 117.469 87.9195 122.839 93.2895C124.019 94.4995 125.459 95.4395 127.039 96.0295V96.0395ZM144.589 94.5195C146.619 92.4895 149.399 91.9695 150.789 93.3695C152.179 94.7595 151.669 97.5395 149.639 99.5695C147.609 101.6 144.829 102.12 143.439 100.72C142.049 99.3195 142.559 96.5495 144.589 94.5195Z" stroke="#B001B0" stroke-width="0.55" stroke-miterlimit="10"/>
<path d="M91.4299 60.4204L93.2999 60.9204C95.1199 61.2204 96.9799 61.0804 98.7399 60.5204C98.2499 62.7304 98.4699 65.0404 99.3899 67.1104C99.7099 67.9204 100.17 68.6604 100.74 69.3204H100.71C101.04 69.7404 101.4 70.1504 101.79 70.5304C106.86 75.6004 113.95 75.1304 119.8 69.2904L133.53 55.5604C134.56 54.5304 134.56 52.8504 133.53 51.8104L106.33 24.6104C105.3 23.5804 103.62 23.5804 102.58 24.6104L88.4299 38.7604C82.3299 44.8604 81.8599 52.3004 87.2299 57.6704C88.4099 58.8804 89.8499 59.8204 91.4299 60.4104V60.4204ZM108.97 58.9004C111 56.8704 113.78 56.3504 115.17 57.7504C116.56 59.1404 116.05 61.9204 114.02 63.9504C111.99 65.9804 109.21 66.5004 107.82 65.1004C106.43 63.7004 106.94 60.9304 108.97 58.9004Z" stroke="#B001B0" stroke-width="0.55" stroke-miterlimit="10"/>
<path d="M92.6694 71.7704L90.7994 71.2704C88.9794 70.9704 87.1194 71.1104 85.3594 71.6704C85.8494 69.4604 85.6294 67.1504 84.7094 65.0804C84.3894 64.2704 83.9294 63.5304 83.3594 62.8704H83.3894C83.0594 62.4504 82.6994 62.0404 82.3094 61.6604C77.2394 56.5904 70.1494 57.0604 64.2994 62.9004L50.5694 76.6304C49.5394 77.6604 49.5394 79.3404 50.5694 80.3804L77.7694 107.58C78.7994 108.61 80.4794 108.61 81.5194 107.58L95.6694 93.4304C101.769 87.3304 102.239 79.8904 96.8694 74.5204C95.6894 73.3104 94.2494 72.3704 92.6694 71.7804V71.7704ZM75.1194 73.2904C73.0894 75.3204 70.3094 75.8404 68.9194 74.4404C67.5294 73.0504 68.0394 70.2704 70.0694 68.2404C72.0994 66.2104 74.8794 65.6904 76.2694 67.0904C77.6594 68.4804 77.1494 71.2604 75.1194 73.2904Z" stroke="#B001B0" stroke-width="0.55" stroke-miterlimit="10"/>
<path d="M56.5295 25.52L58.3995 26.02C60.2195 26.32 62.0795 26.18 63.8395 25.62C63.3495 27.83 63.5695 30.14 64.4895 32.21C64.8095 33.02 65.2695 33.76 65.8395 34.42H65.8095C66.1395 34.84 66.4995 35.25 66.8895 35.63C71.9595 40.7 79.0495 40.23 84.8995 34.39L98.6295 20.66C99.6595 19.63 99.6595 17.95 98.6295 16.91L71.4295 -10.29C70.3995 -11.32 68.7195 -11.32 67.6795 -10.29L53.5295 3.86C47.4295 9.96 46.9595 17.4 52.3295 22.77C53.5095 23.98 54.9495 24.92 56.5295 25.51V25.52ZM74.0695 24C76.0995 21.97 78.8795 21.45 80.2695 22.85C81.6595 24.24 81.1495 27.02 79.1195 29.05C77.0895 31.08 74.3095 31.6 72.9195 30.2C71.5295 28.81 72.0395 26.03 74.0695 24Z" stroke="#B001B0" stroke-width="0.55" stroke-miterlimit="10"/>
<path d="M57.7709 36.87L55.9009 36.37C54.0809 36.07 52.2209 36.21 50.4609 36.77C50.9509 34.56 50.7309 32.25 49.8109 30.18C49.4909 29.37 49.0309 28.63 48.4609 27.97H48.4909C48.1609 27.55 47.8009 27.14 47.4109 26.76C42.3409 21.69 35.2509 22.16 29.4009 28L15.6709 41.73C14.6409 42.76 14.6409 44.44 15.6709 45.48L42.8709 72.68C43.9009 73.71 45.5809 73.71 46.6209 72.68L60.7709 58.53C66.8709 52.43 67.3409 44.99 61.9709 39.62C60.7909 38.41 59.3509 37.47 57.7709 36.88V36.87ZM40.2209 38.39C38.1909 40.42 35.4109 40.94 34.0209 39.54C32.6309 38.15 33.1409 35.37 35.1709 33.34C37.2009 31.31 39.9809 30.79 41.3709 32.19C42.7609 33.58 42.2509 36.36 40.2209 38.39Z" stroke="#B001B0" stroke-width="0.55" stroke-miterlimit="10"/>
<path d="M20.9101 -10.0894L22.7801 -9.58937C24.6001 -9.28937 26.4601 -9.42938 28.2201 -9.98938C27.7301 -7.77938 27.9501 -5.46938 28.8701 -3.39938C29.1901 -2.58938 29.6501 -1.84937 30.2201 -1.18937H30.1901C30.5201 -0.769373 30.8801 -0.359374 31.2701 0.0206261C36.3401 5.09063 43.4301 4.62062 49.2801 -1.21938L63.0101 -14.9494C64.0401 -15.9794 64.0401 -17.6594 63.0101 -18.6994L35.8201 -45.8994C34.7901 -46.9294 33.1101 -46.9294 32.0701 -45.8994L17.9201 -31.7494C11.8201 -25.6494 11.3501 -18.2094 16.7201 -12.8394C17.9001 -11.6294 19.3401 -10.6894 20.9201 -10.0994L20.9101 -10.0894ZM38.4601 -11.6094C40.4901 -13.6394 43.2701 -14.1594 44.6601 -12.7594C46.0501 -11.3594 45.5401 -8.58938 43.5101 -6.55938C41.4801 -4.52938 38.7001 -4.00937 37.3101 -5.40937C35.9201 -6.79937 36.4301 -9.57938 38.4601 -11.6094Z" stroke="#B001B0" stroke-width="0.55" stroke-miterlimit="10"/>
<path d="M22.1498 1.26066L20.2798 0.760661C18.4598 0.460661 16.5998 0.600663 14.8398 1.16066C15.3298 -1.04934 15.1098 -3.35934 14.1898 -5.42934C13.8698 -6.23934 13.4098 -6.97934 12.8398 -7.63934H12.8698C12.5398 -8.05934 12.1798 -8.46934 11.7898 -8.84934C6.71985 -13.9193 -0.370161 -13.4493 -6.22016 -7.60934L-19.9502 6.12066C-20.9802 7.15066 -20.9802 8.83066 -19.9502 9.87066L7.24984 37.0707C8.27984 38.1007 9.95984 38.1007 10.9998 37.0707L25.1498 22.9207C31.2498 16.8207 31.7198 9.38066 26.3498 4.01066C25.1698 2.80066 23.7298 1.86066 22.1498 1.27066V1.26066ZM4.60983 2.78066C2.57983 4.81066 -0.200157 5.33066 -1.59016 3.93066C-2.98016 2.54066 -2.47016 -0.239338 -0.440163 -2.26934C1.58984 -4.29934 4.36985 -4.81934 5.75985 -3.41934C7.14985 -2.02934 6.63983 0.750662 4.60983 2.78066Z" stroke="#B001B0" stroke-width="0.55" stroke-miterlimit="10"/>
<path d="M-3.56033 85.6098L-1.69034 86.1098C0.129662 86.4098 1.98966 86.2698 3.74966 85.7098C3.25966 87.9198 3.47966 90.2298 4.39966 92.2998C4.71966 93.1098 5.17966 93.8498 5.74966 94.5098H5.71967C6.04967 94.9298 6.40965 95.3398 6.79965 95.7198C11.8697 100.79 18.9597 100.32 24.8097 94.4798L38.5397 80.7498C39.5697 79.7198 39.5697 78.0398 38.5397 76.9998L11.3397 49.7998C10.3097 48.7698 8.62966 48.7698 7.58966 49.7998L-6.56033 63.9498C-12.6603 70.0498 -13.1303 77.4898 -7.76035 82.8598C-6.58035 84.0698 -5.14033 85.0098 -3.56033 85.5998V85.6098ZM13.9797 84.0898C16.0097 82.0598 18.7897 81.5398 20.1797 82.9398C21.5697 84.3298 21.0597 87.1098 19.0297 89.1398C16.9997 91.1698 14.2197 91.6898 12.8297 90.2898C11.4397 88.8998 11.9497 86.1198 13.9797 84.0898Z" stroke="#B001B0" stroke-width="0.55" stroke-miterlimit="10"/>
<path d="M-39.1697 50.0005L-37.2997 50.5005C-35.4797 50.8005 -33.6197 50.6605 -31.8597 50.1005C-32.3497 52.3105 -32.1297 54.6205 -31.2097 56.6905C-30.8897 57.5005 -30.4297 58.2405 -29.8597 58.9005H-29.8897C-29.5597 59.3205 -29.1997 59.7305 -28.8097 60.1105C-23.7397 65.1805 -16.6497 64.7105 -10.7997 58.8705L2.93027 45.1405C3.96027 44.1105 3.96027 42.4305 2.93027 41.3905L-24.2697 14.1905C-25.2997 13.1605 -26.9797 13.1605 -28.0197 14.1905L-42.1697 28.3405C-48.2697 34.4405 -48.7397 41.8805 -43.3697 47.2505C-42.1897 48.4605 -40.7497 49.4005 -39.1697 49.9905V50.0005ZM-21.6297 48.4805C-19.5997 46.4505 -16.8197 45.9305 -15.4297 47.3305C-14.0397 48.7305 -14.5497 51.5005 -16.5797 53.5305C-18.6097 55.5605 -21.3897 56.0805 -22.7797 54.6805C-24.1697 53.2905 -23.6597 50.5105 -21.6297 48.4805Z" stroke="#B001B0" stroke-width="0.55" stroke-miterlimit="10"/>
</g>
</g>
</g>
<defs>
<clipPath id="clip0_602_18083">
<rect width="1442" height="71" fill="white" transform="translate(-1)"/>
</clipPath>
</defs>
</svg>
