<svg width="198" height="199" viewBox="0 0 198 199" fill="none" xmlns="http://www.w3.org/2000/svg">
<path d="M3.90473 122.168L61.5832 93.6878L67.9312 90.551C65.4083 96.5418 65.0176 102.317 69.9777 105.591C82.1229 113.617 92.7499 96.3706 102.51 84.1213C103.716 82.6031 104.843 81.1892 105.918 79.8719L108.411 85.6878L115.221 101.569L125.636 125.848L134.157 145.718C135.325 148.367 134.157 151.47 131.518 152.684L35.3207 197.625C33.2184 198.593 30.7253 197.636 29.8174 195.504L1.41913 128.884C0.332617 126.343 1.42658 123.396 3.90473 122.168Z" fill="#FF4DA1"/>
<path d="M69.491 92.5722C70.6296 91.229 73.6213 88.5462 75.7348 86.6931C76.0548 86.4141 76.3524 86.1499 76.6241 85.9155C77.3422 85.2903 78.4287 85.3648 79.065 86.0717C80.6911 87.8838 83.4371 90.3583 85.4167 92.0885C86.7785 93.2755 86.9646 95.3332 85.8371 96.7434C84.2892 98.682 82.0418 101.29 79.8464 103.088C75.9394 106.288 74.3208 106.061 70.518 103.088C67.5375 100.755 67.6454 94.7378 69.4873 92.5685L69.491 92.5722Z" fill="#E3C4C9"/>
<path d="M105.914 79.8658C109.277 75.7355 112.176 72.5057 115.733 69.808C116.649 72.4239 118.048 76.4202 118.379 77.2835C112.898 79.6797 110.595 82.8314 108.407 85.6816L105.914 79.8658Z" fill="#693341"/>
<path d="M64.0491 68.0018C65.8761 69.5422 67.7477 71.6595 69.597 74.4985C73.0129 70.6957 78.6017 65.3562 88.4102 63.6855C86.4715 66.0445 84.4808 68.1692 82.5459 70.0185C79.7217 72.7125 71.584 81.8623 67.9226 90.547L61.5747 93.6875C58.6574 92.9433 56.7895 90.2865 54.9216 85.933C52.7262 80.8093 51.4239 77.3079 49.4741 71.2911C47.9188 66.5022 55.4276 60.7385 64.0528 68.0018L64.0491 68.0018Z" fill="#8F616B"/>
<path d="M108.406 85.6891C110.59 82.8389 112.897 79.6872 118.378 77.2909C119.837 81.0528 122.229 86.4184 125.34 90.4817C121.582 92.7142 117.068 97.5552 115.215 101.566L108.406 85.6854L108.406 85.6891Z" fill="#693341"/>
<path d="M64.0485 68.0003C64.5248 62.1993 65.5294 50.389 66.1024 46.4002C66.828 41.3397 82.9025 39.1034 80.3314 57.2951C85.4477 52.4467 98.1771 39.8252 100.35 32.4912C105.388 15.4902 111.498 3.75431 119.416 0.610107L123.539 0.610107C106.296 10.6976 103.643 31.1777 101.306 39.6503C98.7612 48.8783 93.764 57.176 88.4133 63.684C78.6048 65.3547 73.0123 70.6905 69.6001 74.4971C67.7508 71.658 65.8755 69.5407 64.0522 68.0003L64.0485 68.0003Z" fill="#693341"/>
<path d="M69.977 105.589C82.1221 113.615 92.7492 96.3681 102.509 84.1188C103.715 82.6006 104.842 81.1866 105.918 79.8694C109.281 75.7392 112.18 72.5094 115.737 69.8117C116.653 72.4275 118.052 76.4238 118.383 77.2871C119.841 81.049 122.234 86.4146 125.345 90.4778C121.587 92.7104 117.073 97.5514 115.22 101.563L125.635 125.842C130.751 121.57 138.655 115.226 145.453 110.575C153.698 104.937 160.962 102.225 163.347 81.7299C165.732 61.2349 171.972 28.6654 173.706 24.3305C174.774 21.6626 195.31 2.87548 196.98 0.613136L123.548 0.61313C106.305 10.7006 103.652 31.1808 101.315 39.6534C98.7697 48.8813 93.7724 57.179 88.4217 63.687C86.4831 66.0461 84.4924 68.1707 82.5575 70.0201C79.7333 72.714 71.5956 81.8638 67.9342 90.5485C65.4113 96.543 65.0206 102.318 69.9807 105.592L69.977 105.589ZM69.4895 92.5727C70.6281 91.2295 73.6198 88.5467 75.7333 86.6936C76.0533 86.4146 76.351 86.1504 76.6226 85.916C77.3407 85.2909 78.4272 85.3653 79.0635 86.0723C80.6896 87.8844 83.4356 90.3588 85.4152 92.089C86.777 93.276 86.9631 95.3337 85.8357 96.7439C84.2877 98.6826 82.0403 101.291 79.8449 103.088C75.9379 106.288 74.3193 106.061 70.5165 103.088C67.536 100.755 67.6439 94.7384 69.4858 92.569L69.4895 92.5727Z" fill="#8F616B"/>
<path d="M115.737 69.8125C117.928 68.1492 120.366 66.6869 123.32 65.3325C126.416 63.9148 130.081 62.6199 134.609 61.3436" stroke="#320032" stroke-width="0.476282" stroke-linecap="round" stroke-linejoin="round"/>
<path d="M69.977 105.589C82.1221 113.615 92.7492 96.3681 102.509 84.1188C103.715 82.6006 104.842 81.1866 105.918 79.8694C109.281 75.7392 112.18 72.5094 115.737 69.8117C116.653 72.4275 118.052 76.4238 118.383 77.2871C119.841 81.049 122.234 86.4146 125.345 90.4778C121.587 92.7104 117.073 97.5514 115.22 101.563L125.635 125.842C130.751 121.57 138.655 115.226 145.453 110.575C153.698 104.937 160.962 102.225 163.347 81.7299C165.732 61.2349 171.972 28.6654 173.706 24.3305C174.774 21.6626 195.31 2.87548 196.98 0.61314L123.548 0.613134C106.305 10.7006 103.652 31.1808 101.315 39.6534C98.7697 48.8813 93.7724 57.179 88.4217 63.687C86.4831 66.0461 84.4924 68.1707 82.5575 70.0201C79.7333 72.714 71.5956 81.8638 67.9342 90.5485C65.4114 96.543 65.0207 102.318 69.9807 105.592L69.977 105.589ZM69.4895 92.5727C70.6281 91.2295 73.6198 88.5467 75.7333 86.6936C76.0533 86.4146 76.351 86.1504 76.6226 85.916C77.3407 85.2909 78.4272 85.3653 79.0635 86.0723C80.6896 87.8844 83.4356 90.3588 85.4152 92.089C86.777 93.276 86.9631 95.3337 85.8356 96.7439C84.2877 98.6826 82.0403 101.291 79.8449 103.088C75.9379 106.288 74.3193 106.061 70.5165 103.088C67.536 100.755 67.6439 94.7384 69.4858 92.569L69.4895 92.5727Z" stroke="#320032" stroke-width="0.476282" stroke-linecap="round" stroke-linejoin="round"/>
<path d="M105.914 79.8658C109.277 75.7355 112.176 72.5057 115.733 69.808C116.649 72.4239 118.048 76.4202 118.379 77.2834C112.898 79.6797 110.595 82.8314 108.407 85.6816L105.914 79.8658Z" stroke="#320032" stroke-width="0.476282" stroke-linecap="round" stroke-linejoin="round"/>
<path d="M125.343 90.4796C126.921 92.541 128.677 94.2676 130.594 95.2871" stroke="#320032" stroke-width="0.476282" stroke-linecap="round" stroke-linejoin="round"/>
<path d="M141.219 83.6816C136.411 82.0258 127.708 71.1532 123.314 65.3336" stroke="#320032" stroke-width="0.476282" stroke-linecap="round" stroke-linejoin="round"/>
<path d="M64.0491 68.0018C65.8761 69.5422 67.7477 71.6595 69.597 74.4985C73.0129 70.6957 78.6017 65.3562 88.4102 63.6855C86.4715 66.0445 84.4808 68.1692 82.5459 70.0185C79.7217 72.7125 71.584 81.8623 67.9226 90.547L61.5747 93.6875C58.6574 92.9433 56.7895 90.2865 54.9216 85.933C52.7262 80.8093 51.4239 77.3079 49.4741 71.2911C47.9188 66.5022 55.4276 60.7385 64.0528 68.0018L64.0491 68.0018Z" stroke="#320032" stroke-width="0.476282" stroke-linecap="round" stroke-linejoin="round"/>
<path d="M69.6058 74.498C70.0002 75.1082 70.3946 75.7445 70.7891 76.418" stroke="#320032" stroke-width="0.476282" stroke-linecap="round" stroke-linejoin="round"/>
<path d="M80.3438 57.2966C80.1875 58.4166 79.9605 59.6073 79.6554 60.8799" stroke="#320032" stroke-width="0.476282" stroke-linecap="round" stroke-linejoin="round"/>
<path d="M69.491 92.5722C70.6296 91.229 73.6213 88.5462 75.7348 86.6931C76.0548 86.4141 76.3524 86.1499 76.6241 85.9155C77.3422 85.2903 78.4287 85.3648 79.065 86.0717C80.6911 87.8838 83.4371 90.3583 85.4167 92.0885C86.7785 93.2755 86.9646 95.3332 85.8371 96.7434C84.2892 98.682 82.0418 101.29 79.8464 103.088C75.9394 106.288 74.3208 106.061 70.518 103.088C67.5375 100.755 67.6454 94.7378 69.4873 92.5685L69.491 92.5722Z" stroke="#320032" stroke-width="0.476282" stroke-linecap="round" stroke-linejoin="round"/>
<path d="M3.90473 122.168L61.5832 93.6878L67.9312 90.551C65.4083 96.5418 65.0176 102.317 69.9777 105.591C82.1229 113.617 92.7499 96.3706 102.51 84.1213C103.716 82.6031 104.843 81.1892 105.918 79.8719L108.411 85.6878L115.221 101.569L125.636 125.848L134.157 145.718C135.325 148.367 134.157 151.47 131.518 152.684L35.3207 197.625C33.2184 198.593 30.7253 197.636 29.8174 195.504L1.41914 128.884C0.33262 126.343 1.42658 123.396 3.90473 122.168Z" stroke="#320032" stroke-width="0.476282" stroke-linecap="round" stroke-linejoin="round"/>
<path d="M108.406 85.6891C110.59 82.8389 112.897 79.6872 118.378 77.2909C119.837 81.0528 122.229 86.4184 125.34 90.4817C121.582 92.7142 117.068 97.5552 115.215 101.566L108.406 85.6854L108.406 85.6891Z" stroke="#320032" stroke-width="0.476282" stroke-linecap="round" stroke-linejoin="round"/>
<path d="M64.0485 68.0003C64.5248 62.1993 65.5294 50.389 66.1024 46.4002C66.828 41.3397 82.9025 39.1034 80.3314 57.2951C85.4477 52.4467 98.1771 39.8252 100.35 32.4912C105.388 15.4902 111.498 3.75431 119.416 0.610107L123.539 0.610107C106.296 10.6976 103.643 31.1777 101.306 39.6503C98.7612 48.8783 93.764 57.176 88.4133 63.684C78.6048 65.3547 73.0123 70.6905 69.6001 74.4971C67.7508 71.658 65.8755 69.5407 64.0522 68.0003L64.0485 68.0003Z" stroke="#320032" stroke-width="0.476282" stroke-linecap="round" stroke-linejoin="round"/>
<circle cx="80.34" cy="57.2999" r="0.238141" transform="rotate(-180 80.34 57.2999)" fill="#320032"/>
<path d="M108.149 117.84C108.882 117.498 109.753 117.851 110.08 118.621L114.467 128.962C114.795 129.736 114.464 130.655 113.727 130.997L100.212 137.312C99.4757 137.654 98.605 137.3 98.2776 136.527L93.9129 126.179C93.5855 125.405 93.9204 124.489 94.6534 124.147L108.149 117.844L108.149 117.84Z" fill="#F2F2F2"/>
<path d="M100.114 137.075C99.4961 137.365 98.7743 137.071 98.4989 136.42L94.1305 126.072C93.8552 125.421 94.1305 124.662 94.7519 124.375L108.248 118.072C108.866 117.785 109.587 118.076 109.863 118.727L114.25 129.067C114.525 129.719 114.25 130.478 113.632 130.768L100.118 137.082L100.114 137.075ZM100.318 137.559L113.833 131.244C114.7 130.839 115.076 129.771 114.696 128.874L110.309 118.533C109.922 117.622 108.91 117.224 108.058 117.622L94.5622 123.925C93.6952 124.331 93.3194 125.395 93.6989 126.292L98.0636 136.64C98.4282 137.547 99.4478 137.96 100.315 137.555L100.318 137.559Z" fill="#010101"/>
<path d="M103.01 130.602C103.226 131.112 103.007 131.718 102.523 131.945L97.5815 134.252L97.7862 134.732L102.728 132.425C103.42 132.102 103.751 131.261 103.505 130.52L103.453 130.398L101.678 126.2L101.645 126.122C101.288 125.4 100.473 125.095 99.7583 125.408L94.8206 127.715L95.0215 128.195L99.9592 125.888C100.443 125.661 101.016 125.895 101.232 126.405L103.007 130.602L103.01 130.602Z" fill="#010101"/>
<path d="M106.707 129.016C107.068 129.701 107.883 130.006 108.59 129.679L113.531 127.372L113.327 126.892L108.374 129.206C107.89 129.433 107.314 129.199 107.098 128.689L105.323 124.492C105.107 123.982 105.323 123.379 105.81 123.152L110.763 120.838L110.558 120.358L105.609 122.672C104.902 123.003 104.564 123.863 104.85 124.622L104.884 124.7L106.659 128.897C106.662 128.949 106.685 128.998 106.711 129.02L106.707 129.016Z" fill="#010101"/>
<path d="M112.156 124.135L111.952 123.655L105.898 126.483L106.102 126.963L112.156 124.135Z" fill="#010101"/>
<path d="M102.457 128.67L102.252 128.19L96.2133 131.01L96.4142 131.49L102.453 128.67L102.457 128.67Z" fill="#010101"/>
<path d="M106.934 128.919L106.729 128.439L103.097 130.136L103.302 130.616L106.934 128.919Z" fill="#010101"/>
<path d="M110.25 132.357L108.877 129.116L108.423 129.328L109.796 132.569L110.254 132.357L110.25 132.357Z" fill="#010101"/>
<path d="M103.938 135.289L102.602 132.126L102.148 132.338L103.484 135.501L103.941 135.289L103.938 135.289Z" fill="#010101"/>
<path d="M106.199 122.788L104.875 119.662L104.421 119.874L105.745 123L106.199 122.788Z" fill="#010101"/>
<path d="M99.8945 125.73L98.5736 122.605L98.1196 122.817L99.4406 125.942L99.8945 125.73Z" fill="#010101"/>
<path d="M105.273 124.999L105.069 124.519L101.441 126.215L101.646 126.695L105.273 124.999Z" fill="#010101"/>
<path d="M20.4615 124.268C21.0829 123.33 21.9722 122.511 23.0773 121.935C26.3071 120.23 30.1657 121.205 31.6913 124.104C33.2169 127.006 31.8364 130.738 28.6029 132.435C27.5015 133.016 26.3257 133.287 25.2019 133.269C26.4224 131.453 26.6792 129.183 25.6745 127.27C24.6661 125.358 22.6494 124.286 20.4615 124.264L20.4615 124.268Z" fill="#DD3C3B"/>
<path d="M20.4619 124.265C22.6498 124.287 24.6665 125.359 25.6749 127.271C26.6833 129.184 26.4228 131.457 25.2023 133.27C23.0107 133.251 20.9939 132.176 19.9893 130.263C18.9809 128.35 19.2414 126.077 20.4619 124.265Z" fill="#EB7E36"/>
<path d="M17.058 125.096C18.1594 124.52 19.3315 124.248 20.4626 124.266C19.2422 126.082 18.9854 128.352 19.9901 130.265C20.9947 132.177 23.0115 133.249 25.2031 133.271C24.578 134.209 23.6887 135.027 22.5873 135.604C19.3575 137.308 15.4989 136.334 13.9733 133.435C12.4477 130.533 13.8245 126.8 17.0617 125.096L17.058 125.096Z" fill="#ECA93D"/>
<path d="M20.4615 124.268C21.0829 123.33 21.9722 122.511 23.0773 121.935C26.3071 120.23 30.1657 121.205 31.6913 124.104C33.2169 127.006 31.8364 130.738 28.6029 132.435C27.5015 133.016 26.3257 133.287 25.2019 133.269C26.4224 131.453 26.6792 129.183 25.6745 127.27C24.6661 125.358 22.6494 124.286 20.4615 124.264L20.4615 124.268Z" stroke="#320032" stroke-width="0.524654" stroke-linecap="round" stroke-linejoin="round"/>
<path d="M20.4619 124.265C22.6498 124.287 24.6665 125.359 25.6749 127.271C26.6833 129.184 26.4228 131.457 25.2023 133.27C23.0107 133.251 20.9939 132.176 19.9893 130.263C18.9809 128.35 19.2414 126.077 20.4619 124.265Z" stroke="#320032" stroke-width="0.524654" stroke-linecap="round" stroke-linejoin="round"/>
<path d="M17.058 125.096C18.1594 124.52 19.3315 124.248 20.4626 124.266C19.2422 126.082 18.9854 128.352 19.9901 130.265C20.9947 132.177 23.0115 133.249 25.2031 133.271C24.578 134.209 23.6887 135.027 22.5873 135.604C19.3575 137.308 15.4989 136.334 13.9733 133.435C12.4477 130.533 13.8245 126.8 17.0617 125.096L17.058 125.096Z" stroke="#320032" stroke-width="0.524654" stroke-linecap="round" stroke-linejoin="round"/>
</svg>
