<svg width="516" height="319" viewBox="0 0 516 319" fill="none" xmlns="http://www.w3.org/2000/svg">
<g opacity="0.6">
<path d="M-40.9922 -26.2949C-11.0111 -26.2949 10.075 6.32129 63.1191 6.32129C116.163 6.32129 134.614 -26.2949 178.434 -26.2949C222.254 -26.2949 247.291 6.32129 290.782 6.32129C334.273 6.32129 362.936 -26.2949 409.72 -26.2949C446.29 -26.2949 470.014 6.32129 525.693 6.32129" stroke="#E79DE4" stroke-width="1.32683" stroke-linecap="round" stroke-linejoin="round"/>
<path d="M-40.9922 -20.9189C-11.0111 -20.9189 10.075 11.6973 63.1191 11.6973C116.163 11.6973 134.614 -20.9189 178.434 -20.9189C222.254 -20.9189 247.294 11.6973 290.782 11.6973C334.271 11.6973 362.936 -20.9189 409.72 -20.9189C446.29 -20.9189 470.014 11.6973 525.693 11.6973" stroke="#E79DE4" stroke-width="1.32683" stroke-linecap="round" stroke-linejoin="round"/>
<path d="M-40.9922 -15.543C-11.0111 -15.543 10.075 17.0732 63.1191 17.0732C116.163 17.0732 134.614 -15.543 178.434 -15.543C222.254 -15.543 247.294 17.0732 290.782 17.0732C334.271 17.0732 362.936 -15.543 409.72 -15.543C446.29 -15.543 470.014 17.0732 525.693 17.0732" stroke="#E79DE4" stroke-width="1.32683" stroke-linecap="round" stroke-linejoin="round"/>
<path d="M-40.9922 -10.166C-11.0111 -10.166 10.075 22.4502 63.1191 22.4502C116.163 22.4502 134.614 -10.166 178.434 -10.166C222.254 -10.166 247.294 22.4502 290.782 22.4502C334.271 22.4502 362.936 -10.166 409.72 -10.166C446.29 -10.166 470.014 22.4502 525.693 22.4502" stroke="#E79DE4" stroke-width="1.32683" stroke-linecap="round" stroke-linejoin="round"/>
<path d="M-40.9922 -4.79102C-11.0111 -4.79102 10.075 27.8252 63.1191 27.8252C116.163 27.8252 134.614 -4.79102 178.434 -4.79102C222.254 -4.79102 247.294 27.8252 290.782 27.8252C334.271 27.8252 362.936 -4.79102 409.72 -4.79102C446.29 -4.79102 470.014 27.8252 525.693 27.8252" stroke="#E79DE4" stroke-width="1.32683" stroke-linecap="round" stroke-linejoin="round"/>
<path d="M-40.9922 0.585938C-11.0111 0.585938 10.075 33.2021 63.1191 33.2021C116.163 33.2021 134.614 0.585938 178.434 0.585938C222.254 0.585938 247.294 33.2021 290.782 33.2021C334.271 33.2021 362.936 0.585938 409.72 0.585938C446.29 0.585938 470.014 33.2021 525.693 33.2021" stroke="#E79DE4" stroke-width="1.32683" stroke-linecap="round" stroke-linejoin="round"/>
<path d="M-40.9922 5.96289C-11.0111 5.96289 10.075 38.5791 63.1191 38.5791C116.163 38.5791 134.614 5.96289 178.434 5.96289C222.254 5.96289 247.294 38.5791 290.782 38.5791C334.271 38.5791 362.936 5.96289 409.72 5.96289C446.29 5.96289 470.014 38.5791 525.693 38.5791" stroke="#E79DE4" stroke-width="1.32683" stroke-linecap="round" stroke-linejoin="round"/>
<path d="M-40.9922 11.3398C-11.0111 11.3398 10.075 43.9561 63.1191 43.9561C116.163 43.9561 134.614 11.3398 178.434 11.3398C222.254 11.3398 247.294 43.9561 290.782 43.9561C334.271 43.9561 362.936 11.3398 409.72 11.3398C446.29 11.3398 470.014 43.9561 525.693 43.9561" stroke="#E79DE4" stroke-width="1.32683" stroke-linecap="round" stroke-linejoin="round"/>
<path d="M-40.9922 16.7158C-11.0111 16.7158 10.075 49.332 63.1191 49.332C116.163 49.332 134.614 16.7158 178.434 16.7158C222.254 16.7158 247.294 49.332 290.782 49.332C334.271 49.332 362.936 16.7158 409.72 16.7158C446.29 16.7158 470.014 49.332 525.693 49.332" stroke="#E79DE4" stroke-width="1.32683" stroke-linecap="round" stroke-linejoin="round"/>
<path d="M-40.9922 22.0918C-11.0111 22.0918 10.075 54.708 63.1191 54.708C116.163 54.708 134.614 22.0918 178.434 22.0918C222.254 22.0918 247.294 54.708 290.782 54.708C334.271 54.708 362.936 22.0918 409.72 22.0918C446.29 22.0918 470.014 54.708 525.693 54.708" stroke="#E79DE4" stroke-width="1.32683" stroke-linecap="round" stroke-linejoin="round"/>
<path d="M-40.9922 27.4678C-11.0111 27.4678 10.075 60.084 63.1191 60.084C116.163 60.084 134.614 27.4678 178.434 27.4678C222.254 27.4678 247.294 60.084 290.782 60.084C334.271 60.084 362.936 27.4678 409.72 27.4678C446.29 27.4678 470.014 60.084 525.693 60.084" stroke="#E79DE4" stroke-width="1.32683" stroke-linecap="round" stroke-linejoin="round"/>
<path d="M-40.9922 32.8447C-11.0111 32.8447 10.075 65.4609 63.1191 65.4609C116.163 65.4609 134.614 32.8447 178.434 32.8447C222.254 32.8447 247.294 65.4609 290.782 65.4609C334.271 65.4609 362.936 32.8447 409.72 32.8447C446.29 32.8447 470.014 65.4609 525.693 65.4609" stroke="#E79DE4" stroke-width="1.32683" stroke-linecap="round" stroke-linejoin="round"/>
<path d="M-40.9922 38.2207C-11.0111 38.2207 10.075 70.8369 63.1191 70.8369C116.163 70.8369 134.614 38.2207 178.434 38.2207C222.254 38.2207 247.294 70.8369 290.782 70.8369C334.271 70.8369 362.936 38.2207 409.72 38.2207C446.29 38.2207 470.014 70.8369 525.693 70.8369" stroke="#E79DE4" stroke-width="1.32683" stroke-linecap="round" stroke-linejoin="round"/>
<path d="M-40.9922 43.5977C-11.0111 43.5977 10.075 76.2139 63.1191 76.2139C116.163 76.2139 134.614 43.5977 178.434 43.5977C222.254 43.5977 247.294 76.2139 290.782 76.2139C334.271 76.2139 362.936 43.5977 409.72 43.5977C446.29 43.5977 470.014 76.2139 525.693 76.2139" stroke="#E79DE4" stroke-width="1.32683" stroke-linecap="round" stroke-linejoin="round"/>
<path d="M-40.9922 48.9736C-11.0111 48.9736 10.075 81.5898 63.1191 81.5898C116.163 81.5898 134.614 48.9736 178.434 48.9736C222.254 48.9736 247.294 81.5898 290.782 81.5898C334.271 81.5898 362.936 48.9736 409.72 48.9736C446.29 48.9736 470.014 81.5898 525.693 81.5898" stroke="#E79DE4" stroke-width="1.32683" stroke-linecap="round" stroke-linejoin="round"/>
<path d="M-40.9922 54.3496C-11.0111 54.3496 10.075 86.9658 63.1191 86.9658C116.163 86.9658 134.614 54.3496 178.434 54.3496C222.254 54.3496 247.294 86.9658 290.782 86.9658C334.271 86.9658 362.936 54.3496 409.72 54.3496C446.29 54.3496 470.014 86.9658 525.693 86.9658" stroke="#E79DE4" stroke-width="1.32683" stroke-linecap="round" stroke-linejoin="round"/>
<path d="M-40.9922 59.7266C-11.0111 59.7266 10.075 92.3428 63.1191 92.3428C116.163 92.3428 134.614 59.7266 178.434 59.7266C222.254 59.7266 247.294 92.3428 290.782 92.3428C334.271 92.3428 362.936 59.7266 409.72 59.7266C446.29 59.7266 470.014 92.3428 525.693 92.3428" stroke="#E79DE4" stroke-width="1.32683" stroke-linecap="round" stroke-linejoin="round"/>
<path d="M-40.9922 65.1025C-11.0111 65.1025 10.075 97.7187 63.1191 97.7187C116.163 97.7187 134.614 65.1025 178.434 65.1025C222.254 65.1025 247.294 97.7187 290.782 97.7187C334.271 97.7187 362.936 65.1025 409.72 65.1025C446.29 65.1025 470.014 97.7187 525.693 97.7187" stroke="#E79DE4" stroke-width="1.32683" stroke-linecap="round" stroke-linejoin="round"/>
<path d="M-40.9922 70.4775C-11.0111 70.4775 10.075 103.094 63.1191 103.094C116.163 103.094 134.614 70.4775 178.434 70.4775C222.254 70.4775 247.294 103.094 290.782 103.094C334.271 103.094 362.936 70.4775 409.72 70.4775C446.29 70.4775 470.014 103.094 525.693 103.094" stroke="#E79DE4" stroke-width="1.32683" stroke-linecap="round" stroke-linejoin="round"/>
<path d="M-40.9922 75.8555C-11.0111 75.8555 10.075 108.472 63.1191 108.472C116.163 108.472 134.614 75.8555 178.434 75.8555C222.254 75.8555 247.294 108.472 290.782 108.472C334.271 108.472 362.936 75.8555 409.72 75.8555C446.29 75.8555 470.014 108.472 525.693 108.472" stroke="#E79DE4" stroke-width="1.32683" stroke-linecap="round" stroke-linejoin="round"/>
<path d="M-40.9922 81.2314C-11.0111 81.2314 10.075 113.848 63.1191 113.848C116.163 113.848 134.614 81.2314 178.434 81.2314C222.254 81.2314 247.294 113.848 290.782 113.848C334.271 113.848 362.936 81.2314 409.72 81.2314C446.29 81.2314 470.014 113.848 525.693 113.848" stroke="#E79DE4" stroke-width="1.32683" stroke-linecap="round" stroke-linejoin="round"/>
<path d="M-40.9922 86.6074C-11.0111 86.6074 10.075 119.224 63.1191 119.224C116.163 119.224 134.614 86.6074 178.434 86.6074C222.254 86.6074 247.294 119.224 290.782 119.224C334.271 119.224 362.936 86.6074 409.72 86.6074C446.29 86.6074 470.014 119.224 525.693 119.224" stroke="#E79DE4" stroke-width="1.32683" stroke-linecap="round" stroke-linejoin="round"/>
<path d="M-40.9922 91.9844C-11.0111 91.9844 10.075 124.601 63.1191 124.601C116.163 124.601 134.614 91.9844 178.434 91.9844C222.254 91.9844 247.294 124.601 290.782 124.601C334.271 124.601 362.936 91.9844 409.72 91.9844C446.29 91.9844 470.014 124.601 525.693 124.601" stroke="#E79DE4" stroke-width="1.32683" stroke-linecap="round" stroke-linejoin="round"/>
<path d="M-40.9922 97.3604C-11.0111 97.3604 10.075 129.977 63.1191 129.977C116.163 129.977 134.614 97.3604 178.434 97.3604C222.254 97.3604 247.294 129.977 290.782 129.977C334.271 129.977 362.936 97.3604 409.72 97.3604C446.29 97.3604 470.014 129.977 525.693 129.977" stroke="#E79DE4" stroke-width="1.32683" stroke-linecap="round" stroke-linejoin="round"/>
<path d="M-40.9922 102.736C-11.0111 102.736 10.075 135.353 63.1191 135.353C116.163 135.353 134.614 102.736 178.434 102.736C222.254 102.736 247.294 135.353 290.782 135.353C334.271 135.353 362.936 102.736 409.72 102.736C446.29 102.736 470.014 135.353 525.693 135.353" stroke="#E79DE4" stroke-width="1.32683" stroke-linecap="round" stroke-linejoin="round"/>
<path d="M-40.9922 108.113C-11.0111 108.113 10.075 140.729 63.1191 140.729C116.163 140.729 134.614 108.113 178.434 108.113C222.254 108.113 247.294 140.729 290.782 140.729C334.271 140.729 362.936 108.113 409.72 108.113C446.29 108.113 470.014 140.729 525.693 140.729" stroke="#E79DE4" stroke-width="1.32683" stroke-linecap="round" stroke-linejoin="round"/>
<path d="M-40.9922 113.489C-11.0111 113.489 10.075 146.105 63.1191 146.105C116.163 146.105 134.614 113.489 178.434 113.489C222.254 113.489 247.294 146.105 290.782 146.105C334.271 146.105 362.936 113.489 409.72 113.489C446.29 113.489 470.014 146.105 525.693 146.105" stroke="#E79DE4" stroke-width="1.32683" stroke-linecap="round" stroke-linejoin="round"/>
<path d="M-40.9922 118.865C-11.0111 118.865 10.075 151.481 63.1191 151.481C116.163 151.481 134.614 118.865 178.434 118.865C222.254 118.865 247.294 151.481 290.782 151.481C334.271 151.481 362.936 118.865 409.72 118.865C446.29 118.865 470.014 151.481 525.693 151.481" stroke="#E79DE4" stroke-width="1.32683" stroke-linecap="round" stroke-linejoin="round"/>
<path d="M-40.9922 124.242C-11.0111 124.242 10.075 156.858 63.1191 156.858C116.163 156.858 134.614 124.242 178.434 124.242C222.254 124.242 247.294 156.858 290.782 156.858C334.271 156.858 362.936 124.242 409.72 124.242C446.29 124.242 470.014 156.858 525.693 156.858" stroke="#E79DE4" stroke-width="1.32683" stroke-linecap="round" stroke-linejoin="round"/>
<path d="M-40.9922 129.618C-11.0111 129.618 10.075 162.234 63.1191 162.234C116.163 162.234 134.614 129.618 178.434 129.618C222.254 129.618 247.294 162.234 290.782 162.234C334.271 162.234 362.936 129.618 409.72 129.618C446.29 129.618 470.014 162.234 525.693 162.234" stroke="#E79DE4" stroke-width="1.32683" stroke-linecap="round" stroke-linejoin="round"/>
<path d="M-40.9922 134.994C-11.0111 134.994 10.075 167.61 63.1191 167.61C116.163 167.61 134.614 134.994 178.434 134.994C222.254 134.994 247.294 167.61 290.782 167.61C334.271 167.61 362.936 134.994 409.72 134.994C446.29 134.994 470.014 167.61 525.693 167.61" stroke="#E79DE4" stroke-width="1.32683" stroke-linecap="round" stroke-linejoin="round"/>
<path d="M-40.9922 140.371C-11.0111 140.371 10.075 172.987 63.1191 172.987C116.163 172.987 134.614 140.371 178.434 140.371C222.254 140.371 247.294 172.987 290.782 172.987C334.271 172.987 362.936 140.371 409.72 140.371C446.29 140.371 470.014 172.987 525.693 172.987" stroke="#E79DE4" stroke-width="1.32683" stroke-linecap="round" stroke-linejoin="round"/>
<path d="M-40.9922 145.747C-11.0111 145.747 10.075 178.363 63.1191 178.363C116.163 178.363 134.614 145.747 178.434 145.747C222.254 145.747 247.294 178.363 290.782 178.363C334.271 178.363 362.936 145.747 409.72 145.747C446.29 145.747 470.014 178.363 525.693 178.363" stroke="#E79DE4" stroke-width="1.32683" stroke-linecap="round" stroke-linejoin="round"/>
<path d="M-40.9922 151.123C-11.0111 151.123 10.075 183.739 63.1191 183.739C116.163 183.739 134.614 151.123 178.434 151.123C222.254 151.123 247.294 183.739 290.782 183.739C334.271 183.739 362.936 151.123 409.72 151.123C446.29 151.123 470.014 183.739 525.693 183.739" stroke="#E79DE4" stroke-width="1.32683" stroke-linecap="round" stroke-linejoin="round"/>
<path d="M-40.9922 156.5C-11.0111 156.5 10.075 189.116 63.1191 189.116C116.163 189.116 134.614 156.5 178.434 156.5C222.254 156.5 247.294 189.116 290.782 189.116C334.271 189.116 362.936 156.5 409.72 156.5C446.29 156.5 470.014 189.116 525.693 189.116" stroke="#E79DE4" stroke-width="1.32683" stroke-linecap="round" stroke-linejoin="round"/>
<path d="M-40.9922 161.879C-11.0111 161.879 10.075 194.495 63.1191 194.495C116.163 194.495 134.614 161.879 178.434 161.879C222.254 161.879 247.294 194.495 290.782 194.495C334.271 194.495 362.936 161.879 409.72 161.879C446.29 161.879 470.014 194.495 525.693 194.495" stroke="#E79DE4" stroke-width="1.32683" stroke-linecap="round" stroke-linejoin="round"/>
<path d="M-40.9922 167.255C-11.0111 167.255 10.075 199.871 63.1191 199.871C116.163 199.871 134.614 167.255 178.434 167.255C222.254 167.255 247.294 199.871 290.782 199.871C334.271 199.871 362.936 167.255 409.72 167.255C446.29 167.255 470.014 199.871 525.693 199.871" stroke="#E79DE4" stroke-width="1.32683" stroke-linecap="round" stroke-linejoin="round"/>
<path d="M-40.9922 172.632C-11.0111 172.632 10.075 205.248 63.1191 205.248C116.163 205.248 134.614 172.632 178.434 172.632C222.254 172.632 247.294 205.248 290.782 205.248C334.271 205.248 362.936 172.632 409.72 172.632C446.29 172.632 470.014 205.248 525.693 205.248" stroke="#E79DE4" stroke-width="1.32683" stroke-linecap="round" stroke-linejoin="round"/>
<path d="M-40.9922 178.008C-11.0111 178.008 10.075 210.624 63.1191 210.624C116.163 210.624 134.614 178.008 178.434 178.008C222.254 178.008 247.294 210.624 290.782 210.624C334.271 210.624 362.936 178.008 409.72 178.008C446.29 178.008 470.014 210.624 525.693 210.624" stroke="#E79DE4" stroke-width="1.32683" stroke-linecap="round" stroke-linejoin="round"/>
<path d="M-40.9922 183.384C-11.0111 183.384 10.075 216 63.1191 216C116.163 216 134.614 183.384 178.434 183.384C222.254 183.384 247.294 216 290.782 216C334.271 216 362.936 183.384 409.72 183.384C446.29 183.384 470.014 216 525.693 216" stroke="#E79DE4" stroke-width="1.32683" stroke-linecap="round" stroke-linejoin="round"/>
<path d="M-40.9922 188.761C-11.0111 188.761 10.075 221.377 63.1191 221.377C116.163 221.377 134.614 188.761 178.434 188.761C222.254 188.761 247.294 221.377 290.782 221.377C334.271 221.377 362.936 188.761 409.72 188.761C446.29 188.761 470.014 221.377 525.693 221.377" stroke="#E79DE4" stroke-width="1.32683" stroke-linecap="round" stroke-linejoin="round"/>
<path d="M-40.9922 194.137C-11.0111 194.137 10.075 226.753 63.1191 226.753C116.163 226.753 134.614 194.137 178.434 194.137C222.254 194.137 247.294 226.753 290.782 226.753C334.271 226.753 362.936 194.137 409.72 194.137C446.29 194.137 470.014 226.753 525.693 226.753" stroke="#E79DE4" stroke-width="1.32683" stroke-linecap="round" stroke-linejoin="round"/>
<path d="M-40.9922 199.513C-11.0111 199.513 10.075 232.129 63.1191 232.129C116.163 232.129 134.614 199.513 178.434 199.513C222.254 199.513 247.294 232.129 290.782 232.129C334.271 232.129 362.936 199.513 409.72 199.513C446.29 199.513 470.014 232.129 525.693 232.129" stroke="#E79DE4" stroke-width="1.32683" stroke-linecap="round" stroke-linejoin="round"/>
<path d="M-40.9922 204.89C-11.0111 204.89 10.075 237.506 63.1191 237.506C116.163 237.506 134.614 204.89 178.434 204.89C222.254 204.89 247.294 237.506 290.782 237.506C334.271 237.506 362.936 204.89 409.72 204.89C446.29 204.89 470.014 237.506 525.693 237.506" stroke="#E79DE4" stroke-width="1.32683" stroke-linecap="round" stroke-linejoin="round"/>
<path d="M-40.9922 210.266C-11.0111 210.266 10.075 242.882 63.1191 242.882C116.163 242.882 134.614 210.266 178.434 210.266C222.254 210.266 247.294 242.882 290.782 242.882C334.271 242.882 362.936 210.266 409.72 210.266C446.29 210.266 470.014 242.882 525.693 242.882" stroke="#E79DE4" stroke-width="1.32683" stroke-linecap="round" stroke-linejoin="round"/>
<path d="M-40.9922 215.642C-11.0111 215.642 10.075 248.258 63.1191 248.258C116.163 248.258 134.614 215.642 178.434 215.642C222.254 215.642 247.294 248.258 290.782 248.258C334.271 248.258 362.936 215.642 409.72 215.642C446.29 215.642 470.014 248.258 525.693 248.258" stroke="#E79DE4" stroke-width="1.32683" stroke-linecap="round" stroke-linejoin="round"/>
<path d="M-40.9922 221.019C-11.0111 221.019 10.075 253.635 63.1191 253.635C116.163 253.635 134.614 221.019 178.434 221.019C222.254 221.019 247.294 253.635 290.782 253.635C334.271 253.635 362.936 221.019 409.72 221.019C446.29 221.019 470.014 253.635 525.693 253.635" stroke="#E79DE4" stroke-width="1.32683" stroke-linecap="round" stroke-linejoin="round"/>
<path d="M-40.9922 226.395C-11.0111 226.395 10.075 259.011 63.1191 259.011C116.163 259.011 134.614 226.395 178.434 226.395C222.254 226.395 247.294 259.011 290.782 259.011C334.271 259.011 362.936 226.395 409.72 226.395C446.29 226.395 470.014 259.011 525.693 259.011" stroke="#E79DE4" stroke-width="1.32683" stroke-linecap="round" stroke-linejoin="round"/>
<path d="M-40.9922 231.771C-11.0111 231.771 10.075 264.387 63.1191 264.387C116.163 264.387 134.614 231.771 178.434 231.771C222.254 231.771 247.294 264.387 290.782 264.387C334.271 264.387 362.936 231.771 409.72 231.771C446.29 231.771 470.014 264.387 525.693 264.387" stroke="#E79DE4" stroke-width="1.32683" stroke-linecap="round" stroke-linejoin="round"/>
<path d="M-40.9922 237.147C-11.0111 237.147 10.075 269.764 63.1191 269.764C116.163 269.764 134.614 237.147 178.434 237.147C222.254 237.147 247.294 269.764 290.782 269.764C334.271 269.764 362.936 237.147 409.72 237.147C446.29 237.147 470.014 269.764 525.693 269.764" stroke="#E79DE4" stroke-width="1.32683" stroke-linecap="round" stroke-linejoin="round"/>
<path d="M-40.9922 242.523C-11.0111 242.523 10.075 275.14 63.1191 275.14C116.163 275.14 134.614 242.523 178.434 242.523C222.254 242.523 247.294 275.14 290.782 275.14C334.271 275.14 362.936 242.523 409.72 242.523C446.29 242.523 470.014 275.14 525.693 275.14" stroke="#E79DE4" stroke-width="1.32683" stroke-linecap="round" stroke-linejoin="round"/>
<path d="M-40.9922 247.899C-11.0111 247.899 10.075 280.516 63.1191 280.516C116.163 280.516 134.614 247.899 178.434 247.899C222.254 247.899 247.294 280.516 290.782 280.516C334.271 280.516 362.936 247.899 409.72 247.899C446.29 247.899 470.014 280.516 525.693 280.516" stroke="#E79DE4" stroke-width="1.32683" stroke-linecap="round" stroke-linejoin="round"/>
<path d="M-40.9922 253.277C-11.0111 253.277 10.075 285.894 63.1191 285.894C116.163 285.894 134.614 253.277 178.434 253.277C222.254 253.277 247.294 285.894 290.782 285.894C334.271 285.894 362.936 253.277 409.72 253.277C446.29 253.277 470.014 285.894 525.693 285.894" stroke="#E79DE4" stroke-width="1.32683" stroke-linecap="round" stroke-linejoin="round"/>
<path d="M-40.9922 258.652C-11.0111 258.652 10.075 291.269 63.1191 291.269C116.163 291.269 134.614 258.652 178.434 258.652C222.254 258.652 247.294 291.269 290.782 291.269C334.271 291.269 362.936 258.652 409.72 258.652C446.29 258.652 470.014 291.269 525.693 291.269" stroke="#E79DE4" stroke-width="1.32683" stroke-linecap="round" stroke-linejoin="round"/>
<path d="M-40.9922 264.028C-11.0111 264.028 10.075 296.645 63.1191 296.645C116.163 296.645 134.614 264.028 178.434 264.028C222.254 264.028 247.294 296.645 290.782 296.645C334.271 296.645 362.936 264.028 409.72 264.028C446.29 264.028 470.014 296.645 525.693 296.645" stroke="#E79DE4" stroke-width="1.32683" stroke-linecap="round" stroke-linejoin="round"/>
<path d="M-40.9922 269.405C-11.0111 269.405 10.075 302.021 63.1191 302.021C116.163 302.021 134.614 269.405 178.434 269.405C222.254 269.405 247.294 302.021 290.782 302.021C334.271 302.021 362.936 269.405 409.72 269.405C446.29 269.405 470.014 302.021 525.693 302.021" stroke="#E79DE4" stroke-width="1.32683" stroke-linecap="round" stroke-linejoin="round"/>
<path d="M-40.9922 274.781C-11.0111 274.781 10.075 307.397 63.1191 307.397C116.163 307.397 134.614 274.781 178.434 274.781C222.254 274.781 247.294 307.397 290.782 307.397C334.271 307.397 362.936 274.781 409.72 274.781C446.29 274.781 470.014 307.397 525.693 307.397" stroke="#E79DE4" stroke-width="1.32683" stroke-linecap="round" stroke-linejoin="round"/>
<path d="M-40.9922 280.157C-11.0111 280.157 10.075 312.773 63.1191 312.773C116.163 312.773 134.614 280.157 178.434 280.157C222.254 280.157 247.294 312.773 290.782 312.773C334.271 312.773 362.936 280.157 409.72 280.157C446.29 280.157 470.014 312.773 525.693 312.773" stroke="#E79DE4" stroke-width="1.32683" stroke-linecap="round" stroke-linejoin="round"/>
<path d="M-40.9922 285.535C-11.0111 285.535 10.075 318.151 63.1191 318.151C116.163 318.151 134.614 285.535 178.434 285.535C222.254 285.535 247.294 318.151 290.782 318.151C334.271 318.151 362.936 285.535 409.72 285.535C446.29 285.535 470.014 318.151 525.693 318.151" stroke="#E79DE4" stroke-width="1.32683" stroke-linecap="round" stroke-linejoin="round"/>
</g>
</svg>
